<?xml version="1.0" encoding="utf-8"?>
<!-- Generator: Adobe Illustrator 24.1.2, SVG Export Plug-In . SVG Version: 6.00 Build 0)  -->
<svg version="1.1" id="TEXTO" xmlns="http://www.w3.org/2000/svg" xmlns:xlink="http://www.w3.org/1999/xlink" x="0px" y="0px"
	 viewBox="0 0 320 418" style="enable-background:new 0 0 320 418;" xml:space="preserve">
<style type="text/css">
	.st0{fill:#E5E7EF;}
	.st1{fill:#FFFFFF;}
</style>
<path d="M304,13.6v288.8H15.2V13.6H304 M305.7,0H13.5C6.9,0,1.6,5.3,1.6,11.9v292.2c0,6.6,5.3,11.9,11.9,11.9h292.2
	c6.6,0,11.9-5.3,11.9-11.9V11.9C317.5,5.3,312.2,0,305.7,0L305.7,0z"/>
<path d="M306.6,344.2H177.7l-8.1-10.7l-9.1-12l-9.1,12l-8.1,10.7H14c-6.6,0-11.9,5.3-11.9,11.9v50c0,6.6,5.3,11.9,11.9,11.9h292.6
	c6.6,0,11.9-5.3,11.9-11.9v-50C318.5,349.5,313.2,344.2,306.6,344.2z"/>
<g>
	<path class="st0" d="M37.6,20.5h243.3c8.3,0,15.1,6.7,15.1,15.1v243.3c0,8.3-6.7,15.1-15.1,15.1H37.6c-8.3,0-15.1-6.7-15.1-15.1
		V35.5C22.5,27.2,29.3,20.5,37.6,20.5z"/>
	<path d="M126.8,60.7H62.7v64.1h64.1V60.7L126.8,60.7z M111.7,109.7H77.8v-34h33.9V109.7z"/>
	<rect x="87.2" y="85.2" width="15.1" height="15.1"/>
	<path d="M255.7,60.7h-64.1v64.1h64.1V60.7z M240.7,109.7h-34v-34h34V109.7z"/>
	<rect x="216.1" y="85.2" width="15.1" height="15.1"/>
	<path d="M126.8,189.6H62.7v64.1h64.1V189.6L126.8,189.6z M111.7,238.6H77.8v-33.9h33.9V238.6z"/>
	<rect x="87.2" y="214.1" width="15.1" height="15.1"/>
	<rect x="77.8" y="134.9" width="15.1" height="15.1"/>
	<polygon points="107.6,165.1 107.6,180.1 122.6,180.1 122.6,165.1 107.9,165.1 107.9,150 92.9,150 92.9,165.1 	"/>
	<rect x="168.3" y="89.7" width="15.1" height="15.1"/>
	<rect x="138.1" y="75.7" width="15.1" height="29"/>
	<rect x="153.2" y="60.7" width="15.1" height="15.1"/>
	<polygon points="168.3,104.8 153.2,104.8 153.2,119.8 138.1,119.8 138.1,134.9 168.3,134.9 	"/>
	<polygon points="153.2,180.1 153.2,194.9 168.3,194.9 168.3,209.6 198.4,209.6 198.4,194.5 168.3,194.5 168.3,179.8 153.2,179.8 
		153.2,150 138.1,150 138.1,180.1 	"/>
	<rect x="168.3" y="134.9" width="15.1" height="30.2"/>
	<path d="M213.5,179.8h42.2v-30.2h-15v-14.7h-27.5V150h-14.7v15.1h15.1v14.7L213.5,179.8L213.5,179.8z M213.5,150h27.2v14.7h-27.1
		L213.5,150L213.5,150z"/>
	<rect x="240.7" y="194.5" width="15.1" height="30.2"/>
	<rect x="183.3" y="165.1" width="15.1" height="15.1"/>
	<rect x="198.4" y="209.6" width="15.1" height="15.1"/>
	<rect x="213.5" y="194.5" width="15.1" height="15.1"/>
	<polygon points="228.6,253.7 228.6,239.6 240.7,239.6 240.7,224.6 213.5,224.6 213.5,253.7 	"/>
	<rect x="138.1" y="194.9" width="15.1" height="28.7"/>
	<polygon points="168.3,253.7 168.3,238.6 183,238.6 183,253.7 198.1,253.7 198.1,238.6 183.3,238.6 183.3,223.5 153.2,223.5 
		153.2,253.7 	"/>
	<rect x="107.9" y="134.9" width="30.2" height="15.1"/>
</g>
<g>
	<path class="st1" d="M87.8,396.6c-3.3,0-5.8-0.9-7.6-2.6s-2.7-4.3-2.7-7.6h6.6c0,1.6,0.3,2.8,1,3.6c0.6,0.8,1.5,1.2,2.7,1.2
		c1,0,1.7-0.3,2.3-0.9c0.6-0.6,0.8-1.3,0.8-2.3c0-0.9-0.3-1.7-0.8-2.3c-0.5-0.6-1.3-1.2-2.4-1.8l-3.8-1.8c-2.1-1-3.6-2.2-4.6-3.6
		s-1.5-3.1-1.5-5.2c0-2.5,0.9-4.6,2.6-6.1s4-2.3,6.9-2.3c3.1,0,5.5,0.8,7.1,2.4c1.6,1.6,2.4,3.9,2.4,7h-6.5c0-2.8-1.1-4.2-3.2-4.2
		c-0.9,0-1.6,0.3-2.1,0.8s-0.8,1.2-0.8,2.1s0.3,1.6,0.8,2.2s1.4,1.2,2.7,1.8l4,2c2,1.1,3.4,2.2,4.3,3.6c0.9,1.3,1.3,3,1.3,4.9
		c0,2.7-0.9,4.9-2.6,6.6C93.1,395.8,90.8,396.6,87.8,396.6z"/>
	<path class="st1" d="M108.8,396.4c-3,0-5.4-1-7.1-2.9c-1.7-1.9-2.6-4.6-2.6-8c0-3.3,0.9-5.9,2.6-7.9c1.8-2,4.1-3,7-3
		s5.2,0.7,6.8,2.2c1.6,1.4,2.4,3.5,2.4,6.2h-6.1c-0.1-2.1-1.1-3.1-3-3.1c-1.1,0-2,0.5-2.6,1.5s-0.9,2.4-0.9,4.1
		c0,3.7,1.2,5.6,3.6,5.6c1.8,0,2.8-1,3-2.9h6.1c-0.1,2.7-1,4.7-2.6,6.1C113.8,395.6,111.6,396.4,108.8,396.4z"/>
	<path class="st1" d="M128.1,396.4c-2.5,0-4.5-1-5.9-3c-1.5-2-2.2-4.6-2.2-7.9s0.7-5.9,2.2-7.8c1.5-2,3.5-3,5.9-3
		c2.8,0,4.7,1.2,5.7,3.6v-3h6.3v20.5h-6.3v-3C132.7,395.1,130.8,396.4,128.1,396.4z M130.1,391.1c1.2,0,2.2-0.5,2.9-1.4
		c0.7-1,1-2.3,1-4.1s-0.3-3.1-1-4.1s-1.6-1.4-2.9-1.4c-1.3,0-2.2,0.5-2.9,1.4s-1,2.3-1,4.1c0,1.8,0.3,3.2,1,4.1
		S128.8,391.1,130.1,391.1z"/>
	<path class="st1" d="M144.2,395.8v-20.5h6.2v2.9c1.1-2.3,3.1-3.5,5.8-3.5c2,0,3.6,0.6,4.7,1.9c1.1,1.3,1.6,3.2,1.6,5.7v13.4h-6.3
		V384c0-1.4-0.2-2.5-0.6-3.1c-0.4-0.7-1.1-1-2.1-1c-2.1,0-3.1,1.6-3.1,4.7v11.1h-6.2L144.2,395.8L144.2,395.8z"/>
	<path class="st1" d="M174.9,395.8v-30h7.4l5.7,21.4l5.7-21.4h7.4v30h-6v-18.3l-4.9,18.3h-4.4l-4.9-18.3v18.3H174.9z"/>
	<path class="st1" d="M223.1,384.3c0,1.1-0.1,2-0.2,3h-12.6c0.1,1.4,0.4,2.5,1,3.3s1.5,1.2,2.7,1.2c1.7,0,2.7-0.7,3.1-2.1h5.6
		c-0.3,2.2-1.2,3.8-2.7,5s-3.5,1.8-6,1.8c-3.2,0-5.6-0.9-7.4-2.8c-1.7-1.9-2.6-4.5-2.6-8s0.9-6.1,2.6-8.1c1.7-1.9,4.1-2.9,7.2-2.9
		c2.9,0,5.2,0.9,6.8,2.6C222.3,378.9,223.1,381.4,223.1,384.3z M210.3,383.3h6.8c0-2.9-1.1-4.4-3.3-4.4S210.4,380.3,210.3,383.3z"/>
	<path class="st1" d="M241.6,394.9c-0.8,0.8-1.9,1.3-3.1,1.3s-2.2-0.4-3.1-1.3c-0.8-0.8-1.3-1.8-1.3-3s0.4-2.2,1.3-3
		c0.8-0.8,1.9-1.3,3.1-1.3s2.2,0.4,3.1,1.3c0.8,0.8,1.3,1.8,1.3,3S242.5,394.1,241.6,394.9z M235.4,385.4v-19.6h6.4v19.6H235.4z"/>
</g>
</svg>
