<?xml version="1.0" encoding="utf-8"?>
<!-- Generator: Adobe Illustrator 24.1.2, SVG Export Plug-In . SVG Version: 6.00 Build 0)  -->
<svg version="1.1" id="TEXTO" xmlns="http://www.w3.org/2000/svg" xmlns:xlink="http://www.w3.org/1999/xlink" x="0px" y="0px"
	 viewBox="0 0 320 418" style="enable-background:new 0 0 320 418;" xml:space="preserve">
<style type="text/css">
	.st0{fill:#E5E7EF;}
	.st1{fill:#FFFFFF;}
</style>
<path d="M303.5,116.3V403H16.9V116.3H303.5 M305.2,102.8h-290c-6.5,0-11.8,5.3-11.8,11.8v290c0,6.5,5.3,11.8,11.8,11.8h290
	c6.5,0,11.8-5.3,11.8-11.8v-290C317,108.1,311.7,102.8,305.2,102.8L305.2,102.8z"/>
<g>
	<path d="M14.8,1.6h290.5c6.5,0,11.8,5.3,11.8,11.8v49.7c0,6.5-5.3,11.8-11.8,11.8H14.8C8.3,74.9,3,69.6,3,63.1V13.4
		C3,6.9,8.3,1.6,14.8,1.6z"/>
	<polygon points="277.6,73.9 259.6,73.9 241.6,73.9 250.6,85.8 259.6,97.7 268.6,85.8 	"/>
</g>
<g>
	<path class="st0" d="M37.8,122.9h243.3c8.3,0,15.1,6.7,15.1,15.1v243.3c0,8.3-6.7,15.1-15.1,15.1H37.8c-8.3,0-15.1-6.7-15.1-15.1
		V137.9C22.7,129.6,29.5,122.9,37.8,122.9z"/>
	<path d="M127,163.1H62.9v64.1H127V163.1L127,163.1z M111.9,212.1H78v-34h33.9V212.1z"/>
	<rect x="87.4" y="187.6" width="15.1" height="15.1"/>
	<path d="M255.9,163.1h-64.1v64.1h64.1V163.1z M240.9,212.1h-34v-34h34V212.1z"/>
	<rect x="216.3" y="187.6" width="15.1" height="15.1"/>
	<path d="M127,292H62.9v64.1H127V292L127,292z M111.9,341H78v-33.9h33.9V341z"/>
	<rect x="87.4" y="316.5" width="15.1" height="15.1"/>
	<rect x="78" y="237.3" width="15.1" height="15.1"/>
	<polygon points="107.8,267.5 107.8,282.5 122.8,282.5 122.8,267.5 108.1,267.5 108.1,252.4 93.1,252.4 93.1,267.5 	"/>
	<rect x="168.5" y="192.1" width="15.1" height="15.1"/>
	<rect x="138.3" y="178.1" width="15.1" height="29"/>
	<rect x="153.4" y="163.1" width="15.1" height="15.1"/>
	<polygon points="168.5,207.2 153.4,207.2 153.4,222.2 138.3,222.2 138.3,237.3 168.5,237.3 	"/>
	<polygon points="153.4,282.5 153.4,297.3 168.5,297.3 168.5,312 198.6,312 198.6,296.9 168.5,296.9 168.5,282.2 153.4,282.2 
		153.4,252.4 138.3,252.4 138.3,282.5 	"/>
	<rect x="168.5" y="237.3" width="15.1" height="30.2"/>
	<path d="M213.7,282.2h42.2V252h-15v-14.7h-27.5v15.1h-14.7v15.1h15.1v14.7L213.7,282.2L213.7,282.2z M213.7,252.4h27.2v14.7h-27.1
		L213.7,252.4L213.7,252.4z"/>
	<rect x="240.9" y="296.9" width="15.1" height="30.2"/>
	<rect x="183.5" y="267.5" width="15.1" height="15.1"/>
	<rect x="198.6" y="312" width="15.1" height="15.1"/>
	<rect x="213.7" y="296.9" width="15.1" height="15.1"/>
	<polygon points="228.8,356.1 228.8,342 240.9,342 240.9,327 213.7,327 213.7,356.1 	"/>
	<rect x="138.3" y="297.3" width="15.1" height="28.7"/>
	<polygon points="168.5,356.1 168.5,341 183.2,341 183.2,356.1 198.3,356.1 198.3,341 183.5,341 183.5,325.9 153.4,325.9 
		153.4,356.1 	"/>
	<rect x="108.1" y="237.3" width="30.2" height="15.1"/>
</g>
<g>
	<path class="st1" d="M88.5,53.1c-3.3,0-5.8-0.9-7.6-2.6c-1.8-1.7-2.7-4.3-2.7-7.6h6.6c0,1.6,0.3,2.8,1,3.6c0.6,0.8,1.5,1.2,2.7,1.2
		c1,0,1.7-0.3,2.3-0.9c0.6-0.6,0.8-1.3,0.8-2.3c0-0.9-0.3-1.7-0.8-2.3c-0.5-0.6-1.3-1.2-2.4-1.8l-3.8-1.8c-2.1-1-3.6-2.2-4.6-3.6
		s-1.5-3.1-1.5-5.2c0-2.5,0.9-4.6,2.6-6.1s4-2.3,6.9-2.3c3.1,0,5.5,0.8,7.1,2.4s2.4,3.9,2.4,7H91c0-2.8-1.1-4.2-3.2-4.2
		c-0.9,0-1.6,0.3-2.1,0.8s-0.8,1.2-0.8,2.1s0.3,1.6,0.8,2.2c0.5,0.6,1.4,1.2,2.7,1.8l4,2c2,1.1,3.4,2.2,4.3,3.6
		c0.9,1.3,1.3,3,1.3,4.9c0,2.7-0.9,4.9-2.6,6.6C93.8,52.3,91.5,53.1,88.5,53.1z"/>
	<path class="st1" d="M109.5,52.9c-3,0-5.4-1-7.1-2.9c-1.7-1.9-2.6-4.6-2.6-8c0-3.3,0.9-5.9,2.6-7.9c1.8-2,4.1-3,7-3
		s5.2,0.7,6.8,2.2c1.6,1.4,2.4,3.5,2.4,6.2h-6.1c-0.1-2.1-1.1-3.1-3-3.1c-1.1,0-2,0.5-2.6,1.5S106,40.3,106,42
		c0,3.7,1.2,5.6,3.6,5.6c1.8,0,2.8-1,3-2.9h6.1c-0.1,2.7-1,4.7-2.6,6.1C114.5,52.1,112.3,52.9,109.5,52.9z"/>
	<path class="st1" d="M128.8,52.9c-2.5,0-4.5-1-5.9-3c-1.5-2-2.2-4.6-2.2-7.9s0.7-5.9,2.2-7.8c1.5-2,3.5-3,5.9-3
		c2.8,0,4.7,1.2,5.7,3.6v-3h6.3v20.5h-6.3v-3C133.4,51.6,131.5,52.9,128.8,52.9z M130.8,47.6c1.2,0,2.2-0.5,2.9-1.4
		c0.7-1,1-2.3,1-4.1s-0.3-3.1-1-4.1s-1.6-1.4-2.9-1.4c-1.3,0-2.2,0.5-2.9,1.4s-1,2.3-1,4.1c0,1.8,0.3,3.2,1,4.1
		S129.5,47.6,130.8,47.6z"/>
	<path class="st1" d="M144.9,52.3V31.8h6.2v2.9c1.1-2.3,3.1-3.5,5.8-3.5c2,0,3.6,0.6,4.7,1.9c1.1,1.3,1.6,3.2,1.6,5.7v13.4h-6.3
		V40.5c0-1.4-0.2-2.5-0.6-3.1c-0.4-0.7-1.1-1-2.1-1c-2.1,0-3.1,1.6-3.1,4.7v11.1h-6.2L144.9,52.3L144.9,52.3z"/>
	<path class="st1" d="M175.6,52.3v-30h7.4l5.7,21.4l5.7-21.4h7.4v30h-6V34l-4.9,18.3h-4.4L181.6,34v18.3H175.6z"/>
	<path class="st1" d="M223.8,40.8c0,1.1-0.1,2-0.2,3H211c0.1,1.4,0.4,2.5,1,3.3s1.5,1.2,2.7,1.2c1.7,0,2.7-0.7,3.1-2.1h5.6
		c-0.3,2.2-1.2,3.8-2.7,5s-3.5,1.8-6,1.8c-3.2,0-5.6-0.9-7.4-2.8c-1.7-1.9-2.6-4.5-2.6-8s0.9-6.1,2.6-8.1c1.7-1.9,4.1-2.9,7.2-2.9
		c2.9,0,5.2,0.9,6.8,2.6C223,35.4,223.8,37.9,223.8,40.8z M211,39.8h6.8c0-2.9-1.1-4.4-3.3-4.4S211.1,36.8,211,39.8z"/>
	<path class="st1" d="M242.3,51.4c-0.8,0.8-1.9,1.3-3.1,1.3s-2.2-0.4-3.1-1.3c-0.8-0.8-1.3-1.8-1.3-3s0.4-2.2,1.3-3
		c0.8-0.8,1.9-1.3,3.1-1.3s2.2,0.4,3.1,1.3c0.8,0.8,1.3,1.8,1.3,3S243.2,50.6,242.3,51.4z M236.1,41.9V22.3h6.4v19.6H236.1z"/>
</g>
</svg>
