<?xml version="1.0" encoding="utf-8"?>
<!-- Generator: Adobe Illustrator 24.1.2, SVG Export Plug-In . SVG Version: 6.00 Build 0)  -->
<svg version="1.1" id="TEXTO" xmlns="http://www.w3.org/2000/svg" xmlns:xlink="http://www.w3.org/1999/xlink" x="0px" y="0px"
	 viewBox="0 0 320 418" style="enable-background:new 0 0 320 418;" xml:space="preserve">
<style type="text/css">
	.st0{fill:#E5E7EF;}
</style>
<g>
	<path d="M95.9,352.5l-3.3-1.8c6.8-3.7,10.2-6.9,10.2-9.7c0-1.8-2.2-2.7-6.6-2.7c-4,0-8,1-12,3c-4.8,2.4-7.1,5.4-7.1,8.9
		c0,1.9,1.5,4.1,4.6,6.5c2.8,2.2,5.6,4.4,8.5,6.6c3.1,2.9,4.6,5.8,4.6,8.9c0,4.6-2.6,7.8-7.8,9.8c-3.6,1.4-8.1,2-13.5,2
		c-4.6,0-10.3-1.1-17.1-3.4l2.4-2.6c6.3,2.9,12.3,4.4,17.9,4.4c3.8,0,7.1-0.6,9.9-2c3.6-1.7,5.4-4.2,5.4-7.6c0-2.3-1.6-4.7-4.7-7.2
		c-2.9-2.2-5.7-4.4-8.6-6.6c-3.1-2.7-4.7-5.4-4.7-8c0-5,3.1-8.8,9.1-11.4c4.6-2,9.8-2.9,15.6-2.9c1.6,0,3.1,0.4,4.4,1.2
		c1.5,0.9,2.3,2.1,2.3,3.6c0,2.2-1.1,4.3-3.4,6.4C101.5,348.3,99.5,349.9,95.9,352.5z"/>
	<path d="M110.3,372.5c-1.2-0.8-2.3-1.2-3.2-1.2c-1.6,0-3.1,0.9-4.4,2.9c-1.1,1.8-1.7,3.5-1.7,5.2c0,1.8,0.7,2.8,2.1,2.8
		c1,0,2.2-0.5,3.4-1.3c1-0.8,2-1.5,2.9-2.2l0.4,1.1c-2.9,2.9-5.6,4.4-8,4.4c-1.2,0-2.1-0.4-2.9-1.1s-1.1-1.7-1.1-2.9
		c0-2.8,1.2-5.2,3.5-7.4c2.3-2.2,4.8-3.3,7.5-3.3c1.6,0,2.4,0.6,2.4,1.9C111,371.9,110.6,372.3,110.3,372.5z"/>
	<path d="M125.3,384.1c-1.7,0-2.6-0.9-2.6-2.6c0-0.9,0.2-1.8,0.6-3c-2.9,3.8-5.4,5.6-7.3,5.6c-2.2,0-3.3-1.2-3.3-3.5
		c0-2.6,1.2-5.1,3.6-7.5c2.4-2.4,4.9-3.6,7.5-3.6c0.6,0,1.5,0.2,2.7,0.5l-1.2,1.7c-0.8-0.4-1.5-0.6-2.3-0.6c-1.8,0-3.4,1.1-4.9,3.2
		c-1.5,2.2-2.3,4.2-2.3,6.1c0,0.9,0.5,1.4,1.6,1.4c1.4,0,3.2-1.7,5.4-5c0.1,0,1.5-2.3,4.4-6.9h2.2c-0.7,1.8-1.4,3.6-2,5.4
		c-0.9,2.5-1.4,4.2-1.4,5.2c0,0.3,0.1,0.8,0.2,1.4h0.7l3.6-2.9h1.1c-0.3,1.2-1.1,2.4-2.4,3.5C127.9,383.5,126.6,384.1,125.3,384.1z"
		/>
	<path d="M144.9,384.3c-1.7,0-2.6-0.9-2.6-2.8c0-1.2,0.6-2.8,1.7-4.8c1.1-2,1.7-3.6,1.7-4.7c0-0.4-0.2-0.7-0.5-0.9
		c-1.7,0.7-3.7,2.6-5.8,5.8c-1.4,2.3-2.8,4.6-4.2,7l-2.3-0.2l3.8-13.6l3.2-0.7l-2.3,8.1c1.1-1.6,2.2-3.2,3.3-4.9
		c1.6-2.1,3.2-3.2,4.8-3.2c0.6,0,1.2,0.3,1.8,0.8c0.6,0.6,0.9,1.1,0.9,1.7c0,1.3-0.5,2.9-1.4,5c-1.1,2.3-1.7,3.9-1.8,4.9l0.9,0.1
		c0.8,0,2.3-1.3,4.6-4l0.3,1.4C148.9,382.7,146.9,384.3,144.9,384.3z"/>
	<path d="M193.8,379.2c2.2-4.4,4.3-8.8,6.5-13.1c3.4-6.8,6.4-12.2,8.9-16.2c3.6-5.4,6.7-8.4,9.3-9.1l2.1,0.8
		c0.7,1.4,1.1,2.9,1.1,4.3c0,3-1.8,10-5.4,20.9c-2.5,7.5-5,14.9-7.5,22.4l-2.3-2.2c0.5-1.9,2.8-9.5,7.1-22.8
		c3.8-12,5.8-18.5,5.8-19.4s-0.2-1.6-0.5-2.1l-0.9-0.3c-2.7,1.2-5.6,4.8-8.8,10.8c-2.7,5.7-5.4,11.5-8.1,17.2
		c-3.3,6.8-6.1,11.2-8.5,13.4l-1.4,0.2c-0.5-1.1-0.7-2.2-0.7-3.3c0-4,2-10.3,6-19.1c4.3-9.3,6.6-15.9,7.1-19.7l-0.6-0.8l-0.7-0.3
		c-3.1,1.1-8,7.5-14.5,19.5c-4.2,7.7-8,15.7-11.5,23.7h-3.2c8-23.2,12-37.7,12-43.6l-0.2-0.9l-1.4-0.8l-1,0.3
		c-2.3,3.4-3.9,5.9-4.8,7.6c-1.2,2.4-2.1,5.2-2.8,8.6l-2.2-2c0.5-3.1,1.8-6.5,3.9-10c2.6-4.3,5.1-6.4,7.7-6.4c1,0,1.8,1,2.4,2.9
		c0.4,1.4,0.6,2.8,0.6,4.2c0,5-2.2,13.8-6.7,26.6c10.1-21.1,17.6-31.6,22.3-31.6c1,0,1.7,0.6,2.3,2c0.3,0.9,0.5,2,0.5,3.2
		c0,2.5-1.8,8-5.3,16.6C196.6,370.4,194.4,376.6,193.8,379.2z"/>
	<path d="M221.6,380.7c-0.1,1.2,0.5,1.8,1.6,1.8c1.7,0,3.8-1.4,6.2-4.2h0.8c-0.3,1.4-1.4,2.8-3.2,4c-1.8,1.2-3.4,1.9-4.9,1.9
		c-2.5,0-3.7-1.3-3.7-4c0-2,1.1-4.3,3.1-6.9c2.1-2.6,4.1-3.8,6-3.8c1.9,0,2.9,0.9,2.9,2.7C230.5,375.4,227.5,378.2,221.6,380.7z
		 M227.4,371.1c-1.4,0.2-2.7,1.2-3.9,3.2c-1.1,1.8-1.7,3.5-1.8,5c1.5-0.7,2.9-1.6,4.2-2.8c1.7-1.4,2.5-2.8,2.5-4.1
		C228.5,372.1,228.1,371.7,227.4,371.1z"/>
	<path d="M249.4,384.3c-0.6,0-1.1-0.2-1.5-0.7s-0.6-1-0.6-1.6c0-0.3,0.1-0.8,0.3-1.4c0.6-0.6,1.1-0.9,1.5-0.9c0.8,0,1.6,0.5,2.3,1.4
		l0.2,0.9c0,0.6-0.2,1.1-0.6,1.5C250.5,384.1,250,384.3,249.4,384.3z M252,373.5h-1.4c2.9-11.8,6-23.1,9.2-33.6l4.4-2
		C259.5,350.3,255.4,362.2,252,373.5z"/>
</g>
<g>
	<path class="st0" d="M38.1,24.6h243.3c8.3,0,15.1,6.7,15.1,15.1V283c0,8.3-6.7,15.1-15.1,15.1H38.1c-8.3,0-15.1-6.7-15.1-15.1V39.6
		C23,31.3,29.8,24.6,38.1,24.6z"/>
	<path d="M127.3,64.8H63.2v64.1h64.1V64.8L127.3,64.8z M112.2,113.8H78.3v-34h33.9V113.8z"/>
	<rect x="87.7" y="89.3" width="15.1" height="15.1"/>
	<path d="M256.2,64.8h-64.1v64.1h64.1V64.8z M241.2,113.8h-34v-34h34V113.8z"/>
	<rect x="216.6" y="89.3" width="15.1" height="15.1"/>
	<path d="M127.3,193.7H63.2v64.1h64.1V193.7L127.3,193.7z M112.2,242.7H78.3v-33.9h33.9V242.7z"/>
	<rect x="87.7" y="218.2" width="15.1" height="15.1"/>
	<rect x="78.3" y="139" width="15.1" height="15.1"/>
	<polygon points="108.1,169.2 108.1,184.2 123.1,184.2 123.1,169.2 108.4,169.2 108.4,154.1 93.4,154.1 93.4,169.2 	"/>
	<rect x="168.8" y="93.8" width="15.1" height="15.1"/>
	<rect x="138.6" y="79.8" width="15.1" height="29"/>
	<rect x="153.7" y="64.8" width="15.1" height="15.1"/>
	<polygon points="168.8,108.9 153.7,108.9 153.7,123.9 138.6,123.9 138.6,139 168.8,139 	"/>
	<polygon points="153.7,184.2 153.7,199 168.8,199 168.8,213.7 198.9,213.7 198.9,198.6 168.8,198.6 168.8,183.9 153.7,183.9 
		153.7,154.1 138.6,154.1 138.6,184.2 	"/>
	<rect x="168.8" y="139" width="15.1" height="30.2"/>
	<path d="M214,183.9h42.2v-30.2h-15V139h-27.5v15.1H199v15.1h15.1v14.7L214,183.9L214,183.9z M214,154.1h27.2v14.7h-27.1L214,154.1
		L214,154.1z"/>
	<rect x="241.2" y="198.6" width="15.1" height="30.2"/>
	<rect x="183.8" y="169.2" width="15.1" height="15.1"/>
	<rect x="198.9" y="213.7" width="15.1" height="15.1"/>
	<rect x="214" y="198.6" width="15.1" height="15.1"/>
	<polygon points="229.1,257.8 229.1,243.7 241.2,243.7 241.2,228.7 214,228.7 214,257.8 	"/>
	<rect x="138.6" y="199" width="15.1" height="28.7"/>
	<polygon points="168.8,257.8 168.8,242.7 183.5,242.7 183.5,257.8 198.6,257.8 198.6,242.7 183.8,242.7 183.8,227.6 153.7,227.6 
		153.7,257.8 	"/>
	<rect x="108.4" y="139" width="30.2" height="15.1"/>
</g>
</svg>
