<?xml version="1.0" encoding="utf-8"?>
<!-- Generator: Adobe Illustrator 24.1.2, SVG Export Plug-In . SVG Version: 6.00 Build 0)  -->
<svg version="1.1" id="Layer_1" xmlns="http://www.w3.org/2000/svg" xmlns:xlink="http://www.w3.org/1999/xlink" x="0px" y="0px"
	 viewBox="0 0 320 418" style="enable-background:new 0 0 320 418;" xml:space="preserve">
<style type="text/css">
	.st0{fill:#050505;}
	.st1{fill:#0B0B0B;}
	.st2{fill:#E5E7EF;}
	.st3{fill:#FFFFFF;}
</style>
<path d="M306.1,332.3c-1.3-0.1-2.6,0-4,0H18.2c-2.5-0.1-5,0-7.4,0.4c-6.7,1.3-10,4.9-10.9,11.7c-0.7,5.6-0.3,11.3-0.3,16.9
	c-0.1,14.1-0.1,28.2,0,42.3C-0.3,414,3.4,418,13,418c98,0,196,0,293.9,0c9,0,11.3-1.9,13.6-10.4v-63.8
	C318.3,335.5,314.9,332.7,306.1,332.3z M69.2,385c0,3.5-1.8,5-5.3,4.9c-4.6-0.2-9.3,0-13.9,0s-9.3-0.1-13.9,0
	c-3.5,0.1-5.2-1.4-5.2-5c0.1-5.8,0.1-11.6,0-17.4c0-3.2,1.3-5.1,4.6-5.1c9.8-0.1,19.5-0.1,29.3,0c2.9,0,4.5,1.7,4.5,4.8
	C69.2,373,69.2,379,69.2,385z"/>
<path d="M310.5,0.1H10C1.8,2.2-0.3,4.9-0.4,13.7c0,0.5,0,1,0,1.5v290.7c0,1,0,2,0,3c0.5,8.6,4.8,13,13.4,13.5c2.3,0.1,4.6,0.1,7,0.1
	h199.9c28.5,0,57,0.1,85.5,0c9.7,0,12.8-2.6,15.1-11.5V10.1C319.6,4.3,316.6,0.7,310.5,0.1z M302.5,308.5
	c-47.6-0.2-95.2-0.1-142.8-0.1c-47.3,0-94.5-0.1-141.8,0.1c-4.2,0-5.1-1-5.1-5.1c0.1-95.1,0.1-190.3,0-285.4c0-4.2,1-5.1,5.1-5.1
	c94.8,0.1,189.7,0.1,284.5,0c4.1,0,5.1,1,5.1,5.1c-0.1,95.1-0.1,190.3,0,285.4C307.6,307.5,306.7,308.5,302.5,308.5z"/>
<path class="st0" d="M45.2,369.5l11.3,6.5l-11.3,6.5V369.5z"/>
<path class="st1" d="M245.4,375.8c-1.7,1-3.5,0.9-5.9,0.4C241.6,374,243.4,374.5,245.4,375.8z"/>
<g>
	<path class="st2" d="M38.4,23.3h243.3c8.3,0,15.1,6.7,15.1,15.1v243.3c0,8.3-6.7,15.1-15.1,15.1H38.4c-8.3,0-15.1-6.7-15.1-15.1
		V38.3C23.3,30,30.1,23.3,38.4,23.3z"/>
	<path d="M127.6,63.5H63.5v64.1h64.1V63.5L127.6,63.5z M112.5,112.5H78.6v-34h33.9V112.5z"/>
	<rect x="88" y="88" width="15.1" height="15.1"/>
	<path d="M256.5,63.5h-64.1v64.1h64.1V63.5z M241.5,112.5h-34v-34h34V112.5z"/>
	<rect x="216.9" y="88" width="15.1" height="15.1"/>
	<path d="M127.6,192.4H63.5v64.1h64.1V192.4L127.6,192.4z M112.5,241.4H78.6v-33.9h33.9V241.4z"/>
	<rect x="88" y="216.9" width="15.1" height="15.1"/>
	<rect x="78.6" y="137.7" width="15.1" height="15.1"/>
	<polygon points="108.4,167.9 108.4,182.9 123.4,182.9 123.4,167.9 108.7,167.9 108.7,152.8 93.7,152.8 93.7,167.9 	"/>
	<rect x="169.1" y="92.5" width="15.1" height="15.1"/>
	<rect x="138.9" y="78.5" width="15.1" height="29"/>
	<rect x="154" y="63.5" width="15.1" height="15.1"/>
	<polygon points="169.1,107.6 154,107.6 154,122.6 138.9,122.6 138.9,137.7 169.1,137.7 	"/>
	<polygon points="154,182.9 154,197.7 169.1,197.7 169.1,212.4 199.2,212.4 199.2,197.3 169.1,197.3 169.1,182.6 154,182.6 
		154,152.8 138.9,152.8 138.9,182.9 	"/>
	<rect x="169.1" y="137.7" width="15.1" height="30.2"/>
	<path d="M214.3,182.6h42.2v-30.2h-15v-14.7H214v15.1h-14.7v15.1h15.1v14.7L214.3,182.6L214.3,182.6z M214.3,152.8h27.2v14.7h-27.1
		L214.3,152.8L214.3,152.8z"/>
	<rect x="241.5" y="197.3" width="15.1" height="30.2"/>
	<rect x="184.1" y="167.9" width="15.1" height="15.1"/>
	<rect x="199.2" y="212.4" width="15.1" height="15.1"/>
	<rect x="214.3" y="197.3" width="15.1" height="15.1"/>
	<polygon points="229.4,256.5 229.4,242.4 241.5,242.4 241.5,227.4 214.3,227.4 214.3,256.5 	"/>
	<rect x="138.9" y="197.7" width="15.1" height="28.7"/>
	<polygon points="169.1,256.5 169.1,241.4 183.8,241.4 183.8,256.5 198.9,256.5 198.9,241.4 184.1,241.4 184.1,226.3 154,226.3 
		154,256.5 	"/>
	<rect x="108.7" y="137.7" width="30.2" height="15.1"/>
</g>
<g>
	<path class="st3" d="M115.2,390.5c-3.3,0-5.8-0.9-7.6-2.6c-1.8-1.7-2.7-4.3-2.7-7.6h6.6c0,1.6,0.3,2.8,1,3.6
		c0.6,0.8,1.5,1.2,2.7,1.2c1,0,1.7-0.3,2.3-0.9c0.6-0.6,0.8-1.3,0.8-2.3c0-0.9-0.3-1.7-0.8-2.3c-0.5-0.6-1.3-1.2-2.4-1.8l-3.8-1.8
		c-2.1-1-3.6-2.2-4.6-3.6s-1.5-3.1-1.5-5.2c0-2.5,0.9-4.6,2.6-6.1s4-2.3,6.9-2.3c3.1,0,5.5,0.8,7.1,2.4s2.4,3.9,2.4,7h-6.5
		c0-2.8-1.1-4.2-3.2-4.2c-0.9,0-1.6,0.3-2.1,0.8s-0.8,1.2-0.8,2.1s0.3,1.6,0.8,2.2s1.4,1.2,2.7,1.8l4,2c2,1.1,3.4,2.2,4.3,3.6
		c0.9,1.3,1.3,3,1.3,4.9c0,2.7-0.9,4.9-2.6,6.6C120.5,389.7,118.2,390.5,115.2,390.5z"/>
	<path class="st3" d="M136.2,390.3c-3,0-5.4-1-7.1-2.9c-1.7-1.9-2.6-4.6-2.6-8c0-3.3,0.9-5.9,2.6-7.9c1.8-2,4.1-3,7-3
		s5.2,0.7,6.8,2.2c1.6,1.4,2.4,3.5,2.4,6.2h-6.1c-0.1-2.1-1.1-3.1-3-3.1c-1.1,0-2,0.5-2.6,1.5s-0.9,2.4-0.9,4.1
		c0,3.7,1.2,5.6,3.6,5.6c1.8,0,2.8-1,3-2.9h6.1c-0.1,2.7-1,4.7-2.6,6.1C141.2,389.5,139,390.3,136.2,390.3z"/>
	<path class="st3" d="M155.5,390.3c-2.5,0-4.5-1-5.9-3c-1.5-2-2.2-4.6-2.2-7.9s0.7-5.9,2.2-7.8c1.5-2,3.5-3,5.9-3
		c2.8,0,4.7,1.2,5.7,3.6v-3h6.3v20.5h-6.3v-3C160.1,389,158.2,390.3,155.5,390.3z M157.5,385c1.2,0,2.2-0.5,2.9-1.4
		c0.7-1,1-2.3,1-4.1s-0.3-3.1-1-4.1s-1.6-1.4-2.9-1.4c-1.3,0-2.2,0.5-2.9,1.4s-1,2.3-1,4.1c0,1.8,0.3,3.2,1,4.1S156.2,385,157.5,385
		z"/>
	<path class="st3" d="M171.6,389.7v-20.5h6.2v2.9c1.1-2.3,3.1-3.5,5.8-3.5c2,0,3.6,0.6,4.7,1.9c1.1,1.3,1.6,3.2,1.6,5.7v13.4h-6.3
		v-11.7c0-1.4-0.2-2.5-0.6-3.1c-0.4-0.7-1.1-1-2.1-1c-2.1,0-3.1,1.6-3.1,4.7v11.1h-6.2L171.6,389.7L171.6,389.7z"/>
	<path class="st3" d="M202.3,389.7v-30h7.4l5.7,21.4l5.7-21.4h7.4v30h-6v-18.3l-4.9,18.3h-4.4l-4.9-18.3v18.3H202.3z"/>
	<path class="st3" d="M250.5,378.2c0,1.1-0.1,2-0.2,3h-12.6c0.1,1.4,0.4,2.5,1,3.3s1.5,1.2,2.7,1.2c1.7,0,2.7-0.7,3.1-2.1h5.6
		c-0.3,2.2-1.2,3.8-2.7,5s-3.5,1.8-6,1.8c-3.2,0-5.6-0.9-7.4-2.8c-1.7-1.9-2.6-4.5-2.6-8s0.9-6.1,2.6-8.1c1.7-1.9,4.1-2.9,7.2-2.9
		c2.9,0,5.2,0.9,6.8,2.6C249.7,372.8,250.5,375.3,250.5,378.2z M237.7,377.2h6.8c0-2.9-1.1-4.4-3.3-4.4S237.8,374.2,237.7,377.2z"/>
	<path class="st3" d="M269,388.8c-0.8,0.8-1.9,1.3-3.1,1.3s-2.2-0.4-3.1-1.3c-0.8-0.8-1.3-1.8-1.3-3s0.4-2.2,1.3-3
		c0.8-0.8,1.9-1.3,3.1-1.3s2.2,0.4,3.1,1.3c0.8,0.8,1.3,1.8,1.3,3S269.9,388,269,388.8z M262.8,379.3v-19.6h6.4v19.6H262.8z"/>
</g>
</svg>
