<?xml version="1.0" encoding="utf-8"?>
<!-- Generator: Adobe Illustrator 24.1.2, SVG Export Plug-In . SVG Version: 6.00 Build 0)  -->
<svg version="1.1" id="TEXTO" xmlns="http://www.w3.org/2000/svg" xmlns:xlink="http://www.w3.org/1999/xlink" x="0px" y="0px"
	 viewBox="0 0 320 418" style="enable-background:new 0 0 320 418;" xml:space="preserve">
<style type="text/css">
	.st0{fill:#E5E7EF;}
</style>
<path d="M35.7,366.1c0,0-21.9-31.6-7-67.5c6.5-15.8,15.4-22.9,15.4-22.9l-8.6,2.1l-1.4-5.1c0,0,17.1-2.2,21.2-1.5
	c-3.4,7.5-5,19.3-5,19.3l-4.9-0.5l2.6-10.5c0,0-14.3,13.5-17.9,32.4c-6.1,31.9,7.3,53.4,7.3,53.4L35.7,366.1L35.7,366.1z"/>
<g>
	<path d="M83.1,354.1l-4.2-1.2c6.8-6,9.8-10.5,9.1-13.7c-0.4-2-3.2-2.5-8.2-1.3c-4.5,1-8.8,3.2-12.8,6.5c-4.8,4-6.7,8-5.8,12
		c0.5,2.2,2.8,4.2,6.9,6.1c3.8,1.8,7.6,3.5,11.3,5.3c4.2,2.5,6.7,5.4,7.5,9c1.2,5.2-0.9,9.6-6.3,13.2c-3.7,2.5-8.7,4.4-14.9,5.8
		c-5.3,1.2-12,1.4-20.3,0.5l2.1-3.6c8,1.7,15.2,1.8,21.5,0.3c4.3-1,7.9-2.6,10.7-4.8c3.7-2.8,5.1-6.2,4.2-10c-0.6-2.6-3-4.9-7.2-7
		c-3.8-1.8-7.6-3.5-11.5-5.3c-4.2-2.2-6.7-4.8-7.4-7.9c-1.3-5.7,1.2-10.8,7.5-15.3c4.7-3.4,10.3-5.9,17-7.4c1.8-0.4,3.6-0.3,5.3,0.3
		c2,0.6,3.1,1.8,3.5,3.5c0.6,2.5-0.2,5.1-2.2,8.1C88.3,347.9,86.4,350.2,83.1,354.1z"/>
	<path d="M104.7,373.1c-1.6-0.6-2.9-0.8-4-0.5c-1.8,0.4-3.2,1.9-4.2,4.4c-0.8,2.3-1,4.4-0.6,6.3c0.5,2.1,1.5,2.9,3.1,2.6
		c1.2-0.3,2.3-1,3.5-2.4c0.9-1.1,1.9-2.2,2.8-3.3l0.7,1.2c-2.6,4.1-5.3,6.5-7.9,7.1c-1.3,0.3-2.5,0.1-3.5-0.5c-1-0.6-1.7-1.6-2-2.9
		c-0.7-3.2,0-6.3,2-9.4c2-3.1,4.6-5,7.8-5.7c1.8-0.4,2.9,0.1,3.2,1.5C105.3,372.2,105,372.7,104.7,373.1z"/>
	<path d="M124.7,382.4c-1.9,0.4-3.1-0.3-3.6-2.3c-0.2-1-0.3-2.2-0.1-3.6c-2.3,5-4.6,7.8-6.9,8.3c-2.5,0.6-4-0.5-4.7-3.1
		c-0.7-2.9,0-6.1,2.1-9.4c2.1-3.4,4.6-5.4,7.6-6c0.7-0.1,1.8-0.2,3.2-0.1l-0.9,2.3c-1-0.3-1.9-0.3-2.8-0.1c-2,0.4-3.6,2.1-4.8,5
		c-1.2,2.9-1.5,5.4-1,7.5c0.2,1,1,1.4,2.2,1.1c1.5-0.3,3.2-2.7,4.9-7.1c0.1-0.1,1.2-3.1,3.2-9l2.5-0.6c-0.3,2.2-0.6,4.4-0.9,6.6
		c-0.4,3.1-0.5,5.1-0.3,6.3c0.1,0.4,0.3,0.9,0.6,1.5l0.7-0.2l3.4-4.2l1.3-0.3c0,1.5-0.6,3-1.8,4.6C127.4,381,126.1,382,124.7,382.4z
		"/>
	<path d="M147,377.5c-2,0.4-3.2-0.4-3.7-2.5c-0.3-1.3-0.1-3.3,0.6-5.9c0.7-2.6,0.9-4.5,0.7-5.8c-0.1-0.4-0.3-0.7-0.8-1
		c-1.8,1.2-3.5,3.9-5.1,8.1c-1,3-2,6-3,9l-2.6,0.4l0.7-16.5l3.5-1.6l-0.5,9.8c0.8-2.1,1.6-4.3,2.5-6.4c1.3-2.8,2.8-4.4,4.6-4.8
		c0.7-0.1,1.4,0,2.2,0.5c0.8,0.5,1.3,1,1.5,1.7c0.3,1.5,0.2,3.5-0.3,6.1c-0.6,2.9-0.9,4.9-0.8,6.1l1.1-0.1c0.9-0.1,2.3-2.1,4.1-5.8
		l0.7,1.6C151.1,374.6,149.3,377,147,377.5z"/>
	<path d="M201.3,359c1.3-5.6,2.6-11.1,4-16.5c2.1-8.7,4.1-15.6,6-20.7c2.7-7,5.4-11.3,8.2-12.8l2.6,0.3c1.2,1.5,2,3,2.3,4.6
		c0.8,3.4,0.5,11.8-0.8,25.2c-0.9,9.2-1.8,18.3-2.7,27.5l-3.2-1.9c0-2.3,0.7-11.6,2.2-27.7c1.3-14.7,1.8-22.5,1.5-23.6
		c-0.2-1-0.6-1.8-1.1-2.2l-1.2-0.1c-2.8,2-5.1,6.9-7.2,14.5c-1.6,7.2-3.2,14.5-4.8,21.7c-1.9,8.6-4,14.3-6.1,17.4l-1.5,0.5
		c-0.8-1.1-1.3-2.3-1.6-3.6c-1-4.5-0.4-12.2,1.9-23.3c2.4-11.7,3.4-19.8,2.9-24.3l-0.9-0.7l-0.8-0.1c-3.3,2-7.1,10.7-11.4,25.9
		c-2.8,9.9-5.1,19.9-7,29.9l-3.6,0.8c3.1-28.4,3.8-46,2.3-52.7l-0.4-1l-1.8-0.6l-1,0.6c-1.8,4.5-2.9,7.8-3.5,9.9
		c-0.7,3-1,6.5-1,10.5l-2.9-1.6c-0.3-3.7,0.4-7.8,1.8-12.4c1.8-5.5,4.2-8.6,7.1-9.2c1.2-0.3,2.3,0.6,3.5,2.7
		c0.8,1.5,1.4,3.1,1.8,4.7c1.3,5.7,1,16.3-0.7,32c6-26.6,11.8-40.5,17.2-41.7c1.1-0.3,2.2,0.3,3.1,1.6c0.6,1,1.1,2.2,1.5,3.5
		c0.6,2.8,0.1,9.6-1.7,20.3C202.3,348.3,201.3,355.9,201.3,359z"/>
	<path d="M233.3,353.5c0.2,1.4,1,1.9,2.3,1.6c2-0.4,4-2.6,5.9-6.3l0.9-0.2c0,1.7-0.9,3.5-2.6,5.4c-1.7,1.9-3.4,3.1-5,3.4
		c-2.8,0.6-4.5-0.6-5.2-3.6c-0.5-2.3,0.1-5.2,1.8-8.6c1.7-3.5,3.7-5.4,5.9-5.9s3.5,0.3,4,2.3C242,345.2,239.4,349.1,233.3,353.5z
		 M237.4,341.1c-1.5,0.5-2.8,2-3.6,4.6c-0.7,2.3-1,4.4-0.7,6.2c1.6-1.2,2.9-2.6,4.1-4.2c1.5-2,2.1-3.8,1.8-5.3
		C238.9,342,238.4,341.6,237.4,341.1z"/>
	<path d="M265.9,350.4c-0.7,0.1-1.3,0-1.9-0.4c-0.6-0.4-0.9-1-1.1-1.6c-0.1-0.4-0.1-0.9,0-1.6c0.5-0.8,1-1.3,1.5-1.4
		c0.9-0.2,1.9,0.1,2.9,1l0.4,1c0.1,0.7,0,1.3-0.3,1.9C267.1,349.9,266.6,350.2,265.9,350.4z M266,337.5l-1.6,0.4
		c0.2-14.2,0.8-27.8,1.7-40.6l4.5-3.4C268.5,309.1,267,323.7,266,337.5z"/>
</g>
<g>
	<path class="st0" d="M54.6,17.6h209.3c7.1,0,13,5.8,13,13V240c0,7.1-5.8,13-13,13H54.6c-7.1,0-13-5.8-13-13V30.6
		C41.6,23.4,47.4,17.6,54.6,17.6z"/>
	<path d="M131.3,52.2H76.2v55.1h55.1V52.2L131.3,52.2z M118.3,94.4H89.2V65.1h29.2V94.4z"/>
	<rect x="97.3" y="73.3" width="13" height="13"/>
	<path d="M242.2,52.2h-55.1v55.1h55.1V52.2z M229.3,94.4h-29.3V65.1h29.3V94.4z"/>
	<rect x="208.2" y="73.3" width="13" height="13"/>
	<path d="M131.3,163.1H76.2v55.1h55.1V163.1L131.3,163.1z M118.3,205.3H89.2v-29.2h29.2V205.3z"/>
	<rect x="97.3" y="184.2" width="13" height="13"/>
	<rect x="89.2" y="116.1" width="13" height="13"/>
	<polygon points="114.8,142.1 114.8,155 127.7,155 127.7,142.1 115.1,142.1 115.1,129.1 102.2,129.1 102.2,142.1 	"/>
	<rect x="167" y="77.2" width="13" height="13"/>
	<rect x="141.1" y="65.1" width="13" height="24.9"/>
	<rect x="154" y="52.2" width="13" height="13"/>
	<polygon points="167,90.2 154,90.2 154,103.1 141.1,103.1 141.1,116.1 167,116.1 	"/>
	<polygon points="154,155 154,167.7 167,167.7 167,180.3 192.9,180.3 192.9,167.3 167,167.3 167,154.7 154,154.7 154,129.1 
		141.1,129.1 141.1,155 	"/>
	<rect x="167" y="116.1" width="13" height="26"/>
	<path d="M205.9,154.7h36.3v-26h-12.9v-12.6h-23.7v13H193v13h13L205.9,154.7L205.9,154.7L205.9,154.7z M205.9,129.1h23.4v12.6H206
		L205.9,129.1L205.9,129.1z"/>
	<rect x="229.3" y="167.3" width="13" height="26"/>
	<rect x="179.9" y="142.1" width="13" height="13"/>
	<rect x="192.9" y="180.3" width="13" height="13"/>
	<rect x="205.9" y="167.3" width="13" height="13"/>
	<polygon points="218.9,218.3 218.9,206.1 229.3,206.1 229.3,193.2 205.9,193.2 205.9,218.3 	"/>
	<rect x="141.1" y="167.7" width="13" height="24.7"/>
	<polygon points="167,218.3 167,205.3 179.7,205.3 179.7,218.3 192.7,218.3 192.7,205.3 179.9,205.3 179.9,192.3 154,192.3 
		154,218.3 	"/>
	<rect x="115.1" y="116.1" width="26" height="13"/>
</g>
</svg>
