<?xml version="1.0" encoding="utf-8"?>
<!-- Generator: Adobe Illustrator 24.1.2, SVG Export Plug-In . SVG Version: 6.00 Build 0)  -->
<svg version="1.1" id="TEXTO" xmlns="http://www.w3.org/2000/svg" xmlns:xlink="http://www.w3.org/1999/xlink" x="0px" y="0px"
	 viewBox="0 0 320 418" style="enable-background:new 0 0 320 418;" xml:space="preserve">
<style type="text/css">
	.st0{fill:#585858;}
	.st1{fill:#E5E7EF;}
	.st2{fill:#FFFFFF;}
</style>
<path d="M307.2,80.1c0-12.2-9.9-22-22-22H34.9c-12.2,0-22,9.9-22,22L2.8,391c0,12.2,9.9,22,22,22h270.4c12.2,0,22-9.9,22-22
	L307.2,80.1L307.2,80.1z M25.9,80.1c0-4.9,4-9,9-9h250.3c4.9,0,9,4,9,9v259.3H25.9V80.1z"/>
<g>
	<polygon points="113.7,4.9 88.7,29.7 88.7,82.5 113.7,82.5 	"/>
	<polygon points="206.3,4.9 231.3,29.7 231.3,82.5 206.3,82.5 	"/>
	<rect x="113.7" y="4.8" class="st0" width="92.6" height="25.1"/>
</g>
<g>
	<path class="st1" d="M58.4,93.9h201.7c6.9,0,12.5,5.6,12.5,12.5v201.7c0,6.9-5.6,12.5-12.5,12.5H58.4c-6.9,0-12.5-5.6-12.5-12.5
		V106.4C45.9,99.5,51.5,93.9,58.4,93.9z"/>
	<path d="M132.4,127.3H79.2v53.1h53.1V127.3L132.4,127.3z M119.8,167.9H91.7v-28.2h28.1V167.9z"/>
	<rect x="99.5" y="147.6" width="12.5" height="12.5"/>
	<path d="M239.2,127.3h-53.1v53.1h53.1V127.3z M226.8,167.9h-28.2v-28.2h28.2V167.9z"/>
	<rect x="206.4" y="147.6" width="12.5" height="12.5"/>
	<path d="M132.4,234.1H79.2v53.1h53.1V234.1L132.4,234.1z M119.8,274.7H91.7v-28.1h28.1V274.7z"/>
	<rect x="99.5" y="254.4" width="12.5" height="12.5"/>
	<rect x="91.7" y="188.8" width="12.5" height="12.5"/>
	<polygon points="116.4,213.8 116.4,226.2 128.9,226.2 128.9,213.8 116.7,213.8 116.7,201.3 104.2,201.3 104.2,213.8 	"/>
	<rect x="166.8" y="151.3" width="12.5" height="12.5"/>
	<rect x="141.7" y="139.7" width="12.5" height="24"/>
	<rect x="154.2" y="127.3" width="12.5" height="12.5"/>
	<polygon points="166.8,163.8 154.2,163.8 154.2,176.3 141.7,176.3 141.7,188.8 166.8,188.8 	"/>
	<polygon points="154.2,226.2 154.2,238.5 166.8,238.5 166.8,250.7 191.7,250.7 191.7,238.2 166.8,238.2 166.8,226 154.2,226 
		154.2,201.3 141.7,201.3 141.7,226.2 	"/>
	<rect x="166.8" y="188.8" width="12.5" height="25"/>
	<path d="M204.2,226h35v-25h-12.4v-12.2H204v12.5h-12.2v12.5h12.5L204.2,226L204.2,226L204.2,226z M204.2,201.3h22.5v12.2h-22.5
		L204.2,201.3L204.2,201.3z"/>
	<rect x="226.8" y="238.2" width="12.5" height="25"/>
	<rect x="179.2" y="213.8" width="12.5" height="12.5"/>
	<rect x="191.7" y="250.7" width="12.5" height="12.5"/>
	<rect x="204.2" y="238.2" width="12.5" height="12.5"/>
	<polygon points="216.7,287.2 216.7,275.6 226.8,275.6 226.8,263.1 204.2,263.1 204.2,287.2 	"/>
	<rect x="141.7" y="238.5" width="12.5" height="23.8"/>
	<polygon points="166.8,287.2 166.8,274.7 178.9,274.7 178.9,287.2 191.5,287.2 191.5,274.7 179.2,274.7 179.2,262.2 154.2,262.2 
		154.2,287.2 	"/>
	<rect x="116.7" y="188.8" width="25" height="12.5"/>
</g>
<g>
	<path class="st2" d="M86.8,390.6c-3.3,0-5.8-0.9-7.6-2.6s-2.7-4.3-2.7-7.6h6.6c0,1.6,0.3,2.8,1,3.6c0.6,0.8,1.5,1.2,2.7,1.2
		c1,0,1.7-0.3,2.3-0.9c0.6-0.6,0.8-1.3,0.8-2.3c0-0.9-0.3-1.7-0.8-2.3c-0.5-0.6-1.3-1.2-2.4-1.8l-3.8-1.8c-2.1-1-3.6-2.2-4.6-3.6
		s-1.5-3.1-1.5-5.2c0-2.5,0.9-4.6,2.6-6.1s4-2.3,6.9-2.3c3.1,0,5.5,0.8,7.1,2.4c1.6,1.6,2.4,3.9,2.4,7h-6.5c0-2.8-1.1-4.2-3.2-4.2
		c-0.9,0-1.6,0.3-2.1,0.8s-0.8,1.2-0.8,2.1s0.3,1.6,0.8,2.2s1.4,1.2,2.7,1.8l4,2c2,1.1,3.4,2.2,4.3,3.6c0.9,1.3,1.3,3,1.3,4.9
		c0,2.7-0.9,4.9-2.6,6.6C92.1,389.8,89.8,390.6,86.8,390.6z"/>
	<path class="st2" d="M107.8,390.4c-3,0-5.4-1-7.1-2.9c-1.7-1.9-2.6-4.6-2.6-8c0-3.3,0.9-5.9,2.6-7.9c1.8-2,4.1-3,7-3
		s5.2,0.7,6.8,2.2c1.6,1.4,2.4,3.5,2.4,6.2h-6.1c-0.1-2.1-1.1-3.1-3-3.1c-1.1,0-2,0.5-2.6,1.5s-0.9,2.4-0.9,4.1
		c0,3.7,1.2,5.6,3.6,5.6c1.8,0,2.8-1,3-2.9h6.1c-0.1,2.7-1,4.7-2.6,6.1C112.8,389.6,110.6,390.4,107.8,390.4z"/>
	<path class="st2" d="M127.1,390.4c-2.5,0-4.5-1-5.9-3c-1.5-2-2.2-4.6-2.2-7.9s0.7-5.9,2.2-7.8c1.5-2,3.5-3,5.9-3
		c2.8,0,4.7,1.2,5.7,3.6v-3h6.3v20.5h-6.3v-3C131.7,389.1,129.8,390.4,127.1,390.4z M129.1,385.1c1.2,0,2.2-0.5,2.9-1.4
		c0.7-1,1-2.3,1-4.1s-0.3-3.1-1-4.1s-1.6-1.4-2.9-1.4c-1.3,0-2.2,0.5-2.9,1.4s-1,2.3-1,4.1c0,1.8,0.3,3.2,1,4.1
		S127.8,385.1,129.1,385.1z"/>
	<path class="st2" d="M143.2,389.8v-20.5h6.2v2.9c1.1-2.3,3.1-3.5,5.8-3.5c2,0,3.6,0.6,4.7,1.9c1.1,1.3,1.6,3.2,1.6,5.7v13.4h-6.3
		V378c0-1.4-0.2-2.5-0.6-3.1c-0.4-0.7-1.1-1-2.1-1c-2.1,0-3.1,1.6-3.1,4.7v11.1h-6.2L143.2,389.8L143.2,389.8z"/>
	<path class="st2" d="M173.9,389.8v-30h7.4l5.7,21.4l5.7-21.4h7.4v30h-6v-18.3l-4.9,18.3h-4.4l-4.9-18.3v18.3H173.9z"/>
	<path class="st2" d="M222.1,378.3c0,1.1-0.1,2-0.2,3h-12.6c0.1,1.4,0.4,2.5,1,3.3s1.5,1.2,2.7,1.2c1.7,0,2.7-0.7,3.1-2.1h5.6
		c-0.3,2.2-1.2,3.8-2.7,5s-3.5,1.8-6,1.8c-3.2,0-5.6-0.9-7.4-2.8c-1.7-1.9-2.6-4.5-2.6-8s0.9-6.1,2.6-8.1c1.7-1.9,4.1-2.9,7.2-2.9
		c2.9,0,5.2,0.9,6.8,2.6C221.3,372.9,222.1,375.4,222.1,378.3z M209.3,377.3h6.8c0-2.9-1.1-4.4-3.3-4.4S209.4,374.3,209.3,377.3z"/>
	<path class="st2" d="M240.6,388.9c-0.8,0.8-1.9,1.3-3.1,1.3s-2.2-0.4-3.1-1.3c-0.8-0.8-1.3-1.8-1.3-3s0.4-2.2,1.3-3
		c0.8-0.8,1.9-1.3,3.1-1.3s2.2,0.4,3.1,1.3c0.8,0.8,1.3,1.8,1.3,3S241.5,388.1,240.6,388.9z M234.4,379.4v-19.6h6.4v19.6H234.4z"/>
</g>
</svg>
