<?xml version="1.0" encoding="utf-8"?>
<!-- Generator: Adobe Illustrator 24.1.2, SVG Export Plug-In . SVG Version: 6.00 Build 0)  -->
<svg version="1.1" id="TEXTO" xmlns="http://www.w3.org/2000/svg" xmlns:xlink="http://www.w3.org/1999/xlink" x="0px" y="0px"
	 viewBox="0 0 320 418" style="enable-background:new 0 0 320 418;" xml:space="preserve">
<style type="text/css">
	.st0{opacity:0.5;fill:#585858;enable-background:new    ;}
	.st1{fill:#585858;}
	.st2{fill:#E5E7EF;}
	.st3{fill:#FFFFFF;}
</style>
<path d="M290.8,93.5L290.8,93.5v261.7H29.2V93.5L290.8,93.5 M290.8,80.6H29.2c-7.1,0-12.8,5.7-12.8,12.8v261.7
	c0,7.1,5.7,12.8,12.8,12.8h261.7c7.1,0,12.8-5.7,12.8-12.8V93.5C303.7,86.4,297.9,80.6,290.8,80.6L290.8,80.6z"/>
<path d="M290.8,418H29.2c-7.1,0-12.8-5.7-12.8-12.8v-48.4h287.4v48.4C303.7,412.3,297.9,418,290.8,418z"/>
<path class="st0" d="M320.5,81.6v4.9L253.2,86c0.6,4.1,0.4,8.7-2,13.2c-2.7,5-8.6,11-21.3,11c-16.8,0-39.7-10.9-53.1-22.2
	c-2.5,1.7-5.5,2.7-8.6,2.7h-12c-3.1,0-6.1-1-8.5-2.7c-13.3,11.2-36.3,22.2-53.1,22.2c-12.7,0-18.6-6-21.3-11
	c-2.4-4.5-2.6-9.1-2-13.2l-71.9,0.6l0.3-4.9L320.5,81.6L320.5,81.6z"/>
<g>
	<path class="st1" d="M100.8,27.7c0,0-74-2.7-96-0.6c11.6,10.5,22.1,24.6,22.1,24.6L-0.2,81.6c0,0,103.1-0.7,118.8-0.8
		C115.9,70.1,100.8,27.7,100.8,27.7L100.8,27.7z"/>
	<path class="st1" d="M219.5,27.7c0,0,74-2.7,96-0.6c-11.6,10.5-22.1,24.6-22.1,24.6l27.1,29.9c0,0-103.1-0.7-118.8-0.8
		C204.5,70.1,219.5,27.7,219.5,27.7L219.5,27.7z"/>
	<g>
		<path d="M172.1,29.2c0,0,33.2-28.6,58.4-28.4s23.7,15.9,22.6,20.4c-1.9,8-11.6,27.6-11.6,38.4S253,84.9,247,96.5
			c-12,23.4-65-5.1-74.9-22.1S172.1,29.2,172.1,29.2L172.1,29.2z"/>
		<path class="st1" d="M185.8,29.9c0,0,42.7-30.7,55.1-17.9C254.7,26.3,185.8,29.9,185.8,29.9z"/>
	</g>
	<g>
		<path d="M152.5,29.2c0,0-33.2-28.6-58.4-28.4S70.4,16.8,71.5,21.3c1.9,8,11.6,27.6,11.6,38.4s-11.4,25.2-5.5,36.8
			c12,23.4,65-5.1,74.9-22.1C162.3,57.4,152.5,29.2,152.5,29.2L152.5,29.2z"/>
		<path class="st1" d="M138.7,29.9c0,0-42.7-30.7-55.1-17.9C69.9,26.3,138.7,29.9,138.7,29.9z"/>
	</g>
	<path class="st1" d="M156.3,25.9h12c5.7,0,10.3,4.6,10.3,10.3v38.5c0,5.7-4.6,10.3-10.3,10.3h-12c-5.7,0-10.3-4.6-10.3-10.3V36.1
		C146,30.5,150.6,25.9,156.3,25.9z"/>
</g>
<g>
	<path class="st2" d="M60.2,119h198.1c6.8,0,12.3,5.5,12.3,12.3v198.1c0,6.8-5.5,12.3-12.3,12.3H60.2c-6.8,0-12.3-5.5-12.3-12.3
		V131.2C47.9,124.4,53.4,119,60.2,119z"/>
	<path d="M132.8,151.7H80.6v52.2h52.2V151.7L132.8,151.7z M120.5,191.6H92.9v-27.7h27.6V191.6z"/>
	<rect x="100.6" y="171.6" width="12.3" height="12.3"/>
	<path d="M237.8,151.7h-52.2v52.2h52.2V151.7z M225.6,191.6h-27.7v-27.7h27.7V191.6z"/>
	<rect x="205.5" y="171.6" width="12.3" height="12.3"/>
	<path d="M132.8,256.6H80.6v52.2h52.2V256.6L132.8,256.6z M120.5,296.5H92.9v-27.6h27.6V296.5z"/>
	<rect x="100.6" y="276.6" width="12.3" height="12.3"/>
	<rect x="92.9" y="212.1" width="12.3" height="12.3"/>
	<polygon points="117.2,236.7 117.2,248.9 129.4,248.9 129.4,236.7 117.4,236.7 117.4,224.4 105.2,224.4 105.2,236.7 	"/>
	<rect x="166.6" y="175.3" width="12.3" height="12.3"/>
	<rect x="142" y="163.9" width="12.3" height="23.6"/>
	<rect x="154.3" y="151.7" width="12.3" height="12.3"/>
	<polygon points="166.6,187.6 154.3,187.6 154.3,199.8 142,199.8 142,212.1 166.6,212.1 	"/>
	<polygon points="154.3,248.9 154.3,261 166.6,261 166.6,272.9 191.1,272.9 191.1,260.6 166.6,260.6 166.6,248.7 154.3,248.7 
		154.3,224.4 142,224.4 142,248.9 	"/>
	<rect x="166.6" y="212.1" width="12.3" height="24.6"/>
	<path d="M203.4,248.7h34.4v-24.6h-12.2v-12h-22.4v12.3h-12v12.3h12.3L203.4,248.7L203.4,248.7L203.4,248.7z M203.4,224.4h22.1v12
		h-22.1L203.4,224.4L203.4,224.4z"/>
	<rect x="225.6" y="260.6" width="12.3" height="24.6"/>
	<rect x="178.8" y="236.7" width="12.3" height="12.3"/>
	<rect x="191.1" y="272.9" width="12.3" height="12.3"/>
	<rect x="203.4" y="260.6" width="12.3" height="12.3"/>
	<polygon points="215.7,308.8 215.7,297.3 225.6,297.3 225.6,285.1 203.4,285.1 203.4,308.8 	"/>
	<rect x="142" y="261" width="12.3" height="23.4"/>
	<polygon points="166.6,308.8 166.6,296.5 178.6,296.5 178.6,308.8 190.9,308.8 190.9,296.5 178.8,296.5 178.8,284.2 154.3,284.2 
		154.3,308.8 	"/>
	<rect x="117.4" y="212.1" width="24.6" height="12.3"/>
</g>
<g>
	<path class="st3" d="M86.8,401.6c-3.3,0-5.8-0.9-7.6-2.6s-2.7-4.3-2.7-7.6h6.6c0,1.6,0.3,2.8,1,3.6c0.6,0.8,1.5,1.2,2.7,1.2
		c1,0,1.7-0.3,2.3-0.9c0.6-0.6,0.8-1.3,0.8-2.3c0-0.9-0.3-1.7-0.8-2.3c-0.5-0.6-1.3-1.2-2.4-1.8l-3.8-1.8c-2.1-1-3.6-2.2-4.6-3.6
		s-1.5-3.1-1.5-5.2c0-2.5,0.9-4.6,2.6-6.1s4-2.3,6.9-2.3c3.1,0,5.5,0.8,7.1,2.4c1.6,1.6,2.4,3.9,2.4,7h-6.5c0-2.8-1.1-4.2-3.2-4.2
		c-0.9,0-1.6,0.3-2.1,0.8s-0.8,1.2-0.8,2.1s0.3,1.6,0.8,2.2s1.4,1.2,2.7,1.8l4,2c2,1.1,3.4,2.2,4.3,3.6c0.9,1.3,1.3,3,1.3,4.9
		c0,2.7-0.9,4.9-2.6,6.6C92.1,400.8,89.8,401.6,86.8,401.6z"/>
	<path class="st3" d="M107.8,401.4c-3,0-5.4-1-7.1-2.9c-1.7-1.9-2.6-4.6-2.6-8c0-3.3,0.9-5.9,2.6-7.9c1.8-2,4.1-3,7-3
		s5.2,0.7,6.8,2.2c1.6,1.4,2.4,3.5,2.4,6.2h-6.1c-0.1-2.1-1.1-3.1-3-3.1c-1.1,0-2,0.5-2.6,1.5s-0.9,2.4-0.9,4.1
		c0,3.7,1.2,5.6,3.6,5.6c1.8,0,2.8-1,3-2.9h6.1c-0.1,2.7-1,4.7-2.6,6.1C112.8,400.6,110.6,401.4,107.8,401.4z"/>
	<path class="st3" d="M127.1,401.4c-2.5,0-4.5-1-5.9-3c-1.5-2-2.2-4.6-2.2-7.9s0.7-5.9,2.2-7.8c1.5-2,3.5-3,5.9-3
		c2.8,0,4.7,1.2,5.7,3.6v-3h6.3v20.5h-6.3v-3C131.7,400.1,129.8,401.4,127.1,401.4z M129.1,396.1c1.2,0,2.2-0.5,2.9-1.4
		c0.7-1,1-2.3,1-4.1s-0.3-3.1-1-4.1s-1.6-1.4-2.9-1.4c-1.3,0-2.2,0.5-2.9,1.4s-1,2.3-1,4.1c0,1.8,0.3,3.2,1,4.1
		S127.8,396.1,129.1,396.1z"/>
	<path class="st3" d="M143.2,400.8v-20.5h6.2v2.9c1.1-2.3,3.1-3.5,5.8-3.5c2,0,3.6,0.6,4.7,1.9c1.1,1.3,1.6,3.2,1.6,5.7v13.4h-6.3
		V389c0-1.4-0.2-2.5-0.6-3.1c-0.4-0.7-1.1-1-2.1-1c-2.1,0-3.1,1.6-3.1,4.7v11.1h-6.2L143.2,400.8L143.2,400.8z"/>
	<path class="st3" d="M173.9,400.8v-30h7.4l5.7,21.4l5.7-21.4h7.4v30h-6v-18.3l-4.9,18.3h-4.4l-4.9-18.3v18.3H173.9z"/>
	<path class="st3" d="M222.1,389.3c0,1.1-0.1,2-0.2,3h-12.6c0.1,1.4,0.4,2.5,1,3.3s1.5,1.2,2.7,1.2c1.7,0,2.7-0.7,3.1-2.1h5.6
		c-0.3,2.2-1.2,3.8-2.7,5s-3.5,1.8-6,1.8c-3.2,0-5.6-0.9-7.4-2.8c-1.7-1.9-2.6-4.5-2.6-8s0.9-6.1,2.6-8.1c1.7-1.9,4.1-2.9,7.2-2.9
		c2.9,0,5.2,0.9,6.8,2.6C221.3,383.9,222.1,386.4,222.1,389.3z M209.3,388.3h6.8c0-2.9-1.1-4.4-3.3-4.4S209.4,385.3,209.3,388.3z"/>
	<path class="st3" d="M240.6,399.9c-0.8,0.8-1.9,1.3-3.1,1.3s-2.2-0.4-3.1-1.3c-0.8-0.8-1.3-1.8-1.3-3s0.4-2.2,1.3-3
		c0.8-0.8,1.9-1.3,3.1-1.3s2.2,0.4,3.1,1.3c0.8,0.8,1.3,1.8,1.3,3S241.5,399.1,240.6,399.9z M234.4,390.4v-19.6h6.4v19.6H234.4z"/>
</g>
</svg>
