<?xml version="1.0" encoding="utf-8"?>
<!-- Generator: Adobe Illustrator 24.1.2, SVG Export Plug-In . SVG Version: 6.00 Build 0)  -->
<svg version="1.1" id="Layer_1" xmlns="http://www.w3.org/2000/svg" xmlns:xlink="http://www.w3.org/1999/xlink" x="0px" y="0px"
	 viewBox="0 0 320 418" style="enable-background:new 0 0 320 418;" xml:space="preserve">
<style type="text/css">
	.st0{fill:#383838;}
	.st1{fill:#0E0E0E;}
	.st2{fill:#171717;}
	.st3{fill:#E5E7EF;}
	.st4{fill:#FFFFFF;}
</style>
<path d="M320.4,15c0-10.9-3.6-14.9-13.9-14.9c-97.7,0-195.5,0-293.3,0C4.2,0.1,1.9,2-0.4,10.5v396.3c0.6,5.6,2.8,9.9,9,11H311
	c3.6-1,7-2.4,8.3-6.3c0.9-2.9,1.2-5.8,1.1-8.8c0-16.4,0-32.8,0-49.3C320.4,240.6,320.4,127.8,320.4,15z M307.1,303.8
	c0,4.1-0.9,5.1-5.1,5.1c-94.8-0.1-189.7-0.1-284.5,0c-4.1,0-5.1-0.9-5.1-5.1c0.2-47.5,0.1-94.9,0.1-142.4c0-47.6,0.1-95.3-0.1-142.9
	c0-4.1,0.9-5.1,5.1-5.1c94.8,0.1,189.7,0.1,284.5,0c4.1,0,5.1,0.9,5.1,5.1C307,113.6,307,208.6,307.1,303.8z"/>
<path class="st0" d="M113,361v4h-0.9l-0.8-3.1L113,361z"/>
<path class="st1" d="M136,367c-1,0-2.2-0.2-2.1-1.4c0.1-1.8,1.7-1.6,3-1.6c0.9,0,2.2-0.4,2.1,1.1S137.4,367.1,136,367z"/>
<path class="st2" d="M207.2,360.9c2-2.7,3.9-2.1,6.3-0.2C211.4,361.3,209.2,361.4,207.2,360.9z"/>
<g>
	<path class="st3" d="M38.1,22.9h243.3c8.3,0,15.1,6.7,15.1,15.1v243.3c0,8.3-6.7,15.1-15.1,15.1H38.1c-8.3,0-15.1-6.7-15.1-15.1
		V37.9C23,29.6,29.8,22.9,38.1,22.9z"/>
	<path d="M127.3,63.1H63.2v64.1h64.1V63.1L127.3,63.1z M112.2,112.1H78.3v-34h33.9V112.1z"/>
	<rect x="87.7" y="87.6" width="15.1" height="15.1"/>
	<path d="M256.1,63.1h-64.1v64.1h64.1V63.1z M241.2,112.1h-34v-34h34V112.1z"/>
	<rect x="216.6" y="87.6" width="15.1" height="15.1"/>
	<path d="M127.3,192H63.2v64.1h64.1V192L127.3,192z M112.2,241H78.3v-33.9h33.9V241z"/>
	<rect x="87.7" y="216.5" width="15.1" height="15.1"/>
	<rect x="78.3" y="137.3" width="15.1" height="15.1"/>
	<polygon points="108.1,167.5 108.1,182.5 123.1,182.5 123.1,167.5 108.3,167.5 108.3,152.4 93.3,152.4 93.3,167.5 	"/>
	<rect x="168.8" y="92.1" width="15.1" height="15.1"/>
	<rect x="138.6" y="78.1" width="15.1" height="29"/>
	<rect x="153.7" y="63.1" width="15.1" height="15.1"/>
	<polygon points="168.8,107.2 153.7,107.2 153.7,122.2 138.6,122.2 138.6,137.3 168.8,137.3 	"/>
	<polygon points="153.7,182.5 153.7,197.3 168.8,197.3 168.8,212 198.9,212 198.9,196.9 168.8,196.9 168.8,182.3 153.7,182.3 
		153.7,152.4 138.6,152.4 138.6,182.5 	"/>
	<rect x="168.8" y="137.3" width="15.1" height="30.2"/>
	<path d="M214,182.3h42.2v-30.2h-15v-14.7h-27.5v15.1H199v15.1h15.1v14.7L214,182.3L214,182.3z M214,152.4h27.2v14.7h-27.1
		L214,152.4L214,152.4z"/>
	<rect x="241.2" y="196.9" width="15.1" height="30.2"/>
	<rect x="183.8" y="167.5" width="15.1" height="15.1"/>
	<rect x="198.9" y="212" width="15.1" height="15.1"/>
	<rect x="214" y="196.9" width="15.1" height="15.1"/>
	<polygon points="229.1,256.1 229.1,242 241.2,242 241.2,227 214,227 214,256.1 	"/>
	<rect x="138.6" y="197.3" width="15.1" height="28.7"/>
	<polygon points="168.8,256.1 168.8,241 183.5,241 183.5,256.1 198.6,256.1 198.6,241 183.8,241 183.8,225.9 153.7,225.9 
		153.7,256.1 	"/>
	<rect x="108.3" y="137.3" width="30.2" height="15.1"/>
</g>
<g>
	<path class="st4" d="M87.3,381c-3.3,0-5.8-0.9-7.6-2.6s-2.7-4.3-2.7-7.6h6.6c0,1.6,0.3,2.8,1,3.6c0.6,0.8,1.5,1.2,2.7,1.2
		c1,0,1.7-0.3,2.3-0.9c0.6-0.6,0.8-1.3,0.8-2.3c0-0.9-0.3-1.7-0.8-2.3c-0.5-0.6-1.3-1.2-2.4-1.8l-3.8-1.8c-2.1-1-3.6-2.2-4.6-3.6
		s-1.5-3.1-1.5-5.2c0-2.5,0.9-4.6,2.6-6.1s4-2.3,6.9-2.3c3.1,0,5.5,0.8,7.1,2.4c1.6,1.6,2.4,3.9,2.4,7h-6.5c0-2.8-1.1-4.2-3.2-4.2
		c-0.9,0-1.6,0.3-2.1,0.8s-0.8,1.2-0.8,2.1s0.3,1.6,0.8,2.2s1.4,1.2,2.7,1.8l4,2c2,1.1,3.4,2.2,4.3,3.6c0.9,1.3,1.3,3,1.3,4.9
		c0,2.7-0.9,4.9-2.6,6.6C92.6,380.2,90.3,381,87.3,381z"/>
	<path class="st4" d="M108.3,380.8c-3,0-5.4-1-7.1-2.9c-1.7-1.9-2.6-4.6-2.6-8c0-3.3,0.9-5.9,2.6-7.9c1.8-2,4.1-3,7-3
		s5.2,0.7,6.8,2.2c1.6,1.4,2.4,3.5,2.4,6.2h-6.1c-0.1-2.1-1.1-3.1-3-3.1c-1.1,0-2,0.5-2.6,1.5s-0.9,2.4-0.9,4.1
		c0,3.7,1.2,5.6,3.6,5.6c1.8,0,2.8-1,3-2.9h6.1c-0.1,2.7-1,4.7-2.6,6.1C113.3,380,111.1,380.8,108.3,380.8z"/>
	<path class="st4" d="M127.6,380.8c-2.5,0-4.5-1-5.9-3c-1.5-2-2.2-4.6-2.2-7.9s0.7-5.9,2.2-7.8c1.5-2,3.5-3,5.9-3
		c2.8,0,4.7,1.2,5.7,3.6v-3h6.3v20.5h-6.3v-3C132.2,379.5,130.3,380.8,127.6,380.8z M129.6,375.5c1.2,0,2.2-0.5,2.9-1.4
		c0.7-1,1-2.3,1-4.1s-0.3-3.1-1-4.1s-1.6-1.4-2.9-1.4c-1.3,0-2.2,0.5-2.9,1.4s-1,2.3-1,4.1c0,1.8,0.3,3.2,1,4.1
		S128.3,375.5,129.6,375.5z"/>
	<path class="st4" d="M143.7,380.2v-20.5h6.2v2.9c1.1-2.3,3.1-3.5,5.8-3.5c2,0,3.6,0.6,4.7,1.9c1.1,1.3,1.6,3.2,1.6,5.7v13.4h-6.3
		v-11.7c0-1.4-0.2-2.5-0.6-3.1c-0.4-0.7-1.1-1-2.1-1c-2.1,0-3.1,1.6-3.1,4.7v11.1h-6.2L143.7,380.2L143.7,380.2z"/>
	<path class="st4" d="M174.4,380.2v-30h7.4l5.7,21.4l5.7-21.4h7.4v30h-6v-18.3l-4.9,18.3h-4.4l-4.9-18.3v18.3H174.4z"/>
	<path class="st4" d="M222.6,368.7c0,1.1-0.1,2-0.2,3h-12.6c0.1,1.4,0.4,2.5,1,3.3s1.5,1.2,2.7,1.2c1.7,0,2.7-0.7,3.1-2.1h5.6
		c-0.3,2.2-1.2,3.8-2.7,5s-3.5,1.8-6,1.8c-3.2,0-5.6-0.9-7.4-2.8c-1.7-1.9-2.6-4.5-2.6-8s0.9-6.1,2.6-8.1c1.7-1.9,4.1-2.9,7.2-2.9
		c2.9,0,5.2,0.9,6.8,2.6C221.8,363.3,222.6,365.8,222.6,368.7z M209.8,367.7h6.8c0-2.9-1.1-4.4-3.3-4.4S209.9,364.7,209.8,367.7z"/>
	<path class="st4" d="M241.1,379.3c-0.8,0.8-1.9,1.3-3.1,1.3s-2.2-0.4-3.1-1.3c-0.8-0.8-1.3-1.8-1.3-3s0.4-2.2,1.3-3
		c0.8-0.8,1.9-1.3,3.1-1.3s2.2,0.4,3.1,1.3c0.8,0.8,1.3,1.8,1.3,3S242,378.5,241.1,379.3z M234.9,369.8v-19.6h6.4v19.6H234.9z"/>
</g>
</svg>
