<?xml version="1.0" encoding="utf-8"?>
<!-- Generator: Adobe Illustrator 24.1.2, SVG Export Plug-In . SVG Version: 6.00 Build 0)  -->
<svg version="1.1" id="TEXTO" xmlns="http://www.w3.org/2000/svg" xmlns:xlink="http://www.w3.org/1999/xlink" x="0px" y="0px"
	 viewBox="0 0 320 418" style="enable-background:new 0 0 320 418;" xml:space="preserve">
<style type="text/css">
	.st0{fill:#585858;}
	.st1{fill:#FFFFFF;}
	.st2{fill:#E5E7EF;}
</style>
<path d="M256.3,83.3c1.7,0,3.2,1.4,3.2,3.2v195.8h-199V86.4c0-1.7,1.4-3.2,3.2-3.2H256.3 M256.3,73.8H63.7c-7,0-12.6,5.6-12.6,12.6
	v205.3h217.9V86.4C268.9,79.4,263.3,73.8,256.3,73.8L256.3,73.8z"/>
<polygon class="st0" points="51.1,302 2.3,302 20.9,271 2.3,240 51.1,240 "/>
<path class="st1" d="M51.1,285v-32.5c0,0-16.8,6.6-16.8,15.3C34.3,285,51.1,285,51.1,285L51.1,285z"/>
<polygon class="st0" points="268.9,302 317.7,302 299.1,271 317.7,240 268.9,240 "/>
<path class="st1" d="M268.9,285v-32.5c0,0,16.8,6.6,16.8,15.3C285.7,285,268.9,285,268.9,285L268.9,285z"/>
<g>
	<path d="M34.3,267.9v-0.9C34.3,267.2,34.3,267.6,34.3,267.9z"/>
	<path d="M34.3,266.9L34.3,266.9C34.3,266.9,34.3,266.9,34.3,266.9L34.3,266.9z"/>
	<path d="M285.7,266.9v0.9C285.7,267.6,285.7,267.2,285.7,266.9z"/>
	<path d="M285.7,307.1v-39.2c-0.5,16.8-31.6,14.4-48.7,14.4H82.9c-17.1,0-48.1,2.4-48.7-14.4v39.2c0,0.1,0,0.2,0,0.3v21
		c0,8.7,7.1,15.8,15.8,15.8H270c8.7,0,15.8-7.1,15.8-15.8v-21C285.7,307.3,285.7,307.2,285.7,307.1L285.7,307.1z"/>
</g>
<g>
	<path class="st2" d="M80.7,94.5h157.1c5.4,0,9.7,4.3,9.7,9.7v157.1c0,5.4-4.3,9.7-9.7,9.7H80.7c-5.4,0-9.7-4.3-9.7-9.7V104.1
		C71,98.8,75.4,94.5,80.7,94.5z"/>
	<path d="M138.3,120.4H96.9v41.4h41.4V120.4L138.3,120.4z M128.6,152h-21.9v-21.9h21.9V152z"/>
	<rect x="112.7" y="136.2" width="9.7" height="9.7"/>
	<path d="M221.5,120.4h-41.4v41.4h41.4V120.4z M211.8,152h-21.9v-21.9h21.9V152z"/>
	<rect x="195.9" y="136.2" width="9.7" height="9.7"/>
	<path d="M138.3,203.6H96.9V245h41.4V203.6L138.3,203.6z M128.6,235.2h-21.9v-21.9h21.9V235.2z"/>
	<rect x="112.7" y="219.4" width="9.7" height="9.7"/>
	<rect x="106.7" y="168.3" width="9.7" height="9.7"/>
	<polygon points="125.9,187.8 125.9,197.5 135.6,197.5 135.6,187.8 126.1,187.8 126.1,178.1 116.4,178.1 116.4,187.8 	"/>
	<rect x="165.1" y="139.1" width="9.7" height="9.7"/>
	<rect x="145.6" y="130.1" width="9.7" height="18.7"/>
	<rect x="155.3" y="120.4" width="9.7" height="9.7"/>
	<polygon points="165.1,148.9 155.3,148.9 155.3,158.6 145.6,158.6 145.6,168.3 165.1,168.3 	"/>
	<polygon points="155.3,197.5 155.3,207 165.1,207 165.1,216.5 184.5,216.5 184.5,206.8 165.1,206.8 165.1,197.3 155.3,197.3 
		155.3,178.1 145.6,178.1 145.6,197.5 	"/>
	<rect x="165.1" y="168.3" width="9.7" height="19.5"/>
	<path d="M194.3,197.3h27.2v-19.5h-9.7v-9.5h-17.8v9.7h-9.5v9.7h9.7L194.3,197.3L194.3,197.3L194.3,197.3z M194.3,178.1h17.6v9.5
		h-17.5L194.3,178.1L194.3,178.1z"/>
	<rect x="211.8" y="206.8" width="9.7" height="19.5"/>
	<rect x="174.8" y="187.8" width="9.7" height="9.7"/>
	<rect x="184.5" y="216.5" width="9.7" height="9.7"/>
	<rect x="194.3" y="206.8" width="9.7" height="9.7"/>
	<polygon points="204,245 204,235.9 211.8,235.9 211.8,226.2 194.3,226.2 194.3,245 	"/>
	<rect x="145.6" y="207" width="9.7" height="18.5"/>
	<polygon points="165.1,245 165.1,235.2 174.6,235.2 174.6,245 184.3,245 184.3,235.2 174.8,235.2 174.8,225.5 155.3,225.5 
		155.3,245 	"/>
	<rect x="126.1" y="168.3" width="19.5" height="9.7"/>
</g>
<g>
	<path class="st1" d="M86.8,327.6c-3.3,0-5.8-0.9-7.6-2.6s-2.7-4.3-2.7-7.6h6.6c0,1.6,0.3,2.8,1,3.6c0.6,0.8,1.5,1.2,2.7,1.2
		c1,0,1.7-0.3,2.3-0.9c0.6-0.6,0.8-1.3,0.8-2.3c0-0.9-0.3-1.7-0.8-2.3c-0.5-0.6-1.3-1.2-2.4-1.8l-3.8-1.8c-2.1-1-3.6-2.2-4.6-3.6
		s-1.5-3.1-1.5-5.2c0-2.5,0.9-4.6,2.6-6.1s4-2.3,6.9-2.3c3.1,0,5.5,0.8,7.1,2.4c1.6,1.6,2.4,3.9,2.4,7h-6.5c0-2.8-1.1-4.2-3.2-4.2
		c-0.9,0-1.6,0.3-2.1,0.8s-0.8,1.2-0.8,2.1s0.3,1.6,0.8,2.2s1.4,1.2,2.7,1.8l4,2c2,1.1,3.4,2.2,4.3,3.6c0.9,1.3,1.3,3,1.3,4.9
		c0,2.7-0.9,4.9-2.6,6.6C92.1,326.8,89.8,327.6,86.8,327.6z"/>
	<path class="st1" d="M107.8,327.4c-3,0-5.4-1-7.1-2.9c-1.7-1.9-2.6-4.6-2.6-8c0-3.3,0.9-5.9,2.6-7.9c1.8-2,4.1-3,7-3
		s5.2,0.7,6.8,2.2c1.6,1.4,2.4,3.5,2.4,6.2h-6.1c-0.1-2.1-1.1-3.1-3-3.1c-1.1,0-2,0.5-2.6,1.5s-0.9,2.4-0.9,4.1
		c0,3.7,1.2,5.6,3.6,5.6c1.8,0,2.8-1,3-2.9h6.1c-0.1,2.7-1,4.7-2.6,6.1C112.8,326.6,110.6,327.4,107.8,327.4z"/>
	<path class="st1" d="M127.1,327.4c-2.5,0-4.5-1-5.9-3c-1.5-2-2.2-4.6-2.2-7.9s0.7-5.9,2.2-7.8c1.5-2,3.5-3,5.9-3
		c2.8,0,4.7,1.2,5.7,3.6v-3h6.3v20.5h-6.3v-3C131.7,326.1,129.8,327.4,127.1,327.4z M129.1,322.1c1.2,0,2.2-0.5,2.9-1.4
		c0.7-1,1-2.3,1-4.1s-0.3-3.1-1-4.1s-1.6-1.4-2.9-1.4c-1.3,0-2.2,0.5-2.9,1.4s-1,2.3-1,4.1c0,1.8,0.3,3.2,1,4.1
		S127.8,322.1,129.1,322.1z"/>
	<path class="st1" d="M143.2,326.8v-20.5h6.2v2.9c1.1-2.3,3.1-3.5,5.8-3.5c2,0,3.6,0.6,4.7,1.9c1.1,1.3,1.6,3.2,1.6,5.7v13.4h-6.3
		V315c0-1.4-0.2-2.5-0.6-3.1c-0.4-0.7-1.1-1-2.1-1c-2.1,0-3.1,1.6-3.1,4.7v11.1h-6.2L143.2,326.8L143.2,326.8z"/>
	<path class="st1" d="M173.9,326.8v-30h7.4l5.7,21.4l5.7-21.4h7.4v30h-6v-18.3l-4.9,18.3h-4.4l-4.9-18.3v18.3H173.9z"/>
	<path class="st1" d="M222.1,315.3c0,1.1-0.1,2-0.2,3h-12.6c0.1,1.4,0.4,2.5,1,3.3s1.5,1.2,2.7,1.2c1.7,0,2.7-0.7,3.1-2.1h5.6
		c-0.3,2.2-1.2,3.8-2.7,5s-3.5,1.8-6,1.8c-3.2,0-5.6-0.9-7.4-2.8c-1.7-1.9-2.6-4.5-2.6-8s0.9-6.1,2.6-8.1c1.7-1.9,4.1-2.9,7.2-2.9
		c2.9,0,5.2,0.9,6.8,2.6C221.3,309.9,222.1,312.4,222.1,315.3z M209.3,314.3h6.8c0-2.9-1.1-4.4-3.3-4.4S209.4,311.3,209.3,314.3z"/>
	<path class="st1" d="M240.6,325.9c-0.8,0.8-1.9,1.3-3.1,1.3s-2.2-0.4-3.1-1.3c-0.8-0.8-1.3-1.8-1.3-3s0.4-2.2,1.3-3
		c0.8-0.8,1.9-1.3,3.1-1.3s2.2,0.4,3.1,1.3c0.8,0.8,1.3,1.8,1.3,3S241.5,325.1,240.6,325.9z M234.4,316.4v-19.6h6.4v19.6H234.4z"/>
</g>
</svg>
