<?xml version="1.0" encoding="utf-8"?>
<!-- Generator: Adobe Illustrator 24.1.2, SVG Export Plug-In . SVG Version: 6.00 Build 0)  -->
<svg version="1.1" id="TEXTO" xmlns="http://www.w3.org/2000/svg" xmlns:xlink="http://www.w3.org/1999/xlink" x="0px" y="0px"
	 viewBox="0 0 320 418" style="enable-background:new 0 0 320 418;" xml:space="preserve">
<style type="text/css">
	.st0{fill:#E5E7EF;}
</style>
<polygon points="276,166.8 313,199.2 277.6,227.1 "/>
<polygon points="44.1,166.8 7.1,199.2 42.4,227.1 "/>
<path d="M280.6,163.1V28.6c0-7.7-6.2-13.9-13.9-13.9H53.5c-7.7,0-13.9,6.2-13.9,13.9v134.5L1.4,192.6v190.7
	c0,11.9,9.7,21.6,21.6,21.6h274.1c11.9,0,21.6-9.7,21.6-21.6V192.6L280.6,163.1L280.6,163.1z M307.3,210.9v145.8l-94.2-72.9
	L307.3,210.9L307.3,210.9z M306.1,197.3L280.6,217v-39.5L306.1,197.3L306.1,197.3z M53.5,25.1h213.2c1.9,0,3.5,1.6,3.5,3.5v196.6
	l-66.4,51.4l-30.1-23.3c-8-6.2-19.2-6.2-27.3,0l-30.1,23.3L50,225.1V28.6C50,26.6,51.5,25.1,53.5,25.1L53.5,25.1z M107,283.8
	l-94.2,72.9V210.9L107,283.8L107,283.8z M39.5,217L14,197.3l25.5-19.7V217L39.5,217z M297.1,393.5H23c-5.6,0-10.2-4.6-10.2-10.2
	v-12.3l140.6-108.9c3.9-3,9.4-3,13.3,0l140.6,108.9v12.3C307.3,389,302.7,393.5,297.1,393.5L297.1,393.5z"/>
<g>
	<path class="st0" d="M75.8,37.5h166.9c5.7,0,10.4,4.6,10.4,10.4v166.9c0,5.7-4.6,10.4-10.4,10.4H75.8c-5.7,0-10.4-4.6-10.4-10.4
		V47.8C65.5,42.1,70.1,37.5,75.8,37.5z"/>
	<path d="M137,65.1H93v44h44V65.1L137,65.1z M126.6,98.7h-23.2V75.4h23.2V98.7z"/>
	<rect x="109.8" y="81.9" width="10.4" height="10.4"/>
	<path d="M225.4,65.1h-44v44h44V65.1z M215.1,98.7h-23.3V75.4h23.3V98.7z"/>
	<rect x="198.2" y="81.9" width="10.4" height="10.4"/>
	<path d="M137,153.5H93v44h44V153.5L137,153.5z M126.6,187.1h-23.2v-23.2h23.2V187.1z"/>
	<rect x="109.8" y="170.3" width="10.4" height="10.4"/>
	<rect x="103.4" y="116" width="10.4" height="10.4"/>
	<polygon points="123.8,136.7 123.8,147 134.1,147 134.1,136.7 124,136.7 124,126.3 113.7,126.3 113.7,136.7 	"/>
	<rect x="165.5" y="85" width="10.4" height="10.4"/>
	<rect x="144.7" y="75.4" width="10.4" height="19.9"/>
	<rect x="155.1" y="65.1" width="10.4" height="10.4"/>
	<polygon points="165.5,95.3 155.1,95.3 155.1,105.6 144.7,105.6 144.7,116 165.5,116 	"/>
	<polygon points="155.1,147 155.1,157.1 165.5,157.1 165.5,167.2 186.1,167.2 186.1,156.8 165.5,156.8 165.5,146.8 155.1,146.8 
		155.1,126.3 144.7,126.3 144.7,147 	"/>
	<rect x="165.5" y="116" width="10.4" height="20.7"/>
	<path d="M196.5,146.8h28.9v-20.7h-10.3V116h-18.9v10.4h-10.1v10.4h10.4L196.5,146.8L196.5,146.8L196.5,146.8z M196.5,126.3h18.7
		v10.1h-18.6L196.5,126.3L196.5,126.3z"/>
	<rect x="215.1" y="156.8" width="10.4" height="20.7"/>
	<rect x="175.7" y="136.7" width="10.4" height="10.4"/>
	<rect x="186.1" y="167.2" width="10.4" height="10.4"/>
	<rect x="196.5" y="156.8" width="10.4" height="10.4"/>
	<polygon points="206.8,197.4 206.8,187.8 215.1,187.8 215.1,177.5 196.5,177.5 196.5,197.4 	"/>
	<rect x="144.7" y="157.1" width="10.4" height="19.7"/>
	<polygon points="165.5,197.4 165.5,187.1 175.5,187.1 175.5,197.4 185.9,197.4 185.9,187.1 175.7,187.1 175.7,176.7 155.1,176.7 
		155.1,197.4 	"/>
	<rect x="124" y="116" width="20.7" height="10.4"/>
</g>
<g>
	<path d="M86.8,363.6c-3.3,0-5.8-0.9-7.6-2.6s-2.7-4.3-2.7-7.6h6.6c0,1.6,0.3,2.8,1,3.6c0.6,0.8,1.5,1.2,2.7,1.2
		c1,0,1.7-0.3,2.3-0.9c0.6-0.6,0.8-1.3,0.8-2.3c0-0.9-0.3-1.7-0.8-2.3c-0.5-0.6-1.3-1.2-2.4-1.8l-3.8-1.8c-2.1-1-3.6-2.2-4.6-3.6
		s-1.5-3.1-1.5-5.2c0-2.5,0.9-4.6,2.6-6.1s4-2.3,6.9-2.3c3.1,0,5.5,0.8,7.1,2.4c1.6,1.6,2.4,3.9,2.4,7h-6.5c0-2.8-1.1-4.2-3.2-4.2
		c-0.9,0-1.6,0.3-2.1,0.8s-0.8,1.2-0.8,2.1s0.3,1.6,0.8,2.2s1.4,1.2,2.7,1.8l4,2c2,1.1,3.4,2.2,4.3,3.6c0.9,1.3,1.3,3,1.3,4.9
		c0,2.7-0.9,4.9-2.6,6.6C92.1,362.8,89.8,363.6,86.8,363.6z"/>
	<path d="M107.8,363.4c-3,0-5.4-1-7.1-2.9c-1.7-1.9-2.6-4.6-2.6-8c0-3.3,0.9-5.9,2.6-7.9c1.8-2,4.1-3,7-3s5.2,0.7,6.8,2.2
		c1.6,1.4,2.4,3.5,2.4,6.2h-6.1c-0.1-2.1-1.1-3.1-3-3.1c-1.1,0-2,0.5-2.6,1.5s-0.9,2.4-0.9,4.1c0,3.7,1.2,5.6,3.6,5.6
		c1.8,0,2.8-1,3-2.9h6.1c-0.1,2.7-1,4.7-2.6,6.1C112.8,362.6,110.6,363.4,107.8,363.4z"/>
	<path d="M127.1,363.4c-2.5,0-4.5-1-5.9-3c-1.5-2-2.2-4.6-2.2-7.9s0.7-5.9,2.2-7.8c1.5-2,3.5-3,5.9-3c2.8,0,4.7,1.2,5.7,3.6v-3h6.3
		v20.5h-6.3v-3C131.7,362.1,129.8,363.4,127.1,363.4z M129.1,358.1c1.2,0,2.2-0.5,2.9-1.4c0.7-1,1-2.3,1-4.1s-0.3-3.1-1-4.1
		s-1.6-1.4-2.9-1.4c-1.3,0-2.2,0.5-2.9,1.4s-1,2.3-1,4.1c0,1.8,0.3,3.2,1,4.1S127.8,358.1,129.1,358.1z"/>
	<path d="M143.2,362.8v-20.5h6.2v2.9c1.1-2.3,3.1-3.5,5.8-3.5c2,0,3.6,0.6,4.7,1.9c1.1,1.3,1.6,3.2,1.6,5.7v13.4h-6.3V351
		c0-1.4-0.2-2.5-0.6-3.1c-0.4-0.7-1.1-1-2.1-1c-2.1,0-3.1,1.6-3.1,4.7v11.1h-6.2L143.2,362.8L143.2,362.8z"/>
	<path d="M173.9,362.8v-30h7.4l5.7,21.4l5.7-21.4h7.4v30h-6v-18.3l-4.9,18.3h-4.4l-4.9-18.3v18.3H173.9z"/>
	<path d="M222.1,351.3c0,1.1-0.1,2-0.2,3h-12.6c0.1,1.4,0.4,2.5,1,3.3s1.5,1.2,2.7,1.2c1.7,0,2.7-0.7,3.1-2.1h5.6
		c-0.3,2.2-1.2,3.8-2.7,5s-3.5,1.8-6,1.8c-3.2,0-5.6-0.9-7.4-2.8c-1.7-1.9-2.6-4.5-2.6-8s0.9-6.1,2.6-8.1c1.7-1.9,4.1-2.9,7.2-2.9
		c2.9,0,5.2,0.9,6.8,2.6C221.3,345.9,222.1,348.4,222.1,351.3z M209.3,350.3h6.8c0-2.9-1.1-4.4-3.3-4.4S209.4,347.3,209.3,350.3z"/>
	<path d="M240.6,361.9c-0.8,0.8-1.9,1.3-3.1,1.3s-2.2-0.4-3.1-1.3c-0.8-0.8-1.3-1.8-1.3-3s0.4-2.2,1.3-3c0.8-0.8,1.9-1.3,3.1-1.3
		s2.2,0.4,3.1,1.3c0.8,0.8,1.3,1.8,1.3,3S241.5,361.1,240.6,361.9z M234.4,352.4v-19.6h6.4v19.6H234.4z"/>
</g>
</svg>
