<?xml version="1.0" encoding="utf-8"?>
<!-- Generator: Adobe Illustrator 24.1.2, SVG Export Plug-In . SVG Version: 6.00 Build 0)  -->
<svg version="1.1" id="TEXTO" xmlns="http://www.w3.org/2000/svg" xmlns:xlink="http://www.w3.org/1999/xlink" x="0px" y="0px"
	 viewBox="0 0 320 418" style="enable-background:new 0 0 320 418;" xml:space="preserve">
<style type="text/css">
	.st0{fill:#585858;}
	.st1{fill:#E5E7EF;}
	.st2{fill:#FFFFFF;}
</style>
<g>
	<g>
		<path class="st0" d="M267.4,287.9c-20.6,0-37.3,16.7-37.3,37.3c0,20.6,16.7,37.3,37.3,37.3s37.3-16.7,37.3-37.3
			C304.7,304.6,288,287.9,267.4,287.9z M267.4,349.1c-13.2,0-23.8-10.7-23.8-23.8s10.7-23.8,23.8-23.8s23.8,10.7,23.8,23.8
			S280.5,349.1,267.4,349.1z"/>
		<circle class="st0" cx="267.4" cy="325.2" r="11.9"/>
	</g>
	<g>
		<path class="st0" d="M110,287.9c-20.6,0-37.3,16.7-37.3,37.3c0,20.6,16.7,37.3,37.3,37.3s37.3-16.7,37.3-37.3
			C147.3,304.6,130.6,287.9,110,287.9z M110,349.1c-13.2,0-23.8-10.7-23.8-23.8s10.7-23.8,23.8-23.8s23.8,10.7,23.8,23.8
			S123.2,349.1,110,349.1z"/>
		<circle class="st0" cx="110" cy="325.2" r="11.9"/>
	</g>
	<path d="M315.1,314.8L315.1,314.8c0-26.4-21.4-47.7-47.7-47.7s-47.7,21.4-47.7,47.7c0,0,0,0,0,0H315.1L315.1,314.8z"/>
	<path class="st0" d="M275.3,267.5l-32.1-67.8l3.9-0.9l-6.3-27.9c-0.9-4-4.9-6.6-9-5.7l-32.5,7.3l5.9,26c1.1,5.1,6.2,8.2,11.3,7.1
		l0,0l10.9,66.3c0.9,5.2-0.8,10.5-4.6,14.3l-13.9,13.9c-3.1,3.1-7.3,4.8-11.6,4.8h-22.8v-41.6h9.7c2.1,0,3.8-1.7,3.8-3.8v-14.7
		c0-2.1-1.7-3.8-3.8-3.8H89.6c-2.1,0-3.8,1.7-3.8,3.8v8.6C62,263,45.3,286.3,45.3,313.5c0,1.6,0.1,3.3,0.2,4.9
		c0.3,3.8,3.4,6.8,7.3,6.8h153.5c4.1,0,8.1-1.6,11.1-4.3l57.7-53.2l0-0.1L275.3,267.5L275.3,267.5z"/>
	<path d="M182.7,176.3L211,170c2.6-0.6,5.2,1.1,5.8,3.6l0.3,1.4c0.6,2.6-1.1,5.2-3.6,5.8l-28.3,6.4c-2.6,0.6-5.2-1.1-5.8-3.6
		l-0.3-1.4C178.5,179.5,180.2,176.9,182.7,176.3z"/>
	<path d="M264.8,176.1c0-1.8-1.5-3.3-3.3-3.3c-2.6,0-5.9,0.1-6.5,0.1c-9.2,0-16.7,7.5-16.7,16.7c0,9.2,7.5,16.7,16.7,16.7
		c0.7,0,3.9,0.1,6.5,0.1c1.8,0,3.3-1.5,3.3-3.3V176.1z"/>
	<path d="M159.5,325.2C159.5,325.2,159.5,325.2,159.5,325.2c0-27.4-22.1-49.5-49.5-49.5s-49.5,22.1-49.5,49.5v0H159.5L159.5,325.2z"
		/>
</g>
<path d="M158.3,62.4c3.1,0,5.6,2.5,5.6,5.6v146.6H11.8V68c0-3.1,2.5-5.6,5.6-5.6H158.3 M158.3,55.6h-141c-6.9,0-12.4,5.6-12.4,12.4
	v153.4h165.8V68C170.7,61.1,165.2,55.6,158.3,55.6L158.3,55.6z"/>
<path d="M158.3,256.5h-141c-6.9,0-12.4-5.6-12.4-12.4v-29h165.8v29C170.7,250.9,165.2,256.5,158.3,256.5L158.3,256.5z"/>
<g>
	<path class="st1" d="M30.5,74.6h114.6c3.9,0,7.1,3.2,7.1,7.1v114.6c0,3.9-3.2,7.1-7.1,7.1H30.5c-3.9,0-7.1-3.2-7.1-7.1V81.7
		C23.4,77.8,26.6,74.6,30.5,74.6z"/>
	<path d="M72.6,93.6H42.4v30.2h30.2V93.6L72.6,93.6z M65.4,116.6h-16v-16h16V116.6z"/>
	<rect x="53.9" y="105.1" width="7.1" height="7.1"/>
	<path d="M133.3,93.6h-30.2v30.2h30.2V93.6z M126.2,116.6h-16v-16h16V116.6z"/>
	<rect x="114.6" y="105.1" width="7.1" height="7.1"/>
	<path d="M72.6,154.3H42.4v30.2h30.2V154.3L72.6,154.3z M65.4,177.4h-16v-16h16V177.4z"/>
	<rect x="53.9" y="165.8" width="7.1" height="7.1"/>
	<rect x="49.5" y="128.5" width="7.1" height="7.1"/>
	<polygon points="63.5,142.7 63.5,149.8 70.6,149.8 70.6,142.7 63.7,142.7 63.7,135.6 56.6,135.6 56.6,142.7 	"/>
	<rect x="92.1" y="107.2" width="7.1" height="7.1"/>
	<rect x="77.9" y="100.6" width="7.1" height="13.7"/>
	<rect x="85" y="93.6" width="7.1" height="7.1"/>
	<polygon points="92.1,114.3 85,114.3 85,121.4 77.9,121.4 77.9,128.5 92.1,128.5 	"/>
	<polygon points="85,149.8 85,156.8 92.1,156.8 92.1,163.7 106.3,163.7 106.3,156.6 92.1,156.6 92.1,149.7 85,149.7 85,135.6 
		77.9,135.6 77.9,149.8 	"/>
	<rect x="92.1" y="128.5" width="7.1" height="14.2"/>
	<path d="M113.4,149.7h19.9v-14.2h-7.1v-6.9h-13v7.1h-6.9v7.1h7.1L113.4,149.7L113.4,149.7L113.4,149.7z M113.4,135.6h12.8v6.9
		h-12.8L113.4,135.6L113.4,135.6z"/>
	<rect x="126.2" y="156.6" width="7.1" height="14.2"/>
	<rect x="99.2" y="142.7" width="7.1" height="7.1"/>
	<rect x="106.3" y="163.7" width="7.1" height="7.1"/>
	<rect x="113.4" y="156.6" width="7.1" height="7.1"/>
	<polygon points="120.5,184.5 120.5,177.8 126.2,177.8 126.2,170.8 113.4,170.8 113.4,184.5 	"/>
	<rect x="77.9" y="156.8" width="7.1" height="13.5"/>
	<polygon points="92.1,184.5 92.1,177.4 99,177.4 99,184.5 106.1,184.5 106.1,177.4 99.2,177.4 99.2,170.2 85,170.2 85,184.5 	"/>
	<rect x="63.7" y="128.5" width="14.2" height="7.1"/>
</g>
<g>
	<path class="st2" d="M28.8,247.7c-2.7,0-4.8-0.7-6.2-2.1c-1.5-1.4-2.2-3.5-2.2-6.2h5.4c0,1.3,0.2,2.3,0.8,2.9c0.5,0.7,1.2,1,2.2,1
		c0.8,0,1.4-0.2,1.9-0.7c0.5-0.5,0.7-1.1,0.7-1.9c0-0.7-0.2-1.4-0.7-1.9c-0.4-0.5-1.1-1-2-1.5l-3.1-1.5c-1.7-0.8-2.9-1.8-3.8-2.9
		c-0.8-1.1-1.2-2.5-1.2-4.3c0-2,0.7-3.8,2.1-5c1.4-1.2,3.3-1.9,5.7-1.9c2.5,0,4.5,0.7,5.8,2c1.3,1.3,2,3.2,2,5.7h-5.3
		c0-2.3-0.9-3.4-2.6-3.4c-0.7,0-1.3,0.2-1.7,0.7c-0.4,0.4-0.7,1-0.7,1.7s0.2,1.3,0.7,1.8c0.4,0.5,1.1,1,2.2,1.5l3.3,1.6
		c1.6,0.9,2.8,1.8,3.5,2.9c0.7,1.1,1.1,2.5,1.1,4c0,2.2-0.7,4-2.1,5.4C33.2,247.1,31.3,247.7,28.8,247.7z"/>
	<path class="st2" d="M46,247.6c-2.5,0-4.4-0.8-5.8-2.4c-1.4-1.6-2.1-3.8-2.1-6.6c0-2.7,0.7-4.8,2.1-6.5c1.5-1.6,3.4-2.5,5.7-2.5
		c2.4,0,4.3,0.6,5.6,1.8c1.3,1.1,2,2.9,2,5.1h-5c-0.1-1.7-0.9-2.5-2.5-2.5c-0.9,0-1.6,0.4-2.1,1.2c-0.5,0.8-0.7,2-0.7,3.4
		c0,3,1,4.6,2.9,4.6c1.5,0,2.3-0.8,2.5-2.4h5c-0.1,2.2-0.8,3.9-2.1,5C50.1,246.9,48.3,247.6,46,247.6z"/>
	<path class="st2" d="M61.9,247.6c-2,0-3.7-0.8-4.8-2.5c-1.2-1.6-1.8-3.8-1.8-6.5c0-2.7,0.6-4.8,1.8-6.4c1.2-1.6,2.9-2.5,4.8-2.5
		c2.3,0,3.9,1,4.7,2.9v-2.5h5.2v16.8h-5.2v-2.5C65.6,246.5,64.1,247.6,61.9,247.6z M63.5,243.2c1,0,1.8-0.4,2.4-1.1
		c0.6-0.8,0.8-1.9,0.8-3.4c0-1.5-0.2-2.5-0.8-3.4s-1.3-1.1-2.4-1.1c-1.1,0-1.8,0.4-2.4,1.1s-0.8,1.9-0.8,3.4c0,1.5,0.2,2.6,0.8,3.4
		S62.4,243.2,63.5,243.2z"/>
	<path class="st2" d="M75.1,247.1v-16.8h5.1v2.4c0.9-1.9,2.5-2.9,4.8-2.9c1.6,0,2.9,0.5,3.9,1.6c0.9,1.1,1.3,2.6,1.3,4.7v11h-5.2
		v-9.6c0-1.1-0.2-2-0.5-2.5c-0.3-0.6-0.9-0.8-1.7-0.8c-1.7,0-2.5,1.3-2.5,3.9v9.1L75.1,247.1L75.1,247.1L75.1,247.1z"/>
	<path class="st2" d="M100.2,247.1v-24.6h6.1l4.7,17.5l4.7-17.5h6.1v24.6h-4.9v-15l-4,15h-3.6l-4-15v15H100.2z"/>
	<path class="st2" d="M139.7,237.6c0,0.9-0.1,1.6-0.2,2.5h-10.3c0.1,1.1,0.3,2,0.8,2.7s1.2,1,2.2,1c1.4,0,2.2-0.6,2.5-1.7h4.6
		c-0.2,1.8-1,3.1-2.2,4.1c-1.2,1-2.9,1.5-4.9,1.5c-2.6,0-4.6-0.7-6.1-2.3c-1.4-1.6-2.1-3.7-2.1-6.6c0-2.9,0.7-5,2.1-6.6
		c1.4-1.6,3.4-2.4,5.9-2.4c2.4,0,4.3,0.7,5.6,2.1C139,233.2,139.7,235.3,139.7,237.6z M129.2,236.8h5.6c0-2.4-0.9-3.6-2.7-3.6
		S129.3,234.4,129.2,236.8z"/>
	<path class="st2" d="M154.9,246.3c-0.7,0.7-1.6,1.1-2.5,1.1c-1,0-1.8-0.3-2.5-1.1c-0.7-0.7-1.1-1.5-1.1-2.5s0.3-1.8,1.1-2.5
		c0.7-0.7,1.6-1.1,2.5-1.1c1,0,1.8,0.3,2.5,1.1c0.7,0.7,1.1,1.5,1.1,2.5S155.6,245.7,154.9,246.3z M149.8,238.5v-16.1h5.2v16.1
		H149.8z"/>
</g>
</svg>
