<?xml version="1.0" encoding="utf-8"?>
<!-- Generator: Adobe Illustrator 24.1.2, SVG Export Plug-In . SVG Version: 6.00 Build 0)  -->
<svg version="1.1" id="TEXTO" xmlns="http://www.w3.org/2000/svg" xmlns:xlink="http://www.w3.org/1999/xlink" x="0px" y="0px"
	 viewBox="0 0 320 418" style="enable-background:new 0 0 320 418;" xml:space="preserve">
<style type="text/css">
	.st0{fill:#585858;}
	.st1{fill:#E5E7EF;}
</style>
<path d="M263.6,59.4c1.8,0,3.3,1.5,3.3,3.3V266H60.3V62.6c0-1.8,1.5-3.3,3.3-3.3L263.6,59.4 M263.6,49.5H63.6
	c-7.2,0-13.1,5.9-13.1,13.1v213.2h226.3V62.6C276.7,55.4,270.8,49.5,263.6,49.5L263.6,49.5z"/>
<path class="st0" d="M19.3,265.9h288.5c2.5,0,4.4,2,4.4,4.4l0,0c0,2.5-2,4.4-4.4,4.4H19.3c-2.5,0-4.4-2-4.4-4.4l0,0
	C14.9,267.8,16.9,265.9,19.3,265.9z"/>
<path d="M264.8,304.8H62.4c-16.6,0-30.1-13.5-30.1-30.1l0,0h262.6l0,0C294.9,291.3,281.4,304.8,264.8,304.8z"/>
<path d="M251.6,307.8c-4.6-5.3-11.5-6.4-17.9-3c-3.3-3.2-9.3-3.3-14.4-1.4c-1.9,0.7-24.6,9.7-31.9,12.6c-2.7-4.6-8.4-6.4-10.8-7.1
	c-3.7-1.1-54.6-10.2-73.8-6c-6.5,1.4-56.9,20.3-59,21.1c-1.5,0.6-2.3,2.3-1.7,3.8c0.6,1.5,2.3,2.3,3.8,1.7
	c14.5-5.4,53.1-19.7,58.2-20.8c16.9-3.7,66.1,4.4,70.9,5.8c5.9,1.8,8.2,3.9,8.1,7.5c-0.2,4.1-2.3,5.9-8.4,7.1
	c-4.2,0.8-39.5,3.5-52.7,4.6c-1.6,0.1-2.8,1.5-2.7,3.2c0.1,1.5,1.4,2.7,2.9,2.7c0.1,0,0.2,0,0.2,0c0.9-0.1,10.2-0.8,21-1.6
	c2.8,1.5,13.5,7.2,18.1,9.5c7.2,3.6,11.9,0.9,17.8-2.4c0.7-0.4,1.5-0.8,2.3-1.2c3.6-2,48.2-29.2,53.6-32.9c1.7-1.1,7.6-4.5,12.2,0.8
	c1.1,1.3,1.6,2.9,1.5,4.7c-0.2,2.1-1.3,4-3.1,5.4c-2.2,1.8-56,44.1-62.7,48.7c-11.5,7.8-25.3,10-41.3,6.5
	c-3.5-0.8-45.1-12.5-66.6-18.6c-0.6-0.2-1.2-0.1-1.8,0.1L58.5,364c-1.5,0.6-2.3,2.3-1.7,3.8c0.6,1.5,2.3,2.3,3.8,1.7l13.8-5.2
	c8.1,2.3,61.7,17.5,66,18.4c5.4,1.2,10.6,1.8,15.6,1.8c11.2,0,21.4-3,30.3-9.1c7-4.7,61-47.2,63.1-48.9c3.1-2.5,4.9-5.8,5.3-9.5
	C254.8,313.5,253.8,310.3,251.6,307.8L251.6,307.8z M178.5,338.6c-0.8,0.4-1.6,0.9-2.3,1.3c-6.1,3.4-8.2,4.4-12.3,2.3
	c-2.3-1.1-6.2-3.2-9.9-5.1c10.2-0.9,19.3-1.7,21.5-2.1c3.5-0.7,12.7-2.4,13.2-12.6c0-0.2,0-0.4,0-0.6c11.4-4.5,30.8-12.2,32.4-12.8
	c2.5-0.9,5.1-1.1,6.9-0.6C216.1,315.9,181.7,336.9,178.5,338.6L178.5,338.6z"/>
<polygon class="st0" points="-0.1,415.5 5.5,415.5 63.7,378.8 41.1,316.3 -0.1,328 "/>
<g>
	<path class="st1" d="M83.9,75.2h156.7c5.3,0,9.7,4.3,9.7,9.7v156.7c0,5.3-4.3,9.7-9.7,9.7H83.9c-5.3,0-9.7-4.3-9.7-9.7V84.9
		C74.2,79.6,78.6,75.2,83.9,75.2z"/>
	<path d="M141.4,101.1h-41.3v41.3h41.3V101.1L141.4,101.1z M131.6,132.7h-21.8v-21.9h21.8V132.7z"/>
	<rect x="115.9" y="116.9" width="9.7" height="9.7"/>
	<path d="M224.4,101.1h-41.3v41.3h41.3V101.1z M214.7,132.7h-21.9v-21.9h21.9V132.7z"/>
	<rect x="198.9" y="116.9" width="9.7" height="9.7"/>
	<path d="M141.4,184.1h-41.3v41.3h41.3V184.1L141.4,184.1z M131.6,215.7h-21.8v-21.8h21.8V215.7z"/>
	<rect x="115.9" y="199.9" width="9.7" height="9.7"/>
	<rect x="109.8" y="148.9" width="9.7" height="9.7"/>
	<polygon points="129,168.4 129,178 138.7,178 138.7,168.4 129.2,168.4 129.2,158.6 119.5,158.6 119.5,168.4 	"/>
	<rect x="168.1" y="119.8" width="9.7" height="9.7"/>
	<rect x="148.6" y="110.8" width="9.7" height="18.7"/>
	<rect x="158.4" y="101.1" width="9.7" height="9.7"/>
	<polygon points="168.1,129.5 158.4,129.5 158.4,139.2 148.6,139.2 148.6,148.9 168.1,148.9 	"/>
	<polygon points="158.4,178 158.4,187.5 168.1,187.5 168.1,197 187.5,197 187.5,187.3 168.1,187.3 168.1,177.8 158.4,177.8 
		158.4,158.6 148.6,158.6 148.6,178 	"/>
	<rect x="168.1" y="148.9" width="9.7" height="19.4"/>
	<path d="M197.2,177.8h27.2v-19.4h-9.7v-9.5H197v9.7h-9.5v9.7h9.7L197.2,177.8L197.2,177.8L197.2,177.8z M197.2,158.6h17.5v9.5
		h-17.4L197.2,158.6L197.2,158.6z"/>
	<rect x="214.7" y="187.3" width="9.7" height="19.4"/>
	<rect x="177.7" y="168.4" width="9.7" height="9.7"/>
	<rect x="187.5" y="197" width="9.7" height="9.7"/>
	<rect x="197.2" y="187.3" width="9.7" height="9.7"/>
	<polygon points="206.9,225.4 206.9,216.3 214.7,216.3 214.7,206.7 197.2,206.7 197.2,225.4 	"/>
	<rect x="148.6" y="187.5" width="9.7" height="18.5"/>
	<polygon points="168.1,225.4 168.1,215.7 177.5,215.7 177.5,225.4 187.3,225.4 187.3,215.7 177.7,215.7 177.7,206 158.4,206 
		158.4,225.4 	"/>
	<rect x="129.2" y="148.9" width="19.4" height="9.7"/>
</g>
<g>
	<path d="M86.8,41.1c-3.3,0-5.8-0.9-7.6-2.6s-2.7-4.3-2.7-7.6h6.6c0,1.6,0.3,2.8,1,3.6c0.6,0.8,1.5,1.2,2.7,1.2c1,0,1.7-0.3,2.3-0.9
		c0.6-0.6,0.8-1.3,0.8-2.3c0-0.9-0.3-1.7-0.8-2.3c-0.5-0.6-1.3-1.2-2.4-1.8l-3.8-1.8c-2.1-1-3.6-2.2-4.6-3.6s-1.5-3.1-1.5-5.2
		c0-2.5,0.9-4.6,2.6-6.1s4-2.3,6.9-2.3c3.1,0,5.5,0.8,7.1,2.4c1.6,1.6,2.4,3.9,2.4,7h-6.5c0-2.8-1.1-4.2-3.2-4.2
		c-0.9,0-1.6,0.3-2.1,0.8s-0.8,1.2-0.8,2.1s0.3,1.6,0.8,2.2s1.4,1.2,2.7,1.8l4,2c2,1.1,3.4,2.2,4.3,3.6c0.9,1.3,1.3,3,1.3,4.9
		c0,2.7-0.9,4.9-2.6,6.6C92.1,40.3,89.8,41.1,86.8,41.1z"/>
	<path d="M107.8,40.9c-3,0-5.4-1-7.1-2.9c-1.7-1.9-2.6-4.6-2.6-8c0-3.3,0.9-5.9,2.6-7.9c1.8-2,4.1-3,7-3s5.2,0.7,6.8,2.2
		c1.6,1.4,2.4,3.5,2.4,6.2h-6.1c-0.1-2.1-1.1-3.1-3-3.1c-1.1,0-2,0.5-2.6,1.5s-0.9,2.4-0.9,4.1c0,3.7,1.2,5.6,3.6,5.6
		c1.8,0,2.8-1,3-2.9h6.1c-0.1,2.7-1,4.7-2.6,6.1C112.8,40.1,110.6,40.9,107.8,40.9z"/>
	<path d="M127.1,40.9c-2.5,0-4.5-1-5.9-3c-1.5-2-2.2-4.6-2.2-7.9s0.7-5.9,2.2-7.8c1.5-2,3.5-3,5.9-3c2.8,0,4.7,1.2,5.7,3.6v-3h6.3
		v20.5h-6.3v-3C131.7,39.6,129.8,40.9,127.1,40.9z M129.1,35.6c1.2,0,2.2-0.5,2.9-1.4c0.7-1,1-2.3,1-4.1s-0.3-3.1-1-4.1
		s-1.6-1.4-2.9-1.4c-1.3,0-2.2,0.5-2.9,1.4s-1,2.3-1,4.1c0,1.8,0.3,3.2,1,4.1S127.8,35.6,129.1,35.6z"/>
	<path d="M143.2,40.3V19.8h6.2v2.9c1.1-2.3,3.1-3.5,5.8-3.5c2,0,3.6,0.6,4.7,1.9c1.1,1.3,1.6,3.2,1.6,5.7v13.4h-6.3V28.5
		c0-1.4-0.2-2.5-0.6-3.1c-0.4-0.7-1.1-1-2.1-1c-2.1,0-3.1,1.6-3.1,4.7v11.1h-6.2L143.2,40.3L143.2,40.3z"/>
	<path d="M173.9,40.3v-30h7.4l5.7,21.4l5.7-21.4h7.4v30h-6V22l-4.9,18.3h-4.4L179.9,22v18.3H173.9z"/>
	<path d="M222.1,28.8c0,1.1-0.1,2-0.2,3h-12.6c0.1,1.4,0.4,2.5,1,3.3s1.5,1.2,2.7,1.2c1.7,0,2.7-0.7,3.1-2.1h5.6
		c-0.3,2.2-1.2,3.8-2.7,5s-3.5,1.8-6,1.8c-3.2,0-5.6-0.9-7.4-2.8c-1.7-1.9-2.6-4.5-2.6-8s0.9-6.1,2.6-8.1c1.7-1.9,4.1-2.9,7.2-2.9
		c2.9,0,5.2,0.9,6.8,2.6C221.3,23.4,222.1,25.9,222.1,28.8z M209.3,27.8h6.8c0-2.9-1.1-4.4-3.3-4.4S209.4,24.8,209.3,27.8z"/>
	<path d="M240.6,39.4c-0.8,0.8-1.9,1.3-3.1,1.3s-2.2-0.4-3.1-1.3c-0.8-0.8-1.3-1.8-1.3-3s0.4-2.2,1.3-3c0.8-0.8,1.9-1.3,3.1-1.3
		s2.2,0.4,3.1,1.3c0.8,0.8,1.3,1.8,1.3,3S241.5,38.6,240.6,39.4z M234.4,29.9V10.3h6.4v19.6H234.4z"/>
</g>
</svg>
