<?xml version="1.0" encoding="utf-8"?>
<!-- Generator: Adobe Illustrator 24.1.2, SVG Export Plug-In . SVG Version: 6.00 Build 0)  -->
<svg version="1.1" id="TEXTO" xmlns="http://www.w3.org/2000/svg" xmlns:xlink="http://www.w3.org/1999/xlink" x="0px" y="0px"
	 viewBox="0 0 320 418" style="enable-background:new 0 0 320 418;" xml:space="preserve">
<style type="text/css">
	.st0{opacity:0.5;fill:#585858;enable-background:new    ;}
	.st1{fill:#585858;}
	.st2{fill:#E5E7EF;}
	.st3{fill:#FFFFFF;}
</style>
<g>
	<path d="M135.2,164.7v-24.1h-96c-4.3,0-8.2,2.7-9.7,6.7l-6.5,17h-8.9c-4.7,0-8.6,3.8-8.6,8.5v12.1c0,4.7,3.8,8.6,8.6,8.6h4.3
		l11.9,168.5h106.1l-11.9-168.5h7.8c4.7,0,8.6-3.8,8.6-8.6v-12.1C140.8,169,138.5,165.9,135.2,164.7z M35.5,356.3L24,193.6h94.9
		l11.5,162.7H35.5z M34.7,149.2c0.7-1.9,2.5-3.1,4.4-3.1h90.4v18.1H29L34.7,149.2z M135.3,184.8c0,1.7-1.4,3-3,3H14.2
		c-1.7,0-3-1.4-3-3v-12.1c0-1.7,1.4-3,3-3h118.1c1.7,0,3,1.4,3,3L135.3,184.8L135.3,184.8z"/>
	<polygon points="138,306.5 133.6,244.3 16.2,244.3 20.6,306.5 	"/>
</g>
<path class="st0" d="M293,83.6c-0.3-5.3-4.6-9.5-9.8-9.6c-23.8-0.2-85.3-0.5-91.2-0.6l0,0c0,0-0.1,0-0.2,0c-0.2,0-0.2,0-0.2,0l0,0
	c-5.9,0-67.5,0.4-91.2,0.6c-5.2,0-9.5,4.2-9.8,9.6L74.7,351c-0.3,5.9,4.2,10.8,9.9,10.8h214.3c5.7,0,10.3-4.9,9.9-10.8L293,83.6
	L293,83.6z"/>
<path d="M298.6,83.6c-0.3-5.3-4.6-9.5-9.8-9.6c-23.8-0.2-85.3-0.5-91.2-0.6l0,0c0,0-0.1,0-0.2,0c-0.2,0-0.2,0-0.2,0l0,0
	c-5.9,0-67.5,0.4-91.2,0.6c-5.2,0-9.5,4.2-9.8,9.6L80.2,351c-0.3,5.9,4.2,10.8,9.9,10.8h214.3c5.7,0,10.3-4.9,9.9-10.8L298.6,83.6
	L298.6,83.6z"/>
<path class="st1" d="M94.6,107c0.9,0.2,1.8,0.4,2.7,0.4h200.4c0.8,0,1.5-0.1,2.2-0.2l-1.4-23.6c-0.3-5.3-4.6-9.5-9.8-9.6
	c-23.8-0.2-85.3-0.5-91.2-0.6l0,0c0,0-0.1,0-0.2,0c-0.2,0-0.2,0-0.2,0l0,0c-5.9,0-67.5,0.4-91.2,0.6c-5.2,0-9.5,4.2-9.8,9.6
	L94.6,107L94.6,107z"/>
<path d="M300.3,98.5H94.3c-4.9,0-8.8-4-8.8-9l2.2-29.6c0.2-2.1,1.9-3.7,3.9-3.7h211.7c2,0,3.7,1.6,3.8,3.6l2.2,29.6
	C309.2,94.4,305.2,98.5,300.3,98.5z"/>
<g>
	<path class="st2" d="M122.2,124.8h154.7c5.3,0,9.6,4.3,9.6,9.6V289c0,5.3-4.3,9.6-9.6,9.6H122.2c-5.3,0-9.6-4.3-9.6-9.6V134.3
		C112.6,129,116.9,124.8,122.2,124.8z"/>
	<path d="M178.9,150.3h-40.7v40.7h40.7V150.3L178.9,150.3z M169.3,181.5h-21.5v-21.6h21.5V181.5z"/>
	<rect x="153.7" y="165.9" width="9.6" height="9.6"/>
	<path d="M260.8,150.3h-40.7v40.7h40.7V150.3z M251.3,181.5h-21.6v-21.6h21.6V181.5z"/>
	<rect x="235.7" y="165.9" width="9.6" height="9.6"/>
	<path d="M178.9,232.3h-40.7V273h40.7V232.3L178.9,232.3z M169.3,263.4h-21.5v-21.5h21.5V263.4z"/>
	<rect x="153.7" y="247.8" width="9.6" height="9.6"/>
	<rect x="147.8" y="197.5" width="9.6" height="9.6"/>
	<polygon points="166.7,216.7 166.7,226.2 176.2,226.2 176.2,216.7 166.9,216.7 166.9,207.1 157.4,207.1 157.4,216.7 	"/>
	<rect x="205.3" y="168.8" width="9.6" height="9.6"/>
	<rect x="186.1" y="159.9" width="9.6" height="18.4"/>
	<rect x="195.7" y="150.3" width="9.6" height="9.6"/>
	<polygon points="205.3,178.4 195.7,178.4 195.7,187.9 186.1,187.9 186.1,197.5 205.3,197.5 	"/>
	<polygon points="195.7,226.2 195.7,235.6 205.3,235.6 205.3,245 224.4,245 224.4,235.4 205.3,235.4 205.3,226 195.7,226 
		195.7,207.1 186.1,207.1 186.1,226.2 	"/>
	<rect x="205.3" y="197.5" width="9.6" height="19.2"/>
	<path d="M234,226h26.8v-19.2h-9.5v-9.3h-17.5v9.6h-9.3v9.6h9.6L234,226L234,226L234,226z M234,207.1h17.3v9.3h-17.2L234,207.1
		L234,207.1z"/>
	<rect x="251.3" y="235.4" width="9.6" height="19.2"/>
	<rect x="214.8" y="216.7" width="9.6" height="9.6"/>
	<rect x="224.4" y="245" width="9.6" height="9.6"/>
	<rect x="234" y="235.4" width="9.6" height="9.6"/>
	<polygon points="243.6,273 243.6,264.1 251.3,264.1 251.3,254.5 234,254.5 234,273 	"/>
	<rect x="186.1" y="235.6" width="9.6" height="18.2"/>
	<polygon points="205.3,273 205.3,263.4 214.6,263.4 214.6,273 224.2,273 224.2,263.4 214.8,263.4 214.8,253.8 195.7,253.8 
		195.7,273 	"/>
	<rect x="166.9" y="197.5" width="19.2" height="9.6"/>
</g>
<g>
	<path class="st3" d="M130.6,347.7c-3.3,0-5.8-0.9-7.6-2.6c-1.8-1.7-2.7-4.3-2.7-7.6h6.6c0,1.6,0.3,2.8,1,3.6
		c0.6,0.8,1.5,1.2,2.7,1.2c1,0,1.7-0.3,2.3-0.9c0.6-0.6,0.8-1.3,0.8-2.3c0-0.9-0.3-1.7-0.8-2.3c-0.5-0.6-1.3-1.2-2.4-1.8l-3.8-1.8
		c-2.1-1-3.6-2.2-4.6-3.6s-1.5-3.1-1.5-5.2c0-2.5,0.9-4.6,2.6-6.1s4-2.3,6.9-2.3c3.1,0,5.5,0.8,7.1,2.4s2.4,3.9,2.4,7h-6.5
		c0-2.8-1.1-4.2-3.2-4.2c-0.9,0-1.6,0.3-2.1,0.8s-0.8,1.2-0.8,2.1s0.3,1.6,0.8,2.2s1.4,1.2,2.7,1.8l4,2c2,1.1,3.4,2.2,4.3,3.6
		c0.9,1.3,1.3,3,1.3,4.9c0,2.7-0.9,4.9-2.6,6.6C135.9,346.9,133.6,347.7,130.6,347.7z"/>
	<path class="st3" d="M151.6,347.5c-3,0-5.4-1-7.1-2.9c-1.7-1.9-2.6-4.6-2.6-8c0-3.3,0.9-5.9,2.6-7.9c1.8-2,4.1-3,7-3
		s5.2,0.7,6.8,2.2c1.6,1.4,2.4,3.5,2.4,6.2h-6.1c-0.1-2.1-1.1-3.1-3-3.1c-1.1,0-2,0.5-2.6,1.5s-0.9,2.4-0.9,4.1
		c0,3.7,1.2,5.6,3.6,5.6c1.8,0,2.8-1,3-2.9h6.1c-0.1,2.7-1,4.7-2.6,6.1C156.6,346.7,154.4,347.5,151.6,347.5z"/>
	<path class="st3" d="M170.9,347.5c-2.5,0-4.5-1-5.9-3c-1.5-2-2.2-4.6-2.2-7.9s0.7-5.9,2.2-7.8c1.5-2,3.5-3,5.9-3
		c2.8,0,4.7,1.2,5.7,3.6v-3h6.3v20.5h-6.3v-3C175.5,346.2,173.6,347.5,170.9,347.5z M172.9,342.2c1.2,0,2.2-0.5,2.9-1.4
		c0.7-1,1-2.3,1-4.1s-0.3-3.1-1-4.1c-0.7-1-1.6-1.4-2.9-1.4c-1.3,0-2.2,0.5-2.9,1.4c-0.7,0.9-1,2.3-1,4.1c0,1.8,0.3,3.2,1,4.1
		C170.7,341.7,171.6,342.2,172.9,342.2z"/>
	<path class="st3" d="M187,346.9v-20.5h6.2v2.9c1.1-2.3,3.1-3.5,5.8-3.5c2,0,3.6,0.6,4.7,1.9c1.1,1.3,1.6,3.2,1.6,5.7v13.4H199
		v-11.7c0-1.4-0.2-2.5-0.6-3.1c-0.4-0.7-1.1-1-2.1-1c-2.1,0-3.1,1.6-3.1,4.7v11.1H187L187,346.9L187,346.9z"/>
	<path class="st3" d="M217.7,346.9v-30h7.4l5.7,21.4l5.7-21.4h7.4v30h-6v-18.3l-4.9,18.3h-4.4l-4.9-18.3v18.3H217.7z"/>
	<path class="st3" d="M265.9,335.4c0,1.1-0.1,2-0.2,3h-12.6c0.1,1.4,0.4,2.5,1,3.3s1.5,1.2,2.7,1.2c1.7,0,2.7-0.7,3.1-2.1h5.6
		c-0.3,2.2-1.2,3.8-2.7,5s-3.5,1.8-6,1.8c-3.2,0-5.6-0.9-7.4-2.8c-1.7-1.9-2.6-4.5-2.6-8s0.9-6.1,2.6-8.1c1.7-1.9,4.1-2.9,7.2-2.9
		c2.9,0,5.2,0.9,6.8,2.6C265.1,330,265.9,332.5,265.9,335.4z M253.1,334.4h6.8c0-2.9-1.1-4.4-3.3-4.4
		C254.4,330,253.2,331.4,253.1,334.4z"/>
	<path class="st3" d="M284.4,346c-0.8,0.8-1.9,1.3-3.1,1.3s-2.2-0.4-3.1-1.3c-0.8-0.8-1.3-1.8-1.3-3s0.4-2.2,1.3-3
		c0.8-0.8,1.9-1.3,3.1-1.3s2.2,0.4,3.1,1.3c0.8,0.8,1.3,1.8,1.3,3S285.3,345.2,284.4,346z M278.2,336.5v-19.6h6.4v19.6H278.2z"/>
</g>
</svg>
