<?xml version="1.0" encoding="utf-8"?>
<!-- Generator: Adobe Illustrator 24.1.2, SVG Export Plug-In . SVG Version: 6.00 Build 0)  -->
<svg version="1.1" id="TEXTO" xmlns="http://www.w3.org/2000/svg" xmlns:xlink="http://www.w3.org/1999/xlink" x="0px" y="0px"
	 viewBox="0 0 320 418" style="enable-background:new 0 0 320 418;" xml:space="preserve">
<style type="text/css">
	.st0{fill:#585858;}
	.st1{fill:#FFFFFF;}
	.st2{fill:#E5E7EF;}
</style>
<path d="M302.7,58.8L302.7,58.8v285.3H17.3V58.8L302.7,58.8 M302.7,46.4H17.3c-6.9,0-12.4,5.6-12.4,12.4v285.3
	c0,6.9,5.6,12.4,12.4,12.4h285.3c6.9,0,12.4-5.6,12.4-12.4V58.8C315.1,52,309.5,46.4,302.7,46.4L302.7,46.4z"/>
<path d="M302.7,410.5H17.3c-6.9,0-12.4-5.6-12.4-12.4v-53.7h310.1v53.7C315.1,404.9,309.5,410.5,302.7,410.5z"/>
<g>
	<path class="st0" d="M115.8,27.9h89c11.7,0,21.2,9.5,21.2,21.2v15.2c0,2.3-1.8,4.1-4.1,4.1H98.7c-2.3,0-4.1-1.8-4.1-4.1V49.1
		C94.6,37.4,104.1,27.9,115.8,27.9z"/>
	<circle class="st0" cx="160.3" cy="28" r="20.5"/>
	<ellipse class="st1" cx="160.3" cy="28" rx="8.1" ry="8.1"/>
</g>
<g>
	<path class="st2" d="M49.2,81.5h220.2c7.5,0,13.7,6.1,13.7,13.7v220.2c0,7.5-6.1,13.7-13.7,13.7H49.2c-7.5,0-13.7-6.1-13.7-13.7
		V95.1C35.5,87.6,41.6,81.5,49.2,81.5z"/>
	<path d="M129.9,117.9h-58v58h58V117.9L129.9,117.9z M116.2,162.3H85.5v-30.8h30.7V162.3z"/>
	<rect x="94" y="140.1" width="13.7" height="13.7"/>
	<path d="M246.5,117.9h-58v58h58V117.9z M233,162.3h-30.8v-30.8H233V162.3z"/>
	<rect x="210.7" y="140.1" width="13.7" height="13.7"/>
	<path d="M129.9,234.6h-58v58h58V234.6L129.9,234.6z M116.2,278.9H85.5v-30.7h30.7V278.9z"/>
	<rect x="94" y="256.7" width="13.7" height="13.7"/>
	<rect x="85.5" y="185.1" width="13.7" height="13.7"/>
	<polygon points="112.5,212.4 112.5,226 126.1,226 126.1,212.4 112.8,212.4 112.8,198.7 99.2,198.7 99.2,212.4 	"/>
	<rect x="167.4" y="144.2" width="13.7" height="13.7"/>
	<rect x="140.1" y="131.5" width="13.7" height="26.2"/>
	<rect x="153.8" y="117.9" width="13.7" height="13.7"/>
	<polygon points="167.4,157.8 153.8,157.8 153.8,171.4 140.1,171.4 140.1,185.1 167.4,185.1 	"/>
	<polygon points="153.8,226 153.8,239.4 167.4,239.4 167.4,252.7 194.7,252.7 194.7,239 167.4,239 167.4,225.7 153.8,225.7 
		153.8,198.7 140.1,198.7 140.1,226 	"/>
	<rect x="167.4" y="185.1" width="13.7" height="27.3"/>
	<path d="M208.3,225.7h38.2v-27.3H233v-13.3h-24.9v13.7h-13.3v13.7h13.7L208.3,225.7L208.3,225.7L208.3,225.7z M208.3,198.7H233V212
		h-24.5L208.3,198.7L208.3,198.7z"/>
	<rect x="233" y="239" width="13.7" height="27.3"/>
	<rect x="181" y="212.4" width="13.7" height="13.7"/>
	<rect x="194.7" y="252.7" width="13.7" height="13.7"/>
	<rect x="208.3" y="239" width="13.7" height="13.7"/>
	<polygon points="222,292.6 222,279.8 233,279.8 233,266.3 208.3,266.3 208.3,292.6 	"/>
	<rect x="140.1" y="239.4" width="13.7" height="26"/>
	<polygon points="167.4,292.6 167.4,278.9 180.7,278.9 180.7,292.6 194.4,292.6 194.4,278.9 181,278.9 181,265.3 153.8,265.3 
		153.8,292.6 	"/>
	<rect x="112.8" y="185.1" width="27.3" height="13.7"/>
</g>
<g>
	<path class="st1" d="M86.8,392.6c-3.3,0-5.8-0.9-7.6-2.6s-2.7-4.3-2.7-7.6h6.6c0,1.6,0.3,2.8,1,3.6c0.6,0.8,1.5,1.2,2.7,1.2
		c1,0,1.7-0.3,2.3-0.9c0.6-0.6,0.8-1.3,0.8-2.3c0-0.9-0.3-1.7-0.8-2.3c-0.5-0.6-1.3-1.2-2.4-1.8l-3.8-1.8c-2.1-1-3.6-2.2-4.6-3.6
		s-1.5-3.1-1.5-5.2c0-2.5,0.9-4.6,2.6-6.1s4-2.3,6.9-2.3c3.1,0,5.5,0.8,7.1,2.4c1.6,1.6,2.4,3.9,2.4,7h-6.5c0-2.8-1.1-4.2-3.2-4.2
		c-0.9,0-1.6,0.3-2.1,0.8s-0.8,1.2-0.8,2.1s0.3,1.6,0.8,2.2s1.4,1.2,2.7,1.8l4,2c2,1.1,3.4,2.2,4.3,3.6c0.9,1.3,1.3,3,1.3,4.9
		c0,2.7-0.9,4.9-2.6,6.6C92.1,391.8,89.8,392.6,86.8,392.6z"/>
	<path class="st1" d="M107.8,392.4c-3,0-5.4-1-7.1-2.9c-1.7-1.9-2.6-4.6-2.6-8c0-3.3,0.9-5.9,2.6-7.9c1.8-2,4.1-3,7-3
		s5.2,0.7,6.8,2.2c1.6,1.4,2.4,3.5,2.4,6.2h-6.1c-0.1-2.1-1.1-3.1-3-3.1c-1.1,0-2,0.5-2.6,1.5s-0.9,2.4-0.9,4.1
		c0,3.7,1.2,5.6,3.6,5.6c1.8,0,2.8-1,3-2.9h6.1c-0.1,2.7-1,4.7-2.6,6.1C112.8,391.6,110.6,392.4,107.8,392.4z"/>
	<path class="st1" d="M127.1,392.4c-2.5,0-4.5-1-5.9-3c-1.5-2-2.2-4.6-2.2-7.9s0.7-5.9,2.2-7.8c1.5-2,3.5-3,5.9-3
		c2.8,0,4.7,1.2,5.7,3.6v-3h6.3v20.5h-6.3v-3C131.7,391.1,129.8,392.4,127.1,392.4z M129.1,387.1c1.2,0,2.2-0.5,2.9-1.4
		c0.7-1,1-2.3,1-4.1s-0.3-3.1-1-4.1s-1.6-1.4-2.9-1.4c-1.3,0-2.2,0.5-2.9,1.4s-1,2.3-1,4.1c0,1.8,0.3,3.2,1,4.1
		S127.8,387.1,129.1,387.1z"/>
	<path class="st1" d="M143.2,391.8v-20.5h6.2v2.9c1.1-2.3,3.1-3.5,5.8-3.5c2,0,3.6,0.6,4.7,1.9c1.1,1.3,1.6,3.2,1.6,5.7v13.4h-6.3
		V380c0-1.4-0.2-2.5-0.6-3.1c-0.4-0.7-1.1-1-2.1-1c-2.1,0-3.1,1.6-3.1,4.7v11.1h-6.2L143.2,391.8L143.2,391.8z"/>
	<path class="st1" d="M173.9,391.8v-30h7.4l5.7,21.4l5.7-21.4h7.4v30h-6v-18.3l-4.9,18.3h-4.4l-4.9-18.3v18.3H173.9z"/>
	<path class="st1" d="M222.1,380.3c0,1.1-0.1,2-0.2,3h-12.6c0.1,1.4,0.4,2.5,1,3.3s1.5,1.2,2.7,1.2c1.7,0,2.7-0.7,3.1-2.1h5.6
		c-0.3,2.2-1.2,3.8-2.7,5s-3.5,1.8-6,1.8c-3.2,0-5.6-0.9-7.4-2.8c-1.7-1.9-2.6-4.5-2.6-8s0.9-6.1,2.6-8.1c1.7-1.9,4.1-2.9,7.2-2.9
		c2.9,0,5.2,0.9,6.8,2.6C221.3,374.9,222.1,377.4,222.1,380.3z M209.3,379.3h6.8c0-2.9-1.1-4.4-3.3-4.4S209.4,376.3,209.3,379.3z"/>
	<path class="st1" d="M240.6,390.9c-0.8,0.8-1.9,1.3-3.1,1.3s-2.2-0.4-3.1-1.3c-0.8-0.8-1.3-1.8-1.3-3s0.4-2.2,1.3-3
		c0.8-0.8,1.9-1.3,3.1-1.3s2.2,0.4,3.1,1.3c0.8,0.8,1.3,1.8,1.3,3S241.5,390.1,240.6,390.9z M234.4,381.4v-19.6h6.4v19.6H234.4z"/>
</g>
</svg>
