<?xml version="1.0" encoding="utf-8"?>
<!-- Generator: Adobe Illustrator 24.1.2, SVG Export Plug-In . SVG Version: 6.00 Build 0)  -->
<svg version="1.1" id="TEXTO" xmlns="http://www.w3.org/2000/svg" xmlns:xlink="http://www.w3.org/1999/xlink" x="0px" y="0px"
	 viewBox="0 0 320 418" style="enable-background:new 0 0 320 418;" xml:space="preserve">
<style type="text/css">
	.st0{fill:#585858;}
	.st1{fill:#E5E7EF;}
	.st2{fill:#FFFFFF;}
</style>
<path class="st0" d="M22.6,60.6l-0.1-11.8L285,5c6.9-0.6,12.4,4.5,12.5,11.3l0.1,44.2L22.6,60.6L22.6,60.6z"/>
<path d="M301.8,61.2V328H34.9V61.2H301.8 M301.8,48.8H22.5v291.7h279.3c6.9,0,12.4-5.6,12.4-12.4V61.2
	C314.2,54.3,308.6,48.8,301.8,48.8L301.8,48.8z"/>
<path d="M301.8,408.1H22.5v-80.6h291.7v68.2C314.2,402.6,308.6,408.1,301.8,408.1z"/>
<g>
	<path class="st0" d="M11.8,92.4h34.4c4.2,0,7.7,3.4,7.7,7.7v0.7c0,4.2-3.4,7.7-7.7,7.7H11.8c-4.3,0-7.7-3.5-7.7-7.8v-0.7
		C4.1,95.9,7.5,92.4,11.8,92.4z"/>
	<path class="st0" d="M11.8,177.7h34.4c4.2,0,7.7,3.4,7.7,7.7v0.7c0,4.2-3.4,7.7-7.7,7.7H11.8c-4.3,0-7.7-3.5-7.7-7.7v-0.7
		C4.1,181.2,7.5,177.7,11.8,177.7z"/>
	<path class="st0" d="M11.8,263h34.4c4.2,0,7.7,3.4,7.7,7.7v0.7c0,4.2-3.4,7.7-7.7,7.7H11.8c-4.3,0-7.7-3.5-7.7-7.8v-0.7
		C4.1,266.5,7.5,263,11.8,263z"/>
	<path class="st0" d="M11.8,348.3h34.4c4.2,0,7.7,3.4,7.7,7.7v0.7c0,4.2-3.4,7.7-7.7,7.7H11.8c-4.2,0-7.7-3.4-7.7-7.7V356
		C4.1,351.8,7.5,348.3,11.8,348.3z"/>
</g>
<g>
	<path class="st1" d="M73,80.6H274c6.9,0,12.5,5.5,12.5,12.5v201.1c0,6.9-5.5,12.5-12.5,12.5H73c-6.9,0-12.5-5.5-12.5-12.5V93
		C60.5,86.1,66.1,80.6,73,80.6z"/>
	<path d="M146.7,113.8h-53v53h53V113.8L146.7,113.8z M134.2,154.3h-28v-28.1h28V154.3z"/>
	<rect x="114" y="134.1" width="12.5" height="12.5"/>
	<path d="M253.2,113.8h-53v53h53V113.8z M240.8,154.3h-28.1v-28.1h28.1V154.3z"/>
	<rect x="220.5" y="134.1" width="12.5" height="12.5"/>
	<path d="M146.7,220.3h-53v53h53V220.3L146.7,220.3z M134.2,260.8h-28v-28h28V260.8z"/>
	<rect x="114" y="240.6" width="12.5" height="12.5"/>
	<rect x="106.2" y="175.1" width="12.5" height="12.5"/>
	<polygon points="130.8,200.1 130.8,212.5 143.2,212.5 143.2,200.1 131.1,200.1 131.1,187.6 118.7,187.6 118.7,200.1 	"/>
	<rect x="181" y="137.8" width="12.5" height="12.5"/>
	<rect x="156" y="126.2" width="12.5" height="24"/>
	<rect x="168.5" y="113.8" width="12.5" height="12.5"/>
	<polygon points="181,150.3 168.5,150.3 168.5,162.7 156,162.7 156,175.1 181,175.1 	"/>
	<polygon points="168.5,212.5 168.5,224.7 181,224.7 181,236.9 205.9,236.9 205.9,224.4 181,224.4 181,212.2 168.5,212.2 
		168.5,187.6 156,187.6 156,212.5 	"/>
	<rect x="181" y="175.1" width="12.5" height="25"/>
	<path d="M218.3,212.2h34.9v-25h-12.4v-12.1h-22.7v12.5h-12.1v12.5h12.5L218.3,212.2L218.3,212.2L218.3,212.2z M218.3,187.6h22.5
		v12.1h-22.4L218.3,187.6L218.3,187.6z"/>
	<rect x="240.8" y="224.4" width="12.5" height="25"/>
	<rect x="193.4" y="200.1" width="12.5" height="12.5"/>
	<rect x="205.9" y="236.9" width="12.5" height="12.5"/>
	<rect x="218.3" y="224.4" width="12.5" height="12.5"/>
	<polygon points="230.8,273.3 230.8,261.7 240.8,261.7 240.8,249.3 218.3,249.3 218.3,273.3 	"/>
	<rect x="156" y="224.7" width="12.5" height="23.7"/>
	<polygon points="181,273.3 181,260.8 193.1,260.8 193.1,273.3 205.6,273.3 205.6,260.8 193.4,260.8 193.4,248.4 168.5,248.4 
		168.5,273.3 	"/>
	<rect x="131.1" y="175.1" width="25" height="12.5"/>
</g>
<g>
	<path class="st2" d="M99.1,384.6c-3.3,0-5.8-0.9-7.6-2.6c-1.8-1.7-2.7-4.3-2.7-7.6h6.6c0,1.6,0.3,2.8,1,3.6
		c0.6,0.8,1.5,1.2,2.7,1.2c1,0,1.7-0.3,2.3-0.9c0.6-0.6,0.8-1.3,0.8-2.3c0-0.9-0.3-1.7-0.8-2.3c-0.5-0.6-1.3-1.2-2.4-1.8l-3.8-1.8
		c-2.1-1-3.6-2.2-4.6-3.6s-1.5-3.1-1.5-5.2c0-2.5,0.9-4.6,2.6-6.1s4-2.3,6.9-2.3c3.1,0,5.5,0.8,7.1,2.4s2.4,3.9,2.4,7h-6.5
		c0-2.8-1.1-4.2-3.2-4.2c-0.9,0-1.6,0.3-2.1,0.8s-0.8,1.2-0.8,2.1s0.3,1.6,0.8,2.2s1.4,1.2,2.7,1.8l4,2c2,1.1,3.4,2.2,4.3,3.6
		c0.9,1.3,1.3,3,1.3,4.9c0,2.7-0.9,4.9-2.6,6.6C104.4,383.8,102.1,384.6,99.1,384.6z"/>
	<path class="st2" d="M120.1,384.4c-3,0-5.4-1-7.1-2.9c-1.7-1.9-2.6-4.6-2.6-8c0-3.3,0.9-5.9,2.6-7.9c1.8-2,4.1-3,7-3
		s5.2,0.7,6.8,2.2c1.6,1.4,2.4,3.5,2.4,6.2h-6.1c-0.1-2.1-1.1-3.1-3-3.1c-1.1,0-2,0.5-2.6,1.5s-0.9,2.4-0.9,4.1
		c0,3.7,1.2,5.6,3.6,5.6c1.8,0,2.8-1,3-2.9h6.1c-0.1,2.7-1,4.7-2.6,6.1C125.1,383.6,122.9,384.4,120.1,384.4z"/>
	<path class="st2" d="M139.4,384.4c-2.5,0-4.5-1-5.9-3c-1.5-2-2.2-4.6-2.2-7.9s0.7-5.9,2.2-7.8c1.5-2,3.5-3,5.9-3
		c2.8,0,4.7,1.2,5.7,3.6v-3h6.3v20.5h-6.3v-3C144,383.1,142.1,384.4,139.4,384.4z M141.4,379.1c1.2,0,2.2-0.5,2.9-1.4
		c0.7-1,1-2.3,1-4.1s-0.3-3.1-1-4.1c-0.7-1-1.6-1.4-2.9-1.4c-1.3,0-2.2,0.5-2.9,1.4c-0.7,0.9-1,2.3-1,4.1c0,1.8,0.3,3.2,1,4.1
		C139.2,378.6,140.1,379.1,141.4,379.1z"/>
	<path class="st2" d="M155.5,383.8v-20.5h6.2v2.9c1.1-2.3,3.1-3.5,5.8-3.5c2,0,3.6,0.6,4.7,1.9c1.1,1.3,1.6,3.2,1.6,5.7v13.4h-6.3
		V372c0-1.4-0.2-2.5-0.6-3.1c-0.4-0.7-1.1-1-2.1-1c-2.1,0-3.1,1.6-3.1,4.7v11.1h-6.2L155.5,383.8L155.5,383.8z"/>
	<path class="st2" d="M186.2,383.8v-30h7.4l5.7,21.4l5.7-21.4h7.4v30h-6v-18.3l-4.9,18.3h-4.4l-4.9-18.3v18.3H186.2z"/>
	<path class="st2" d="M234.4,372.3c0,1.1-0.1,2-0.2,3h-12.6c0.1,1.4,0.4,2.5,1,3.3s1.5,1.2,2.7,1.2c1.7,0,2.7-0.7,3.1-2.1h5.6
		c-0.3,2.2-1.2,3.8-2.7,5s-3.5,1.8-6,1.8c-3.2,0-5.6-0.9-7.4-2.8c-1.7-1.9-2.6-4.5-2.6-8s0.9-6.1,2.6-8.1c1.7-1.9,4.1-2.9,7.2-2.9
		c2.9,0,5.2,0.9,6.8,2.6C233.6,366.9,234.4,369.4,234.4,372.3z M221.6,371.3h6.8c0-2.9-1.1-4.4-3.3-4.4
		C222.9,366.9,221.7,368.3,221.6,371.3z"/>
	<path class="st2" d="M252.9,382.9c-0.8,0.8-1.9,1.3-3.1,1.3s-2.2-0.4-3.1-1.3c-0.8-0.8-1.3-1.8-1.3-3s0.4-2.2,1.3-3
		c0.8-0.8,1.9-1.3,3.1-1.3s2.2,0.4,3.1,1.3c0.8,0.8,1.3,1.8,1.3,3S253.8,382.1,252.9,382.9z M246.7,373.4v-19.6h6.4v19.6H246.7z"/>
</g>
</svg>
