<?xml version="1.0" encoding="utf-8"?>
<!-- Generator: Adobe Illustrator 24.1.2, SVG Export Plug-In . SVG Version: 6.00 Build 0)  -->
<svg version="1.1" id="Layer_1" xmlns="http://www.w3.org/2000/svg" xmlns:xlink="http://www.w3.org/1999/xlink" x="0px" y="0px"
	 viewBox="0 0 320 418" style="enable-background:new 0 0 320 418;" xml:space="preserve">
<style type="text/css">
	.st0{fill:#585858;}
	.st1{fill:#E5E7EF;}
	.st2{fill:#FFFFFF;}
</style>
<g id="Layer_1_1_">
	<path d="M283.8,92.4c-0.2,0-0.3,0-0.5,0s-0.3,0-0.5-0.1c-0.2,0-0.3-0.1-0.4-0.1c-0.2,0-0.3-0.1-0.4-0.2c-0.2-0.1-0.3-0.1-0.4-0.2
		c-0.1-0.1-0.3-0.2-0.4-0.3c-0.1-0.1-0.3-0.2-0.4-0.3c-0.1-0.1-0.3-0.2-0.4-0.3c-0.1-0.1-0.2-0.2-0.3-0.4c-0.1-0.1-0.2-0.3-0.3-0.4
		c-0.1-0.1-0.2-0.3-0.3-0.4c-0.1-0.1-0.1-0.3-0.2-0.4c-0.1-0.2-0.1-0.3-0.2-0.4c0-0.2-0.1-0.3-0.1-0.4c0-0.2-0.1-0.3-0.1-0.5
		c0-0.2,0-0.3,0-0.5c0-0.2,0-0.3,0-0.5c0-0.2,0-0.3,0.1-0.5c0-0.2,0.1-0.3,0.1-0.4c0.1-0.2,0.1-0.3,0.2-0.4c0.1-0.2,0.1-0.3,0.2-0.4
		c0.1-0.1,0.2-0.3,0.3-0.4c0.1-0.1,0.2-0.3,0.3-0.4c0.1-0.1,0.2-0.3,0.3-0.4c0.9-0.9,2.1-1.4,3.4-1.4s2.5,0.5,3.4,1.4
		c0.1,0.1,0.2,0.2,0.3,0.4c0.1,0.1,0.2,0.3,0.3,0.4c0.1,0.1,0.2,0.3,0.3,0.4c0.1,0.1,0.1,0.3,0.2,0.4c0.1,0.2,0.1,0.3,0.2,0.4
		c0,0.2,0.1,0.3,0.1,0.4c0,0.2,0.1,0.3,0.1,0.5c0,0.2,0,0.3,0,0.5c0,0.2,0,0.3,0,0.5c0,0.2,0,0.3-0.1,0.5c0,0.2-0.1,0.3-0.1,0.4
		c-0.1,0.1-0.1,0.3-0.2,0.4c-0.1,0.2-0.1,0.3-0.2,0.4s-0.2,0.3-0.3,0.4c-0.1,0.1-0.2,0.3-0.3,0.4c-0.1,0.1-0.2,0.2-0.3,0.4
		c-0.1,0.1-0.2,0.2-0.4,0.3c-0.1,0.1-0.3,0.2-0.4,0.3c-0.1,0.1-0.3,0.2-0.4,0.3c-0.1,0.1-0.3,0.1-0.4,0.2c-0.2,0.1-0.3,0.1-0.4,0.2
		c-0.2,0-0.3,0.1-0.4,0.1c-0.2,0-0.3,0.1-0.5,0.1C284.1,92.4,284,92.4,283.8,92.4z"/>
</g>
<path class="st0" d="M127.8,150.8c-3,0-5.6-2.1-6.3-5.1L99.1,38.2c-1.1-4.9-4.8-9-9.6-10.6h0L47.6,13.5c-3.3-1.1-5.2-4.7-4-8.1
	c1.1-3.4,4.8-5.2,8.1-4l41.8,14.1c9.1,3,16,10.7,18.1,20c0,0,0,0.1,0,0.1L134.1,143c0.7,3.5-1.5,6.9-5,7.6
	C128.6,150.7,128.2,150.8,127.8,150.8L127.8,150.8z"/>
<path d="M17.2,71.3h143.3h143c1.8,0.1,2.8,1,3.1,1.3c0.4,0.4,0.6,0.8,0.6,1.2c-3.5,56.4-7.7,112-12.3,165.2v0v0
	c-0.5,6.7-1.1,13.4-1.7,19.9c-4.1,48.5-7.9,94.4-7.8,142.3c0,1.9-1.2,3.2-1.9,3.2H38c-1.3-0.2-3.3-2.3-3.4-5.1v-0.1v-0.1
	c-1-19.6-1.8-38.7-2.7-57c-1.7-37-3.2-71.9-5.6-107.4c-1.9-30.1-4.5-61-6.9-90.9c-1.9-22.8-3.8-46.4-5.5-69.8
	c0.1-0.9,0.5-1.5,0.9-1.9C15.1,71.9,15.9,71.3,17.2,71.3 M303.8,58.5c-47.8,0-95.5,0-143.3,0s-95.5,0-143.3,0c-9,0-16.2,7.1-16.1,16
	c3.9,54.6,9.1,108.2,12.5,161.1c3.6,53.2,5.3,105.7,8.3,164.2c0.3,9.2,7.4,17.1,15.8,17.5h245.8c8.1,0,14.6-7.2,14.7-16
	c-0.1-54,5-106.5,9.4-161.2c4.7-54.4,8.9-110.8,12.4-165.7C320.3,66,313.1,58.8,303.8,58.5L303.8,58.5L303.8,58.5z"/>
<path d="M16,108.6l11.1,269.9c0,21.1,4.2,30.8,14.2,30.8h238.9c10,0,14-12.3,14-24.3l10.8-267c0,0-27.1-6.7-64.9-4.1
	c-31.5,2.2-91.5,9.6-123.1,9.2C75.8,122.6,16,108.6,16,108.6L16,108.6z"/>
<path d="M265.6,92.4h-49.4c-2.7,0-4.8-2.1-4.8-4.8s2.1-4.8,4.8-4.8h49.4c2.7,0,4.8,2.1,4.8,4.8S268.2,92.4,265.6,92.4z"/>
<g>
	<path d="M132.8,166.3H78.3v54.4h54.4V166.3z M120,207.9H91.1v-28.8H120V207.9z"/>
	<rect x="99.1" y="187.1" width="12.8" height="12.8"/>
	<path d="M242.3,166.3h-54.4v54.4h54.4V166.3z M229.5,207.9h-28.8v-28.8h28.8V207.9z"/>
	<rect x="208.7" y="187.1" width="12.8" height="12.8"/>
	<path d="M132.8,275.8H78.3v54.4h54.4V275.8z M120,317.5H91.1v-28.8H120V317.5z"/>
	<rect x="99.1" y="296.7" width="12.8" height="12.8"/>
	<rect x="91.1" y="229.4" width="12.8" height="12.8"/>
	<polygon points="116.4,255 116.4,267.8 129.3,267.8 129.3,255 116.8,255 116.8,242.2 104,242.2 104,255 	"/>
	<rect x="168" y="191" width="12.8" height="12.8"/>
	<rect x="142.4" y="179.1" width="12.8" height="24.7"/>
	<rect x="155.2" y="166.3" width="12.8" height="12.8"/>
	<polygon points="168,203.8 155.2,203.8 155.2,216.6 142.4,216.6 142.4,229.4 168,229.4 	"/>
	<polygon points="155.2,267.8 155.2,280.3 168,280.3 168,292.8 193.6,292.8 193.6,280 168,280 168,267.5 155.2,267.5 155.2,242.2 
		142.4,242.2 142.4,267.8 	"/>
	<rect x="168" y="229.4" width="12.8" height="25.6"/>
	<path d="M206.4,267.5h35.9v-25.6h-12.8v-12.5h-23.4v12.8h-12.5V255h12.8V267.5z M206.4,242.2h23.1v12.5h-23.1V242.2z"/>
	<rect x="229.5" y="280" width="12.8" height="25.6"/>
	<rect x="180.8" y="255" width="12.8" height="12.8"/>
	<rect x="193.6" y="292.8" width="12.8" height="12.8"/>
	<rect x="206.4" y="280" width="12.8" height="12.8"/>
	<polygon points="219.3,330.3 219.3,318.4 229.5,318.4 229.5,305.6 206.4,305.6 206.4,330.3 	"/>
	<rect x="142.4" y="280.3" width="12.8" height="24.3"/>
	<polygon points="168,330.3 168,317.5 180.5,317.5 180.5,330.3 193.3,330.3 193.3,317.5 180.8,317.5 180.8,304.7 155.2,304.7 
		155.2,330.3 	"/>
	<rect x="116.8" y="229.4" width="25.6" height="12.8"/>
	<rect x="78.3" y="242.2" width="12.8" height="25.6"/>
</g>
<g>
	<path class="st1" d="M67.8,143.2h182.9c6.2,0,11.3,5,11.3,11.3v182.9c0,6.2-5,11.3-11.3,11.3H67.8c-6.2,0-11.3-5-11.3-11.3V154.4
		C56.5,148.2,61.6,143.2,67.8,143.2z"/>
	<path d="M134.9,173.4H86.7v48.2h48.2V173.4L134.9,173.4z M123.5,210.2H98v-25.6h25.5V210.2z"/>
	<rect x="105.1" y="191.8" width="11.3" height="11.3"/>
	<path d="M231.7,173.4h-48.2v48.2h48.2V173.4z M220.5,210.2h-25.6v-25.6h25.6V210.2z"/>
	<rect x="202" y="191.8" width="11.3" height="11.3"/>
	<path d="M134.9,270.3H86.7v48.2h48.2V270.3L134.9,270.3z M123.5,307.1H98v-25.5h25.5V307.1z"/>
	<rect x="105.1" y="288.7" width="11.3" height="11.3"/>
	<rect x="98" y="229.1" width="11.3" height="11.3"/>
	<polygon points="120.4,251.8 120.4,263.1 131.7,263.1 131.7,251.8 120.7,251.8 120.7,240.5 109.4,240.5 109.4,251.8 	"/>
	<rect x="166.1" y="195.2" width="11.3" height="11.3"/>
	<rect x="143.4" y="184.7" width="11.3" height="21.8"/>
	<rect x="154.7" y="173.4" width="11.3" height="11.3"/>
	<polygon points="166.1,206.5 154.7,206.5 154.7,217.8 143.4,217.8 143.4,229.1 166.1,229.1 	"/>
	<polygon points="154.7,263.1 154.7,274.2 166.1,274.2 166.1,285.3 188.7,285.3 188.7,273.9 166.1,273.9 166.1,262.9 154.7,262.9 
		154.7,240.5 143.4,240.5 143.4,263.1 	"/>
	<rect x="166.1" y="229.1" width="11.3" height="22.7"/>
	<path d="M200,262.9h31.7v-22.7h-11.3v-11h-20.7v11.3h-11v11.3h11.3L200,262.9L200,262.9L200,262.9z M200,240.5h20.4v11h-20.4
		L200,240.5L200,240.5z"/>
	<rect x="220.5" y="273.9" width="11.3" height="22.7"/>
	<rect x="177.3" y="251.8" width="11.3" height="11.3"/>
	<rect x="188.7" y="285.3" width="11.3" height="11.3"/>
	<rect x="200" y="273.9" width="11.3" height="11.3"/>
	<polygon points="211.4,318.4 211.4,307.8 220.5,307.8 220.5,296.6 200,296.6 200,318.4 	"/>
	<rect x="143.4" y="274.2" width="11.3" height="21.6"/>
	<polygon points="166.1,318.4 166.1,307.1 177.1,307.1 177.1,318.4 188.4,318.4 188.4,307.1 177.3,307.1 177.3,295.7 154.7,295.7 
		154.7,318.4 	"/>
	<rect x="120.7" y="229.1" width="22.7" height="11.3"/>
</g>
<g>
	<path class="st2" d="M86.8,397.2c-3.3,0-5.8-0.9-7.6-2.6s-2.7-4.3-2.7-7.6h6.6c0,1.6,0.3,2.8,1,3.6c0.6,0.8,1.5,1.2,2.7,1.2
		c1,0,1.7-0.3,2.3-0.9c0.6-0.6,0.8-1.3,0.8-2.3c0-0.9-0.3-1.7-0.8-2.3c-0.5-0.6-1.3-1.2-2.4-1.8l-3.8-1.8c-2.1-1-3.6-2.2-4.6-3.6
		s-1.5-3.1-1.5-5.2c0-2.5,0.9-4.6,2.6-6.1s4-2.3,6.9-2.3c3.1,0,5.5,0.8,7.1,2.4c1.6,1.6,2.4,3.9,2.4,7h-6.5c0-2.8-1.1-4.2-3.2-4.2
		c-0.9,0-1.6,0.3-2.1,0.8s-0.8,1.2-0.8,2.1s0.3,1.6,0.8,2.2s1.4,1.2,2.7,1.8l4,2c2,1.1,3.4,2.2,4.3,3.6c0.9,1.3,1.3,3,1.3,4.9
		c0,2.7-0.9,4.9-2.6,6.6C92.1,396.4,89.8,397.2,86.8,397.2z"/>
	<path class="st2" d="M107.8,397c-3,0-5.4-1-7.1-2.9c-1.7-1.9-2.6-4.6-2.6-8c0-3.3,0.9-5.9,2.6-7.9c1.8-2,4.1-3,7-3s5.2,0.7,6.8,2.2
		c1.6,1.4,2.4,3.5,2.4,6.2h-6.1c-0.1-2.1-1.1-3.1-3-3.1c-1.1,0-2,0.5-2.6,1.5s-0.9,2.4-0.9,4.1c0,3.7,1.2,5.6,3.6,5.6
		c1.8,0,2.8-1,3-2.9h6.1c-0.1,2.7-1,4.7-2.6,6.1C112.8,396.2,110.6,397,107.8,397z"/>
	<path class="st2" d="M127.1,397c-2.5,0-4.5-1-5.9-3c-1.5-2-2.2-4.6-2.2-7.9s0.7-5.9,2.2-7.8c1.5-2,3.5-3,5.9-3
		c2.8,0,4.7,1.2,5.7,3.6v-3h6.3v20.5h-6.3v-3C131.7,395.7,129.8,397,127.1,397z M129.1,391.7c1.2,0,2.2-0.5,2.9-1.4
		c0.7-1,1-2.3,1-4.1s-0.3-3.1-1-4.1s-1.6-1.4-2.9-1.4c-1.3,0-2.2,0.5-2.9,1.4s-1,2.3-1,4.1c0,1.8,0.3,3.2,1,4.1
		S127.8,391.7,129.1,391.7z"/>
	<path class="st2" d="M143.2,396.4v-20.5h6.2v2.9c1.1-2.3,3.1-3.5,5.8-3.5c2,0,3.6,0.6,4.7,1.9c1.1,1.3,1.6,3.2,1.6,5.7v13.4h-6.3
		v-11.7c0-1.4-0.2-2.5-0.6-3.1c-0.4-0.7-1.1-1-2.1-1c-2.1,0-3.1,1.6-3.1,4.7v11.1h-6.2L143.2,396.4L143.2,396.4z"/>
	<path class="st2" d="M173.9,396.4v-30h7.4l5.7,21.4l5.7-21.4h7.4v30h-6v-18.3l-4.9,18.3h-4.4l-4.9-18.3v18.3H173.9z"/>
	<path class="st2" d="M222.1,384.9c0,1.1-0.1,2-0.2,3h-12.6c0.1,1.4,0.4,2.5,1,3.3s1.5,1.2,2.7,1.2c1.7,0,2.7-0.7,3.1-2.1h5.6
		c-0.3,2.2-1.2,3.8-2.7,5s-3.5,1.8-6,1.8c-3.2,0-5.6-0.9-7.4-2.8c-1.7-1.9-2.6-4.5-2.6-8s0.9-6.1,2.6-8.1c1.7-1.9,4.1-2.9,7.2-2.9
		c2.9,0,5.2,0.9,6.8,2.6C221.3,379.5,222.1,382,222.1,384.9z M209.3,383.9h6.8c0-2.9-1.1-4.4-3.3-4.4S209.4,380.9,209.3,383.9z"/>
	<path class="st2" d="M240.6,395.5c-0.8,0.8-1.9,1.3-3.1,1.3s-2.2-0.4-3.1-1.3c-0.8-0.8-1.3-1.8-1.3-3s0.4-2.2,1.3-3
		c0.8-0.8,1.9-1.3,3.1-1.3s2.2,0.4,3.1,1.3c0.8,0.8,1.3,1.8,1.3,3S241.5,394.7,240.6,395.5z M234.4,386v-19.6h6.4V386H234.4z"/>
</g>
</svg>
