<?xml version="1.0" encoding="utf-8"?>
<!-- Generator: Adobe Illustrator 24.1.2, SVG Export Plug-In . SVG Version: 6.00 Build 0)  -->
<svg version="1.1" id="TEXTO" xmlns="http://www.w3.org/2000/svg" xmlns:xlink="http://www.w3.org/1999/xlink" x="0px" y="0px"
	 viewBox="0 0 320 418" style="enable-background:new 0 0 320 418;" xml:space="preserve">
<style type="text/css">
	.st0{fill:#585858;}
	.st1{fill:#FFFFFF;}
	.st2{fill:#E5E7EF;}
</style>
<ellipse class="st0" cx="160" cy="29.1" rx="26.5" ry="24.4"/>
<ellipse cx="160" cy="116.4" rx="135.7" ry="91"/>
<ellipse cx="160" cy="150.1" rx="141.2" ry="71.5"/>
<g>
	<path d="M310.6,351.6c0-10.1,0-27.9,0-27.9l-301-2.9c0,0-0.3,18.4-0.3,30.8c0,34.1,67.4,61.7,150.6,61.7S310.6,385.7,310.6,351.6
		L310.6,351.6z"/>
	<ellipse class="st0" cx="160" cy="308.5" rx="157.2" ry="79.6"/>
	<ellipse cx="160" cy="300.2" rx="141.2" ry="71.5"/>
</g>
<path class="st1" d="M269.2,305.2H50.8V99.3c0-6.9,5.6-12.6,12.6-12.6h193.3c6.9,0,12.6,5.6,12.6,12.6V305.2z"/>
<path d="M260.8,92c1.7,0,3.1,1.4,3.1,3.1v204.8H56V95.1c0-1.7,1.4-3.1,3.1-3.1H260.8 M260.8,82.5H59.2c-6.9,0-12.6,5.6-12.6,12.6
	v214.2h226.8V95.1C273.4,88.2,267.8,82.5,260.8,82.5L260.8,82.5z"/>
<path class="st0" d="M160,62.2C73.2,62.2,2.8,97.8,2.8,141.8c0,21.4,16.7,40.8,43.8,55.1v-4.1c-17.5-11.9-27.9-26.7-27.9-42.7
	c0-39.5,63.2-71.6,141.2-71.6s141.2,32.1,141.2,71.6c0,16-10.3,30.7-27.8,42.7v4.1c27.1-14.3,43.8-33.7,43.8-55.1
	C317.2,97.8,246.8,62.2,160,62.2L160,62.2z"/>
<g>
	<path class="st2" d="M80.7,106h157.1c5.4,0,9.7,4.3,9.7,9.7v157.1c0,5.4-4.3,9.7-9.7,9.7H80.7c-5.4,0-9.7-4.3-9.7-9.7V115.7
		C71,110.3,75.4,106,80.7,106z"/>
	<path d="M138.3,132H96.9v41.4h41.4V132L138.3,132z M128.6,163.6h-21.9v-21.9h21.9V163.6z"/>
	<rect x="112.7" y="147.8" width="9.7" height="9.7"/>
	<path d="M221.5,132h-41.4v41.4h41.4V132z M211.8,163.6h-21.9v-21.9h21.9V163.6z"/>
	<rect x="195.9" y="147.8" width="9.7" height="9.7"/>
	<path d="M138.3,215.2H96.9v41.4h41.4V215.2L138.3,215.2z M128.6,246.8h-21.9v-21.9h21.9V246.8z"/>
	<rect x="112.7" y="231" width="9.7" height="9.7"/>
	<rect x="106.7" y="179.9" width="9.7" height="9.7"/>
	<polygon points="125.9,199.4 125.9,209 135.6,209 135.6,199.4 126.1,199.4 126.1,189.6 116.4,189.6 116.4,199.4 	"/>
	<rect x="165.1" y="150.7" width="9.7" height="9.7"/>
	<rect x="145.6" y="141.7" width="9.7" height="18.7"/>
	<rect x="155.3" y="132" width="9.7" height="9.7"/>
	<polygon points="165.1,160.4 155.3,160.4 155.3,170.1 145.6,170.1 145.6,179.9 165.1,179.9 	"/>
	<polygon points="155.3,209 155.3,218.6 165.1,218.6 165.1,228.1 184.5,228.1 184.5,218.3 165.1,218.3 165.1,208.9 155.3,208.9 
		155.3,189.6 145.6,189.6 145.6,209 	"/>
	<rect x="165.1" y="179.9" width="9.7" height="19.5"/>
	<path d="M194.3,208.9h27.2v-19.5h-9.7v-9.5h-17.8v9.7h-9.5v9.7h9.7L194.3,208.9L194.3,208.9L194.3,208.9z M194.3,189.6h17.6v9.5
		h-17.5L194.3,189.6L194.3,189.6z"/>
	<rect x="211.8" y="218.3" width="9.7" height="19.5"/>
	<rect x="174.8" y="199.4" width="9.7" height="9.7"/>
	<rect x="184.5" y="228.1" width="9.7" height="9.7"/>
	<rect x="194.3" y="218.3" width="9.7" height="9.7"/>
	<polygon points="204,256.6 204,247.5 211.8,247.5 211.8,237.8 194.3,237.8 194.3,256.6 	"/>
	<rect x="145.6" y="218.6" width="9.7" height="18.5"/>
	<polygon points="165.1,256.6 165.1,246.8 174.6,246.8 174.6,256.6 184.3,256.6 184.3,246.8 174.8,246.8 174.8,237.1 155.3,237.1 
		155.3,256.6 	"/>
	<rect x="126.1" y="179.9" width="19.5" height="9.7"/>
</g>
<g>
	<path class="st1" d="M86.8,344.6c-3.3,0-5.8-0.9-7.6-2.6s-2.7-4.3-2.7-7.6h6.6c0,1.6,0.3,2.8,1,3.6c0.6,0.8,1.5,1.2,2.7,1.2
		c1,0,1.7-0.3,2.3-0.9c0.6-0.6,0.8-1.3,0.8-2.3c0-0.9-0.3-1.7-0.8-2.3c-0.5-0.6-1.3-1.2-2.4-1.8l-3.8-1.8c-2.1-1-3.6-2.2-4.6-3.6
		s-1.5-3.1-1.5-5.2c0-2.5,0.9-4.6,2.6-6.1s4-2.3,6.9-2.3c3.1,0,5.5,0.8,7.1,2.4c1.6,1.6,2.4,3.9,2.4,7h-6.5c0-2.8-1.1-4.2-3.2-4.2
		c-0.9,0-1.6,0.3-2.1,0.8s-0.8,1.2-0.8,2.1s0.3,1.6,0.8,2.2s1.4,1.2,2.7,1.8l4,2c2,1.1,3.4,2.2,4.3,3.6c0.9,1.3,1.3,3,1.3,4.9
		c0,2.7-0.9,4.9-2.6,6.6C92.1,343.8,89.8,344.6,86.8,344.6z"/>
	<path class="st1" d="M107.8,344.4c-3,0-5.4-1-7.1-2.9c-1.7-1.9-2.6-4.6-2.6-8c0-3.3,0.9-5.9,2.6-7.9c1.8-2,4.1-3,7-3
		s5.2,0.7,6.8,2.2c1.6,1.4,2.4,3.5,2.4,6.2h-6.1c-0.1-2.1-1.1-3.1-3-3.1c-1.1,0-2,0.5-2.6,1.5s-0.9,2.4-0.9,4.1
		c0,3.7,1.2,5.6,3.6,5.6c1.8,0,2.8-1,3-2.9h6.1c-0.1,2.7-1,4.7-2.6,6.1C112.8,343.6,110.6,344.4,107.8,344.4z"/>
	<path class="st1" d="M127.1,344.4c-2.5,0-4.5-1-5.9-3c-1.5-2-2.2-4.6-2.2-7.9s0.7-5.9,2.2-7.8c1.5-2,3.5-3,5.9-3
		c2.8,0,4.7,1.2,5.7,3.6v-3h6.3v20.5h-6.3v-3C131.7,343.1,129.8,344.4,127.1,344.4z M129.1,339.1c1.2,0,2.2-0.5,2.9-1.4
		c0.7-1,1-2.3,1-4.1s-0.3-3.1-1-4.1s-1.6-1.4-2.9-1.4c-1.3,0-2.2,0.5-2.9,1.4s-1,2.3-1,4.1c0,1.8,0.3,3.2,1,4.1
		S127.8,339.1,129.1,339.1z"/>
	<path class="st1" d="M143.2,343.8v-20.5h6.2v2.9c1.1-2.3,3.1-3.5,5.8-3.5c2,0,3.6,0.6,4.7,1.9c1.1,1.3,1.6,3.2,1.6,5.7v13.4h-6.3
		V332c0-1.4-0.2-2.5-0.6-3.1c-0.4-0.7-1.1-1-2.1-1c-2.1,0-3.1,1.6-3.1,4.7v11.1h-6.2L143.2,343.8L143.2,343.8z"/>
	<path class="st1" d="M173.9,343.8v-30h7.4l5.7,21.4l5.7-21.4h7.4v30h-6v-18.3l-4.9,18.3h-4.4l-4.9-18.3v18.3H173.9z"/>
	<path class="st1" d="M222.1,332.3c0,1.1-0.1,2-0.2,3h-12.6c0.1,1.4,0.4,2.5,1,3.3s1.5,1.2,2.7,1.2c1.7,0,2.7-0.7,3.1-2.1h5.6
		c-0.3,2.2-1.2,3.8-2.7,5s-3.5,1.8-6,1.8c-3.2,0-5.6-0.9-7.4-2.8c-1.7-1.9-2.6-4.5-2.6-8s0.9-6.1,2.6-8.1c1.7-1.9,4.1-2.9,7.2-2.9
		c2.9,0,5.2,0.9,6.8,2.6C221.3,326.9,222.1,329.4,222.1,332.3z M209.3,331.3h6.8c0-2.9-1.1-4.4-3.3-4.4S209.4,328.3,209.3,331.3z"/>
	<path class="st1" d="M240.6,342.9c-0.8,0.8-1.9,1.3-3.1,1.3s-2.2-0.4-3.1-1.3c-0.8-0.8-1.3-1.8-1.3-3s0.4-2.2,1.3-3
		c0.8-0.8,1.9-1.3,3.1-1.3s2.2,0.4,3.1,1.3c0.8,0.8,1.3,1.8,1.3,3S241.5,342.1,240.6,342.9z M234.4,333.4v-19.6h6.4v19.6H234.4z"/>
</g>
</svg>
