<?xml version="1.0" encoding="utf-8"?>
<!-- Generator: Adobe Illustrator 24.1.2, SVG Export Plug-In . SVG Version: 6.00 Build 0)  -->
<svg version="1.1" id="TEXTO" xmlns="http://www.w3.org/2000/svg" xmlns:xlink="http://www.w3.org/1999/xlink" x="0px" y="0px"
	 viewBox="0 0 320 418" style="enable-background:new 0 0 320 418;" xml:space="preserve">
<style type="text/css">
	.st0{fill:#E5E7EF;}
	.st1{fill:#FFFFFF;}
</style>
<path d="M251.1,160.3c3.6,0,6.5,2.9,6.5,6.5v188.6H62.5V166.8c0-3.6,2.9-6.5,6.5-6.5L251.1,160.3 M251.1,150.8H69
	c-8.9,0-16,7.2-16,16v198.1h214.1V166.8C267.1,158,259.9,150.8,251.1,150.8L251.1,150.8z"/>
<path d="M251.1,410.2H69c-8.9,0-16-7.2-16-16v-37.5h214.1v37.5C267.1,403.1,259.9,410.2,251.1,410.2z"/>
<g>
	<g>
		<path d="M206.6,109.2c-6.7,0-13.3-1.7-19.1-4.8c-2.1-1.1-2.8-3.7-1.7-5.8c1.1-2.1,3.7-2.8,5.8-1.7c4.6,2.5,9.8,3.8,15,3.8
			c17.3,0,31.4-14.1,31.4-31.4s-14.1-31.4-31.4-31.4c-4,0-7.8,0.7-11.5,2.2c0,0,0,0,0,0l-0.1,0c-2.2,0.9-4.7-0.2-5.6-2.4
			c-0.1-0.3-0.2-0.5-0.2-0.8c-5.1-11.3-16.2-18.6-28.7-18.6c-12.5,0-24.3,7.7-29.2,19.7c-0.9,2.2-3.3,3.2-5.5,2.4l-0.6-0.2
			c0,0-0.1,0-0.1,0c-3.7-1.5-7.6-2.2-11.6-2.2C96.1,37.7,82,51.8,82,69.2s14.1,31.4,31.4,31.4c5.2,0,10.4-1.3,15-3.8
			c2.1-1.1,4.7-0.4,5.8,1.7c1.1,2.1,0.4,4.7-1.7,5.8c-5.8,3.1-12.4,4.8-19.1,4.8c-22.1,0-40-17.9-40-40s17.9-40,40-40
			c4,0,7.9,0.6,11.6,1.7c3-5.7,7.4-10.6,12.7-14.3c6.7-4.6,14.5-7,22.6-7c14.9,0,28.3,8.1,35.2,21.1c3.5-1,7.2-1.5,10.9-1.5
			c22.1,0,40,18,40,40S228.6,109.2,206.6,109.2L206.6,109.2z"/>
		<path d="M212,155.8c-2.6,0-4.8-2.1-4.8-4.8v-46.2c0-2.6,2.1-4.8,4.8-4.8s4.8,2.1,4.8,4.8v46.2C216.8,153.7,214.7,155.8,212,155.8z
			"/>
		<path d="M108.6,155.8c-2.6,0-4.8-2.1-4.8-4.8v-46.2c0-2.6,2.1-4.8,4.8-4.8c2.6,0,4.8,2.1,4.8,4.8v46.2
			C113.4,153.7,111.3,155.8,108.6,155.8z"/>
	</g>
	<g>
		<path d="M160,142.2c-1.6,0-2.8-1.3-2.8-2.8v-21.9c0-1.6,1.3-2.8,2.8-2.8c1.6,0,2.8,1.3,2.8,2.8v21.9
			C162.9,140.9,161.6,142.2,160,142.2z"/>
		<path d="M136.9,142.2c-1.6,0-2.8-1.3-2.8-2.8v-21.9c0-1.6,1.3-2.8,2.8-2.8c1.6,0,2.8,1.3,2.8,2.8v21.9
			C139.7,140.9,138.4,142.2,136.9,142.2z"/>
		<path d="M183.2,142.2c-1.6,0-2.8-1.3-2.8-2.8v-21.9c0-1.6,1.3-2.8,2.8-2.8s2.8,1.3,2.8,2.8v21.9
			C186.1,140.9,184.8,142.2,183.2,142.2z"/>
	</g>
</g>
<path d="M211.7,142.8H108.3c-1.6,0-2.8-1.3-2.8-2.8c0-1.6,1.3-2.8,2.8-2.8h103.4c1.6,0,2.8,1.3,2.8,2.8
	C214.6,141.5,213.3,142.8,211.7,142.8z"/>
<g>
	<path class="st0" d="M82.5,171.4H236c5.2,0,9.5,4.2,9.5,9.5v153.4c0,5.2-4.2,9.5-9.5,9.5H82.5c-5.2,0-9.5-4.2-9.5-9.5V180.9
		C73,175.6,77.3,171.4,82.5,171.4z"/>
	<path d="M138.8,196.8H98.4v40.4h40.4V196.8L138.8,196.8z M129.3,227.7h-21.4v-21.4h21.4V227.7z"/>
	<rect x="113.8" y="212.2" width="9.5" height="9.5"/>
	<path d="M220.1,196.8h-40.4v40.4h40.4V196.8z M210.6,227.7h-21.4v-21.4h21.4V227.7z"/>
	<rect x="195.1" y="212.2" width="9.5" height="9.5"/>
	<path d="M138.8,278H98.4v40.4h40.4V278L138.8,278z M129.3,308.9h-21.4v-21.4h21.4V308.9z"/>
	<rect x="113.8" y="293.5" width="9.5" height="9.5"/>
	<rect x="107.9" y="243.6" width="9.5" height="9.5"/>
	<polygon points="126.7,262.6 126.7,272.1 136.1,272.1 136.1,262.6 126.9,262.6 126.9,253.1 117.4,253.1 117.4,262.6 	"/>
	<rect x="165" y="215.1" width="9.5" height="9.5"/>
	<rect x="145.9" y="206.2" width="9.5" height="18.3"/>
	<rect x="155.4" y="196.8" width="9.5" height="9.5"/>
	<polygon points="165,224.6 155.4,224.6 155.4,234 145.9,234 145.9,243.6 165,243.6 	"/>
	<polygon points="155.4,272.1 155.4,281.4 165,281.4 165,290.7 183.9,290.7 183.9,281.1 165,281.1 165,271.9 155.4,271.9 
		155.4,253.1 145.9,253.1 145.9,272.1 	"/>
	<rect x="165" y="243.6" width="9.5" height="19"/>
	<path d="M193.5,271.9h26.6v-19h-9.5v-9.3h-17.3v9.5H184v9.5h9.5L193.5,271.9L193.5,271.9L193.5,271.9z M193.5,253.1h17.2v9.3h-17.1
		L193.5,253.1L193.5,253.1z"/>
	<rect x="210.6" y="281.1" width="9.5" height="19"/>
	<rect x="174.4" y="262.6" width="9.5" height="9.5"/>
	<rect x="183.9" y="290.7" width="9.5" height="9.5"/>
	<rect x="193.5" y="281.1" width="9.5" height="9.5"/>
	<polygon points="203,318.5 203,309.6 210.6,309.6 210.6,300.1 193.5,300.1 193.5,318.5 	"/>
	<rect x="145.9" y="281.4" width="9.5" height="18.1"/>
	<polygon points="165,318.5 165,308.9 174.2,308.9 174.2,318.5 183.7,318.5 183.7,308.9 174.4,308.9 174.4,299.4 155.4,299.4 
		155.4,318.5 	"/>
	<rect x="126.9" y="243.6" width="19" height="9.5"/>
</g>
<g>
	<path class="st1" d="M86.8,398.1c-3.3,0-5.8-0.9-7.6-2.6s-2.7-4.3-2.7-7.6h6.6c0,1.6,0.3,2.8,1,3.6c0.6,0.8,1.5,1.2,2.7,1.2
		c1,0,1.7-0.3,2.3-0.9c0.6-0.6,0.8-1.3,0.8-2.3c0-0.9-0.3-1.7-0.8-2.3c-0.5-0.6-1.3-1.2-2.4-1.8l-3.8-1.8c-2.1-1-3.6-2.2-4.6-3.6
		s-1.5-3.1-1.5-5.2c0-2.5,0.9-4.6,2.6-6.1s4-2.3,6.9-2.3c3.1,0,5.5,0.8,7.1,2.4c1.6,1.6,2.4,3.9,2.4,7h-6.5c0-2.8-1.1-4.2-3.2-4.2
		c-0.9,0-1.6,0.3-2.1,0.8s-0.8,1.2-0.8,2.1s0.3,1.6,0.8,2.2s1.4,1.2,2.7,1.8l4,2c2,1.1,3.4,2.2,4.3,3.6c0.9,1.3,1.3,3,1.3,4.9
		c0,2.7-0.9,4.9-2.6,6.6C92.1,397.3,89.8,398.1,86.8,398.1z"/>
	<path class="st1" d="M107.8,397.9c-3,0-5.4-1-7.1-2.9c-1.7-1.9-2.6-4.6-2.6-8c0-3.3,0.9-5.9,2.6-7.9c1.8-2,4.1-3,7-3
		s5.2,0.7,6.8,2.2c1.6,1.4,2.4,3.5,2.4,6.2h-6.1c-0.1-2.1-1.1-3.1-3-3.1c-1.1,0-2,0.5-2.6,1.5s-0.9,2.4-0.9,4.1
		c0,3.7,1.2,5.6,3.6,5.6c1.8,0,2.8-1,3-2.9h6.1c-0.1,2.7-1,4.7-2.6,6.1C112.8,397.1,110.6,397.9,107.8,397.9z"/>
	<path class="st1" d="M127.1,397.9c-2.5,0-4.5-1-5.9-3c-1.5-2-2.2-4.6-2.2-7.9s0.7-5.9,2.2-7.8c1.5-2,3.5-3,5.9-3
		c2.8,0,4.7,1.2,5.7,3.6v-3h6.3v20.5h-6.3v-3C131.7,396.6,129.8,397.9,127.1,397.9z M129.1,392.6c1.2,0,2.2-0.5,2.9-1.4
		c0.7-1,1-2.3,1-4.1s-0.3-3.1-1-4.1s-1.6-1.4-2.9-1.4c-1.3,0-2.2,0.5-2.9,1.4s-1,2.3-1,4.1c0,1.8,0.3,3.2,1,4.1
		S127.8,392.6,129.1,392.6z"/>
	<path class="st1" d="M143.2,397.3v-20.5h6.2v2.9c1.1-2.3,3.1-3.5,5.8-3.5c2,0,3.6,0.6,4.7,1.9c1.1,1.3,1.6,3.2,1.6,5.7v13.4h-6.3
		v-11.7c0-1.4-0.2-2.5-0.6-3.1c-0.4-0.7-1.1-1-2.1-1c-2.1,0-3.1,1.6-3.1,4.7v11.1h-6.2L143.2,397.3L143.2,397.3z"/>
	<path class="st1" d="M173.9,397.3v-30h7.4l5.7,21.4l5.7-21.4h7.4v30h-6V379l-4.9,18.3h-4.4l-4.9-18.3v18.3H173.9z"/>
	<path class="st1" d="M222.1,385.8c0,1.1-0.1,2-0.2,3h-12.6c0.1,1.4,0.4,2.5,1,3.3s1.5,1.2,2.7,1.2c1.7,0,2.7-0.7,3.1-2.1h5.6
		c-0.3,2.2-1.2,3.8-2.7,5s-3.5,1.8-6,1.8c-3.2,0-5.6-0.9-7.4-2.8c-1.7-1.9-2.6-4.5-2.6-8s0.9-6.1,2.6-8.1c1.7-1.9,4.1-2.9,7.2-2.9
		c2.9,0,5.2,0.9,6.8,2.6C221.3,380.4,222.1,382.9,222.1,385.8z M209.3,384.8h6.8c0-2.9-1.1-4.4-3.3-4.4S209.4,381.8,209.3,384.8z"/>
	<path class="st1" d="M240.6,396.4c-0.8,0.8-1.9,1.3-3.1,1.3s-2.2-0.4-3.1-1.3c-0.8-0.8-1.3-1.8-1.3-3s0.4-2.2,1.3-3
		c0.8-0.8,1.9-1.3,3.1-1.3s2.2,0.4,3.1,1.3c0.8,0.8,1.3,1.8,1.3,3S241.5,395.6,240.6,396.4z M234.4,386.9v-19.6h6.4v19.6H234.4z"/>
</g>
</svg>
