<?xml version="1.0" encoding="utf-8"?>
<!-- Generator: Adobe Illustrator 24.1.2, SVG Export Plug-In . SVG Version: 6.00 Build 0)  -->
<svg version="1.1" id="Layer_1" xmlns="http://www.w3.org/2000/svg" xmlns:xlink="http://www.w3.org/1999/xlink" x="0px" y="0px"
	 viewBox="0 0 320 418" style="enable-background:new 0 0 320 418;" xml:space="preserve">
<style type="text/css">
	.st0{fill:#E5E7EF;}
</style>
<path d="M310.5,0.1H10C1.8,2.2-0.3,4.9-0.4,13.7c0,0.7,0,1.3,0,2V401c0,1,0,2,0,3C0,414.5,3.6,418,14,418h292.5
	c9.8,0,12.1-1.9,14.1-11.4V10.1C319.5,4.3,316.5,0.7,310.5,0.1z M307.7,399.5c0,4.1-0.9,5.1-5.1,5.1c-94.9-0.1-189.7-0.1-284.6,0
	c-4.1,0-5.1-1-5.1-5.1C13,336,13,272.3,12.9,208.8S12.9,81.6,12.9,18c0-4.1,0.9-5.1,5.1-5.1c94.9,0.1,189.7,0.1,284.6,0
	c4.1,0,5.1,0.9,5.1,5.1C307.5,145.2,307.5,272.3,307.7,399.5L307.7,399.5z"/>
<g>
	<path class="st0" d="M38,22.8h243.3c8.3,0,15.1,6.7,15.1,15.1v243.3c0,8.3-6.7,15.1-15.1,15.1H38c-8.3,0-15.1-6.7-15.1-15.1V37.8
		C22.9,29.5,29.7,22.8,38,22.8z"/>
	<path d="M127.2,63H63.1v64.1h64.1V63L127.2,63z M112.1,112H78.2V78h33.9V112z"/>
	<rect x="87.6" y="87.5" width="15.1" height="15.1"/>
	<path d="M256.1,63H192v64.1h64.1V63z M241.1,112h-34V78h34V112z"/>
	<rect x="216.5" y="87.5" width="15.1" height="15.1"/>
	<path d="M127.2,191.9H63.1V256h64.1V191.9L127.2,191.9z M112.1,240.9H78.2v-33.9h33.9V240.9z"/>
	<rect x="87.6" y="216.4" width="15.1" height="15.1"/>
	<rect x="78.2" y="137.3" width="15.1" height="15.1"/>
	<polygon points="108,167.4 108,182.4 123,182.4 123,167.4 108.3,167.4 108.3,152.4 93.3,152.4 93.3,167.4 	"/>
	<rect x="168.7" y="92" width="15.1" height="15.1"/>
	<rect x="138.5" y="78" width="15.1" height="29"/>
	<rect x="153.6" y="63" width="15.1" height="15.1"/>
	<polygon points="168.7,107.1 153.6,107.1 153.6,122.1 138.5,122.1 138.5,137.3 168.7,137.3 	"/>
	<polygon points="153.6,182.4 153.6,197.3 168.7,197.3 168.7,211.9 198.8,211.9 198.8,196.9 168.7,196.9 168.7,182.2 153.6,182.2 
		153.6,152.4 138.5,152.4 138.5,182.4 	"/>
	<rect x="168.7" y="137.3" width="15.1" height="30.2"/>
	<path d="M213.9,182.2h42.2V152h-15v-14.7h-27.5v15.1h-14.7v15.1H214v14.7L213.9,182.2L213.9,182.2z M213.9,152.4h27.2v14.7H214
		L213.9,152.4L213.9,152.4z"/>
	<rect x="241.1" y="196.9" width="15.1" height="30.2"/>
	<rect x="183.7" y="167.4" width="15.1" height="15.1"/>
	<rect x="198.8" y="211.9" width="15.1" height="15.1"/>
	<rect x="213.9" y="196.9" width="15.1" height="15.1"/>
	<polygon points="229,256 229,241.9 241.1,241.9 241.1,226.9 213.9,226.9 213.9,256 	"/>
	<rect x="138.5" y="197.3" width="15.1" height="28.7"/>
	<polygon points="168.7,256 168.7,240.9 183.4,240.9 183.4,256 198.5,256 198.5,240.9 183.7,240.9 183.7,225.9 153.6,225.9 
		153.6,256 	"/>
	<rect x="108.3" y="137.3" width="30.2" height="15.1"/>
</g>
<g>
	<path d="M87.2,370.9c-3.3,0-5.8-0.9-7.6-2.6s-2.7-4.3-2.7-7.6h6.6c0,1.6,0.3,2.8,1,3.6c0.6,0.8,1.5,1.2,2.7,1.2
		c1,0,1.7-0.3,2.3-0.9c0.6-0.6,0.8-1.3,0.8-2.3c0-0.9-0.3-1.7-0.8-2.3c-0.5-0.6-1.3-1.2-2.4-1.8l-3.8-1.8c-2.1-1-3.6-2.2-4.6-3.6
		s-1.5-3.1-1.5-5.2c0-2.5,0.9-4.6,2.6-6.1s4-2.3,6.9-2.3c3.1,0,5.5,0.8,7.1,2.4c1.6,1.6,2.4,3.9,2.4,7h-6.5c0-2.8-1.1-4.2-3.2-4.2
		c-0.9,0-1.6,0.3-2.1,0.8s-0.8,1.2-0.8,2.1s0.3,1.6,0.8,2.2s1.4,1.2,2.7,1.8l4,2c2,1.1,3.4,2.2,4.3,3.6c0.9,1.3,1.3,3,1.3,4.9
		c0,2.7-0.9,4.9-2.6,6.6C92.5,370.1,90.2,370.9,87.2,370.9z"/>
	<path d="M108.2,370.7c-3,0-5.4-1-7.1-2.9c-1.7-1.9-2.6-4.6-2.6-8c0-3.3,0.9-5.9,2.6-7.9c1.8-2,4.1-3,7-3s5.2,0.7,6.8,2.2
		c1.6,1.4,2.4,3.5,2.4,6.2h-6.1c-0.1-2.1-1.1-3.1-3-3.1c-1.1,0-2,0.5-2.6,1.5s-0.9,2.4-0.9,4.1c0,3.7,1.2,5.6,3.6,5.6
		c1.8,0,2.8-1,3-2.9h6.1c-0.1,2.7-1,4.7-2.6,6.1C113.2,369.9,111,370.7,108.2,370.7z"/>
	<path d="M127.5,370.7c-2.5,0-4.5-1-5.9-3c-1.5-2-2.2-4.6-2.2-7.9s0.7-5.9,2.2-7.8c1.5-2,3.5-3,5.9-3c2.8,0,4.7,1.2,5.7,3.6v-3h6.3
		v20.5h-6.3v-3C132.1,369.4,130.2,370.7,127.5,370.7z M129.5,365.4c1.2,0,2.2-0.5,2.9-1.4c0.7-1,1-2.3,1-4.1s-0.3-3.1-1-4.1
		s-1.6-1.4-2.9-1.4c-1.3,0-2.2,0.5-2.9,1.4s-1,2.3-1,4.1c0,1.8,0.3,3.2,1,4.1S128.2,365.4,129.5,365.4z"/>
	<path d="M143.6,370.1v-20.5h6.2v2.9c1.1-2.3,3.1-3.5,5.8-3.5c2,0,3.6,0.6,4.7,1.9c1.1,1.3,1.6,3.2,1.6,5.7V370h-6.3v-11.7
		c0-1.4-0.2-2.5-0.6-3.1c-0.4-0.7-1.1-1-2.1-1c-2.1,0-3.1,1.6-3.1,4.7V370h-6.2L143.6,370.1L143.6,370.1z"/>
	<path d="M174.3,370.1v-30h7.4l5.7,21.4l5.7-21.4h7.4v30h-6v-18.3l-4.9,18.3h-4.4l-4.9-18.3v18.3H174.3z"/>
	<path d="M222.5,358.6c0,1.1-0.1,2-0.2,3h-12.6c0.1,1.4,0.4,2.5,1,3.3s1.5,1.2,2.7,1.2c1.7,0,2.7-0.7,3.1-2.1h5.6
		c-0.3,2.2-1.2,3.8-2.7,5s-3.5,1.8-6,1.8c-3.2,0-5.6-0.9-7.4-2.8c-1.7-1.9-2.6-4.5-2.6-8s0.9-6.1,2.6-8.1c1.7-1.9,4.1-2.9,7.2-2.9
		c2.9,0,5.2,0.9,6.8,2.6C221.7,353.2,222.5,355.7,222.5,358.6z M209.7,357.6h6.8c0-2.9-1.1-4.4-3.3-4.4S209.8,354.6,209.7,357.6z"/>
	<path d="M241,369.2c-0.8,0.8-1.9,1.3-3.1,1.3s-2.2-0.4-3.1-1.3c-0.8-0.8-1.3-1.8-1.3-3s0.4-2.2,1.3-3c0.8-0.8,1.9-1.3,3.1-1.3
		s2.2,0.4,3.1,1.3c0.8,0.8,1.3,1.8,1.3,3S241.9,368.4,241,369.2z M234.8,359.7v-19.6h6.4v19.6H234.8z"/>
</g>
</svg>
