<?xml version="1.0" encoding="utf-8"?>
<!-- Generator: Adobe Illustrator 24.1.2, SVG Export Plug-In . SVG Version: 6.00 Build 0)  -->
<svg version="1.1" id="TEXTO" xmlns="http://www.w3.org/2000/svg" xmlns:xlink="http://www.w3.org/1999/xlink" x="0px" y="0px"
	 viewBox="0 0 320 418" style="enable-background:new 0 0 320 418;" xml:space="preserve">
<style type="text/css">
	.st0{fill:#E5E7EF;}
</style>
<path d="M11,312.3h271.2c2.5,0,4.6,2,4.6,4.6v0.9c0,2.5-2,4.6-4.6,4.6H11c-2.5,0-4.6-2-4.6-4.6v-0.9C6.4,314.3,8.5,312.3,11,312.3z"
	/>
<path d="M250.3,352.7H42.9c-17.1,0-30.9-13.8-30.9-30.9l0,0h269.2l0,0C281.2,338.9,267.4,352.7,250.3,352.7z"/>
<path d="M216.9,327.3H76.3c-26.2,0-47.4-21.3-47.4-47.4V97.2c0-4.6,3.7-8.3,8.3-8.3H256c4.6,0,8.3,3.7,8.3,8.3v35.7
	c28,2.6,50,26.1,50,54.8s-22,52.2-50,54.8v37.4C264.3,306,243,327.3,216.9,327.3L216.9,327.3z M39,99v180.9
	c0,20.6,16.8,37.3,37.3,37.3h140.5c20.6,0,37.3-16.8,37.3-37.3v-47.3h5c24.8,0,44.9-20.1,44.9-44.9s-20.1-44.9-44.9-44.9h-5V99H39
	L39,99z"/>
<path d="M259.2,217.3h-5V158h5c16.3,0,29.6,13.3,29.6,29.6S275.5,217.3,259.2,217.3L259.2,217.3z M264.3,168.8v37.8
	c8.3-2.2,14.5-9.8,14.5-18.9S272.6,171,264.3,168.8L264.3,168.8z"/>
<g>
	<path d="M101.1,75.8c-1,0-2-0.3-2.9-0.9c-2.2-1.6-2.8-4.8-1.2-7c2.2-3.1,5.7-9.3,5.7-13.1c0-5.6-1.4-8.1-3-11
		c-1.7-3.1-3.6-6.5-3.6-12.5c0-12.2,8.2-18.9,8.5-19.1l6.3,7.9l0,0c-0.2,0.2-4.8,4.1-4.8,11.3c0,3.3,0.9,5,2.3,7.6
		c1.9,3.4,4.3,7.7,4.3,15.9s-6.8,17.9-7.6,19C104.2,75,102.6,75.8,101.1,75.8L101.1,75.8z"/>
	<path d="M143.3,75.8c-1,0-2-0.3-2.9-0.9c-2.2-1.6-2.8-4.8-1.2-7c2.2-3.1,5.7-9.3,5.7-13.1c0-5.6-1.4-8.1-3-11
		c-1.7-3.1-3.6-6.5-3.6-12.5c0-12.2,8.2-18.9,8.5-19.1L153,20l0,0c-0.2,0.2-4.8,4.1-4.8,11.3c0,3.3,0.9,5,2.4,7.6
		c1.9,3.4,4.3,7.7,4.3,15.9s-6.8,17.9-7.6,19C146.4,75,144.8,75.8,143.3,75.8L143.3,75.8z"/>
	<path d="M185.5,75.8c-1,0-2-0.3-2.9-0.9c-2.2-1.6-2.8-4.8-1.2-7c2.2-3.1,5.7-9.3,5.7-13.1c0-5.6-1.4-8.1-3-11
		c-1.7-3.1-3.6-6.5-3.6-12.5c0-12.2,8.2-18.9,8.5-19.1l6.3,7.9l0,0c-0.2,0.2-4.8,4.1-4.8,11.3c0,3.3,0.9,5,2.3,7.6
		c1.9,3.4,4.3,7.7,4.3,15.9s-6.8,17.9-7.6,19C188.6,75,187,75.8,185.5,75.8L185.5,75.8z"/>
</g>
<g>
	<path class="st0" d="M68.5,114.8H226c5.4,0,9.8,4.3,9.8,9.8V282c0,5.4-4.3,9.8-9.8,9.8H68.5c-5.4,0-9.8-4.3-9.8-9.8V124.5
		C58.7,119.1,63.1,114.8,68.5,114.8z"/>
	<path d="M126.2,140.8H84.7v41.5h41.5V140.8L126.2,140.8z M116.5,172.5H94.5v-22h21.9V172.5z"/>
	<rect x="100.6" y="156.7" width="9.8" height="9.8"/>
	<path d="M209.7,140.8h-41.5v41.5h41.5V140.8z M200,172.5h-22v-22h22V172.5z"/>
	<rect x="184.1" y="156.7" width="9.8" height="9.8"/>
	<path d="M126.2,224.2H84.7v41.5h41.5V224.2L126.2,224.2z M116.5,256H94.5V234h21.9V256z"/>
	<rect x="100.6" y="240.1" width="9.8" height="9.8"/>
	<rect x="94.5" y="188.8" width="9.8" height="9.8"/>
	<polygon points="113.8,208.4 113.8,218.1 123.5,218.1 123.5,208.4 114,208.4 114,198.6 104.3,198.6 104.3,208.4 	"/>
	<rect x="153.1" y="159.6" width="9.8" height="9.8"/>
	<rect x="133.6" y="150.5" width="9.8" height="18.8"/>
	<rect x="143.3" y="140.8" width="9.8" height="9.8"/>
	<polygon points="153.1,169.3 143.3,169.3 143.3,179.1 133.6,179.1 133.6,188.8 153.1,188.8 	"/>
	<polygon points="143.3,218.1 143.3,227.7 153.1,227.7 153.1,237.2 172.6,237.2 172.6,227.4 153.1,227.4 153.1,217.9 143.3,217.9 
		143.3,198.6 133.6,198.6 133.6,218.1 	"/>
	<rect x="153.1" y="188.8" width="9.8" height="19.5"/>
	<path d="M182.4,217.9h27.3v-19.5H200v-9.5h-17.8v9.8h-9.5v9.8h9.8L182.4,217.9L182.4,217.9L182.4,217.9z M182.4,198.6H200v9.5
		h-17.5L182.4,198.6L182.4,198.6z"/>
	<rect x="200" y="227.4" width="9.8" height="19.5"/>
	<rect x="162.8" y="208.4" width="9.8" height="9.8"/>
	<rect x="172.6" y="237.2" width="9.8" height="9.8"/>
	<rect x="182.4" y="227.4" width="9.8" height="9.8"/>
	<polygon points="192.1,265.7 192.1,256.6 200,256.6 200,246.9 182.4,246.9 182.4,265.7 	"/>
	<rect x="133.6" y="227.7" width="9.8" height="18.6"/>
	<polygon points="153.1,265.7 153.1,256 162.6,256 162.6,265.7 172.4,265.7 172.4,256 162.8,256 162.8,246.2 143.3,246.2 
		143.3,265.7 	"/>
	<rect x="114" y="188.8" width="19.5" height="9.8"/>
</g>
<g>
	<path d="M86.8,397.8c-3.3,0-5.8-0.9-7.6-2.6s-2.7-4.3-2.7-7.6h6.6c0,1.6,0.3,2.8,1,3.6c0.6,0.8,1.5,1.2,2.7,1.2
		c1,0,1.7-0.3,2.3-0.9c0.6-0.6,0.8-1.3,0.8-2.3c0-0.9-0.3-1.7-0.8-2.3c-0.5-0.6-1.3-1.2-2.4-1.8l-3.8-1.8c-2.1-1-3.6-2.2-4.6-3.6
		s-1.5-3.1-1.5-5.2c0-2.5,0.9-4.6,2.6-6.1s4-2.3,6.9-2.3c3.1,0,5.5,0.8,7.1,2.4c1.6,1.6,2.4,3.9,2.4,7h-6.5c0-2.8-1.1-4.2-3.2-4.2
		c-0.9,0-1.6,0.3-2.1,0.8s-0.8,1.2-0.8,2.1s0.3,1.6,0.8,2.2s1.4,1.2,2.7,1.8l4,2c2,1.1,3.4,2.2,4.3,3.6c0.9,1.3,1.3,3,1.3,4.9
		c0,2.7-0.9,4.9-2.6,6.6C92.1,397,89.8,397.8,86.8,397.8z"/>
	<path d="M107.8,397.6c-3,0-5.4-1-7.1-2.9c-1.7-1.9-2.6-4.6-2.6-8c0-3.3,0.9-5.9,2.6-7.9c1.8-2,4.1-3,7-3s5.2,0.7,6.8,2.2
		c1.6,1.4,2.4,3.5,2.4,6.2h-6.1c-0.1-2.1-1.1-3.1-3-3.1c-1.1,0-2,0.5-2.6,1.5s-0.9,2.4-0.9,4.1c0,3.7,1.2,5.6,3.6,5.6
		c1.8,0,2.8-1,3-2.9h6.1c-0.1,2.7-1,4.7-2.6,6.1C112.8,396.8,110.6,397.6,107.8,397.6z"/>
	<path d="M127.1,397.6c-2.5,0-4.5-1-5.9-3c-1.5-2-2.2-4.6-2.2-7.9s0.7-5.9,2.2-7.8c1.5-2,3.5-3,5.9-3c2.8,0,4.7,1.2,5.7,3.6v-3h6.3
		V397h-6.3v-3C131.7,396.3,129.8,397.6,127.1,397.6z M129.1,392.3c1.2,0,2.2-0.5,2.9-1.4c0.7-1,1-2.3,1-4.1s-0.3-3.1-1-4.1
		s-1.6-1.4-2.9-1.4c-1.3,0-2.2,0.5-2.9,1.4s-1,2.3-1,4.1c0,1.8,0.3,3.2,1,4.1S127.8,392.3,129.1,392.3z"/>
	<path d="M143.2,397v-20.5h6.2v2.9c1.1-2.3,3.1-3.5,5.8-3.5c2,0,3.6,0.6,4.7,1.9c1.1,1.3,1.6,3.2,1.6,5.7v13.4h-6.3v-11.7
		c0-1.4-0.2-2.5-0.6-3.1c-0.4-0.7-1.1-1-2.1-1c-2.1,0-3.1,1.6-3.1,4.7v11.1h-6.2L143.2,397L143.2,397z"/>
	<path d="M173.9,397v-30h7.4l5.7,21.4l5.7-21.4h7.4v30h-6v-18.3l-4.9,18.3h-4.4l-4.9-18.3V397H173.9z"/>
	<path d="M222.1,385.5c0,1.1-0.1,2-0.2,3h-12.6c0.1,1.4,0.4,2.5,1,3.3s1.5,1.2,2.7,1.2c1.7,0,2.7-0.7,3.1-2.1h5.6
		c-0.3,2.2-1.2,3.8-2.7,5s-3.5,1.8-6,1.8c-3.2,0-5.6-0.9-7.4-2.8c-1.7-1.9-2.6-4.5-2.6-8s0.9-6.1,2.6-8.1c1.7-1.9,4.1-2.9,7.2-2.9
		c2.9,0,5.2,0.9,6.8,2.6C221.3,380.1,222.1,382.6,222.1,385.5z M209.3,384.5h6.8c0-2.9-1.1-4.4-3.3-4.4S209.4,381.5,209.3,384.5z"/>
	<path d="M240.6,396.1c-0.8,0.8-1.9,1.3-3.1,1.3s-2.2-0.4-3.1-1.3c-0.8-0.8-1.3-1.8-1.3-3s0.4-2.2,1.3-3c0.8-0.8,1.9-1.3,3.1-1.3
		s2.2,0.4,3.1,1.3c0.8,0.8,1.3,1.8,1.3,3S241.5,395.3,240.6,396.1z M234.4,386.6V367h6.4v19.6H234.4z"/>
</g>
</svg>
