<?xml version="1.0" encoding="utf-8"?>
<!-- Generator: Adobe Illustrator 24.1.2, SVG Export Plug-In . SVG Version: 6.00 Build 0)  -->
<svg version="1.1" id="Layer_1" xmlns="http://www.w3.org/2000/svg" xmlns:xlink="http://www.w3.org/1999/xlink" x="0px" y="0px"
	 viewBox="0 0 320 418" style="enable-background:new 0 0 320 418;" xml:space="preserve">
<style type="text/css">
	.st0{fill:none;stroke:#FEFEFE;stroke-width:0.25;stroke-miterlimit:10;}
	.st1{fill:#E5E7EF;}
</style>
<path class="st0" d="M320.9,209.5c0,68.3,0,136.6,0.1,204.9c0,3.4-0.7,4.1-4.1,4.1c-104.6-0.1-209.2-0.1-313.8,0
	c-3.4,0-4.1-0.7-4.1-4.1C-0.9,277.5-0.9,140.5-1,3.6c0-3.4,0.7-4.1,4.1-4.1c104.6,0.1,209.2,0.1,313.8,0c3.4,0,4.1,0.7,4.1,4.1
	C320.9,72.2,320.9,140.9,320.9,209.5z"/>
<g>
	<path class="st1" d="M37.3,22.1h243.3c8.3,0,15.1,6.7,15.1,15.1v243.3c0,8.3-6.7,15.1-15.1,15.1H37.3c-8.3,0-15.1-6.7-15.1-15.1
		V37.2C22.2,28.9,29,22.1,37.3,22.1z"/>
	<path d="M126.5,62.3H62.4v64.1h64.1V62.3L126.5,62.3z M111.4,111.3H77.5v-34h33.9V111.3z"/>
	<rect x="86.9" y="86.8" width="15.1" height="15.1"/>
	<path d="M255.4,62.3h-64.1v64.1h64.1V62.3z M240.4,111.3h-34v-34h34V111.3z"/>
	<rect x="215.8" y="86.8" width="15.1" height="15.1"/>
	<path d="M126.5,191.3H62.4v64.1h64.1V191.3L126.5,191.3z M111.4,240.3H77.5v-33.9h33.9V240.3z"/>
	<rect x="86.9" y="215.8" width="15.1" height="15.1"/>
	<rect x="77.5" y="136.6" width="15.1" height="15.1"/>
	<polygon points="107.3,166.8 107.3,181.8 122.3,181.8 122.3,166.8 107.6,166.8 107.6,151.7 92.6,151.7 92.6,166.8 	"/>
	<rect x="168" y="91.3" width="15.1" height="15.1"/>
	<rect x="137.8" y="77.3" width="15.1" height="29"/>
	<rect x="152.9" y="62.3" width="15.1" height="15.1"/>
	<polygon points="168,106.4 152.9,106.4 152.9,121.4 137.8,121.4 137.8,136.6 168,136.6 	"/>
	<polygon points="152.9,181.8 152.9,196.6 168,196.6 168,211.3 198.1,211.3 198.1,196.2 168,196.2 168,181.5 152.9,181.5 
		152.9,151.7 137.8,151.7 137.8,181.8 	"/>
	<rect x="168" y="136.6" width="15.1" height="30.2"/>
	<path d="M213.2,181.5h42.2v-30.2h-15v-14.7h-27.5v15.1h-14.7v15.1h15.1v14.7L213.2,181.5L213.2,181.5z M213.2,151.7h27.2v14.7
		h-27.1L213.2,151.7L213.2,151.7z"/>
	<rect x="240.4" y="196.2" width="15.1" height="30.2"/>
	<rect x="183" y="166.8" width="15.1" height="15.1"/>
	<rect x="198.1" y="211.3" width="15.1" height="15.1"/>
	<rect x="213.2" y="196.2" width="15.1" height="15.1"/>
	<polygon points="228.3,255.4 228.3,241.3 240.4,241.3 240.4,226.3 213.2,226.3 213.2,255.4 	"/>
	<rect x="137.8" y="196.6" width="15.1" height="28.7"/>
	<polygon points="168,255.4 168,240.3 182.7,240.3 182.7,255.4 197.8,255.4 197.8,240.3 183,240.3 183,225.2 152.9,225.2 
		152.9,255.4 	"/>
	<rect x="107.6" y="136.6" width="30.2" height="15.1"/>
</g>
<g>
	<path d="M86.5,376.2c-3.3,0-5.8-0.9-7.6-2.6s-2.7-4.3-2.7-7.6h6.6c0,1.6,0.3,2.8,1,3.6c0.6,0.8,1.5,1.2,2.7,1.2
		c1,0,1.7-0.3,2.3-0.9c0.6-0.6,0.8-1.3,0.8-2.3c0-0.9-0.3-1.7-0.8-2.3c-0.5-0.6-1.3-1.2-2.4-1.8l-3.8-1.8c-2.1-1-3.6-2.2-4.6-3.6
		s-1.5-3.1-1.5-5.2c0-2.5,0.9-4.6,2.6-6.1s4-2.3,6.9-2.3c3.1,0,5.5,0.8,7.1,2.4s2.4,3.9,2.4,7H89c0-2.8-1.1-4.2-3.2-4.2
		c-0.9,0-1.6,0.3-2.1,0.8s-0.8,1.2-0.8,2.1s0.3,1.6,0.8,2.2s1.4,1.2,2.7,1.8l4,2c2,1.1,3.4,2.2,4.3,3.6c0.9,1.3,1.3,3,1.3,4.9
		c0,2.7-0.9,4.9-2.6,6.6C91.8,375.4,89.5,376.2,86.5,376.2z"/>
	<path d="M107.5,376c-3,0-5.4-1-7.1-2.9s-2.6-4.6-2.6-8c0-3.3,0.9-5.9,2.6-7.9c1.8-2,4.1-3,7-3s5.2,0.7,6.8,2.2
		c1.6,1.4,2.4,3.5,2.4,6.2h-6.1c-0.1-2.1-1.1-3.1-3-3.1c-1.1,0-2,0.5-2.6,1.5s-0.9,2.4-0.9,4.1c0,3.7,1.2,5.6,3.6,5.6
		c1.8,0,2.8-1,3-2.9h6.1c-0.1,2.7-1,4.7-2.6,6.1C112.5,375.2,110.3,376,107.5,376z"/>
	<path d="M126.8,376c-2.5,0-4.5-1-5.9-3c-1.5-2-2.2-4.6-2.2-7.9s0.7-5.9,2.2-7.8c1.5-2,3.5-3,5.9-3c2.8,0,4.7,1.2,5.7,3.6v-3h6.3
		v20.5h-6.3v-3C131.4,374.7,129.5,376,126.8,376z M128.8,370.7c1.2,0,2.2-0.5,2.9-1.4c0.7-1,1-2.3,1-4.1s-0.3-3.1-1-4.1
		s-1.6-1.4-2.9-1.4c-1.3,0-2.2,0.5-2.9,1.4s-1,2.3-1,4.1c0,1.8,0.3,3.2,1,4.1S127.5,370.7,128.8,370.7z"/>
	<path d="M142.9,375.4v-20.5h6.2v2.9c1.1-2.3,3.1-3.5,5.8-3.5c2,0,3.6,0.6,4.7,1.9c1.1,1.3,1.6,3.2,1.6,5.7v13.4h-6.3v-11.7
		c0-1.4-0.2-2.5-0.6-3.1c-0.4-0.7-1.1-1-2.1-1c-2.1,0-3.1,1.6-3.1,4.7v11.1h-6.2L142.9,375.4L142.9,375.4z"/>
	<path d="M173.6,375.4v-30h7.4l5.7,21.4l5.7-21.4h7.4v30h-6v-18.3l-4.9,18.3h-4.4l-4.9-18.3v18.3H173.6z"/>
	<path d="M221.8,363.9c0,1.1-0.1,2-0.2,3H209c0.1,1.4,0.4,2.5,1,3.3s1.5,1.2,2.7,1.2c1.7,0,2.7-0.7,3.1-2.1h5.6
		c-0.3,2.2-1.2,3.8-2.7,5s-3.5,1.8-6,1.8c-3.2,0-5.6-0.9-7.4-2.8c-1.7-1.9-2.6-4.5-2.6-8s0.9-6.1,2.6-8.1c1.7-1.9,4.1-2.9,7.2-2.9
		c2.9,0,5.2,0.9,6.8,2.6C221,358.5,221.8,361,221.8,363.9z M209,362.9h6.8c0-2.9-1.1-4.4-3.3-4.4S209.1,359.9,209,362.9z"/>
	<path d="M240.3,374.5c-0.8,0.8-1.9,1.3-3.1,1.3s-2.2-0.4-3.1-1.3c-0.8-0.8-1.3-1.8-1.3-3s0.4-2.2,1.3-3c0.8-0.8,1.9-1.3,3.1-1.3
		s2.2,0.4,3.1,1.3c0.8,0.8,1.3,1.8,1.3,3S241.2,373.7,240.3,374.5z M234.1,365v-19.6h6.4V365H234.1z"/>
</g>
</svg>
