<?xml version="1.0" encoding="utf-8"?>
<!-- Generator: Adobe Illustrator 24.1.2, SVG Export Plug-In . SVG Version: 6.00 Build 0)  -->
<svg version="1.1" id="Layer_1" xmlns="http://www.w3.org/2000/svg" xmlns:xlink="http://www.w3.org/1999/xlink" x="0px" y="0px"
	 viewBox="0 0 320 418" style="enable-background:new 0 0 320 418;" xml:space="preserve">
<style type="text/css">
	.st0{fill:none;stroke:#FEFEFE;stroke-width:0.25;stroke-miterlimit:10;}
	.st1{fill:#E5E7EF;}
	.st2{fill:#FFFFFF;}
</style>
<path class="st0" d="M321,209.5c0,68.3,0,136.6,0.1,204.9c0,3.4-0.7,4.1-4.1,4.1c-104.6-0.1-209.2-0.1-313.8,0
	c-3.4,0-4.1-0.7-4.1-4.1c0.1-136.9,0.1-273.9,0-410.8c0-3.4,0.7-4.1,4.1-4.1c104.6,0.1,209.2,0.1,313.8,0c3.4,0,4.1,0.7,4.1,4.1
	C321,72.2,321,140.9,321,209.5z"/>
<g>
	<path d="M159.9,395.8H51.5c-12.2,0-16.5-3.3-16.5-12.8c0-15.4,0-31,0-46.4c0-8.5,4.8-12.2,15.8-12.2h218.5c11.3,0,16,3.6,16,12.4
		c0,15.6,0,31.2,0,46.8c0,8.6-4.6,12.2-15.8,12.2C232.9,395.8,196.4,395.8,159.9,395.8z"/>
	<g>
		<path class="st1" d="M37.3,26.1h243.3c8.3,0,15.1,6.7,15.1,15.1v243.3c0,8.3-6.7,15.1-15.1,15.1H37.3c-8.3,0-15.1-6.7-15.1-15.1
			V41.2C22.2,32.8,29,26.1,37.3,26.1z"/>
		<path d="M126.5,66.3H62.4v64.1h64.1V66.3L126.5,66.3z M111.4,115.3H77.5v-34h33.9V115.3z"/>
		<rect x="86.9" y="90.8" width="15.1" height="15.1"/>
		<path d="M255.4,66.3h-64.1v64.1h64.1V66.3z M240.4,115.3h-34v-34h34V115.3z"/>
		<rect x="215.8" y="90.8" width="15.1" height="15.1"/>
		<path d="M126.5,195.3H62.4v64.1h64.1V195.3L126.5,195.3z M111.4,244.3H77.5v-33.9h33.9V244.3z"/>
		<rect x="86.9" y="219.8" width="15.1" height="15.1"/>
		<rect x="77.5" y="140.6" width="15.1" height="15.1"/>
		<polygon points="107.3,170.8 107.3,185.8 122.3,185.8 122.3,170.8 107.6,170.8 107.6,155.7 92.6,155.7 92.6,170.8 		"/>
		<rect x="168" y="95.3" width="15.1" height="15.1"/>
		<rect x="137.8" y="81.3" width="15.1" height="29"/>
		<rect x="152.9" y="66.3" width="15.1" height="15.1"/>
		<polygon points="168,110.4 152.9,110.4 152.9,125.4 137.8,125.4 137.8,140.6 168,140.6 		"/>
		<polygon points="152.9,185.8 152.9,200.6 168,200.6 168,215.3 198.1,215.3 198.1,200.2 168,200.2 168,185.5 152.9,185.5 
			152.9,155.7 137.8,155.7 137.8,185.8 		"/>
		<rect x="168" y="140.6" width="15.1" height="30.2"/>
		<path d="M213.2,185.5h42.2v-30.2h-15v-14.7h-27.5v15.1h-14.7v15.1h15.1v14.7L213.2,185.5L213.2,185.5z M213.2,155.7h27.2v14.7
			h-27.1L213.2,155.7L213.2,155.7z"/>
		<rect x="240.4" y="200.2" width="15.1" height="30.2"/>
		<rect x="183" y="170.8" width="15.1" height="15.1"/>
		<rect x="198.1" y="215.3" width="15.1" height="15.1"/>
		<rect x="213.2" y="200.2" width="15.1" height="15.1"/>
		<polygon points="228.3,259.4 228.3,245.3 240.4,245.3 240.4,230.3 213.2,230.3 213.2,259.4 		"/>
		<rect x="137.8" y="200.6" width="15.1" height="28.7"/>
		<polygon points="168,259.4 168,244.3 182.7,244.3 182.7,259.4 197.8,259.4 197.8,244.3 183,244.3 183,229.2 152.9,229.2 
			152.9,259.4 		"/>
		<rect x="107.6" y="140.6" width="30.2" height="15.1"/>
	</g>
	<g>
		<path class="st2" d="M87.9,376.4c-3.3,0-5.8-0.9-7.6-2.6s-2.7-4.3-2.7-7.6h6.6c0,1.6,0.3,2.8,1,3.6c0.6,0.8,1.5,1.2,2.7,1.2
			c1,0,1.7-0.3,2.3-0.9c0.6-0.6,0.8-1.3,0.8-2.3c0-0.9-0.3-1.7-0.8-2.3c-0.5-0.6-1.3-1.2-2.4-1.8l-3.8-1.8c-2.1-1-3.6-2.2-4.6-3.6
			s-1.5-3.1-1.5-5.2c0-2.5,0.9-4.6,2.6-6.1s4-2.3,6.9-2.3c3.1,0,5.5,0.8,7.1,2.4c1.6,1.6,2.4,3.9,2.4,7h-6.5c0-2.8-1.1-4.2-3.2-4.2
			c-0.9,0-1.6,0.3-2.1,0.8s-0.8,1.2-0.8,2.1s0.3,1.6,0.8,2.2s1.4,1.2,2.7,1.8l4,2c2,1.1,3.4,2.2,4.3,3.6c0.9,1.3,1.3,3,1.3,4.9
			c0,2.7-0.9,4.9-2.6,6.6C93.2,375.6,90.9,376.4,87.9,376.4z"/>
		<path class="st2" d="M108.9,376.2c-3,0-5.4-1-7.1-2.9c-1.7-1.9-2.6-4.6-2.6-8c0-3.3,0.9-5.9,2.6-7.9c1.8-2,4.1-3,7-3
			s5.2,0.7,6.8,2.2c1.6,1.4,2.4,3.5,2.4,6.2h-6.1c-0.1-2.1-1.1-3.1-3-3.1c-1.1,0-2,0.5-2.6,1.5s-0.9,2.4-0.9,4.1
			c0,3.7,1.2,5.6,3.6,5.6c1.8,0,2.8-1,3-2.9h6.1c-0.1,2.7-1,4.7-2.6,6.1C113.9,375.4,111.7,376.2,108.9,376.2z"/>
		<path class="st2" d="M128.2,376.2c-2.5,0-4.5-1-5.9-3c-1.5-2-2.2-4.6-2.2-7.9s0.7-5.9,2.2-7.8c1.5-2,3.5-3,5.9-3
			c2.8,0,4.7,1.2,5.7,3.6v-3h6.3v20.5h-6.3v-3C132.8,374.9,130.9,376.2,128.2,376.2z M130.2,370.9c1.2,0,2.2-0.5,2.9-1.4
			c0.7-1,1-2.3,1-4.1s-0.3-3.1-1-4.1s-1.6-1.4-2.9-1.4c-1.3,0-2.2,0.5-2.9,1.4s-1,2.3-1,4.1c0,1.8,0.3,3.2,1,4.1
			S128.9,370.9,130.2,370.9z"/>
		<path class="st2" d="M144.3,375.6v-20.5h6.2v2.9c1.1-2.3,3.1-3.5,5.8-3.5c2,0,3.6,0.6,4.7,1.9c1.1,1.3,1.6,3.2,1.6,5.7v13.4h-6.3
			v-11.7c0-1.4-0.2-2.5-0.6-3.1c-0.4-0.7-1.1-1-2.1-1c-2.1,0-3.1,1.6-3.1,4.7v11.1h-6.2L144.3,375.6L144.3,375.6z"/>
		<path class="st2" d="M175,375.6v-30h7.4l5.7,21.4l5.7-21.4h7.4v30h-6v-18.3l-4.9,18.3h-4.4l-4.9-18.3v18.3H175z"/>
		<path class="st2" d="M223.2,364.1c0,1.1-0.1,2-0.2,3h-12.6c0.1,1.4,0.4,2.5,1,3.3s1.5,1.2,2.7,1.2c1.7,0,2.7-0.7,3.1-2.1h5.6
			c-0.3,2.2-1.2,3.8-2.7,5s-3.5,1.8-6,1.8c-3.2,0-5.6-0.9-7.4-2.8c-1.7-1.9-2.6-4.5-2.6-8s0.9-6.1,2.6-8.1c1.7-1.9,4.1-2.9,7.2-2.9
			c2.9,0,5.2,0.9,6.8,2.6C222.4,358.7,223.2,361.2,223.2,364.1z M210.4,363.1h6.8c0-2.9-1.1-4.4-3.3-4.4S210.5,360.1,210.4,363.1z"
			/>
		<path class="st2" d="M241.7,374.7c-0.8,0.8-1.9,1.3-3.1,1.3s-2.2-0.4-3.1-1.3c-0.8-0.8-1.3-1.8-1.3-3s0.4-2.2,1.3-3
			c0.8-0.8,1.9-1.3,3.1-1.3s2.2,0.4,3.1,1.3c0.8,0.8,1.3,1.8,1.3,3S242.6,373.9,241.7,374.7z M235.5,365.2v-19.6h6.4v19.6H235.5z"/>
	</g>
</g>
</svg>
