<?xml version="1.0" encoding="utf-8"?>
<!-- Generator: Adobe Illustrator 24.1.2, SVG Export Plug-In . SVG Version: 6.00 Build 0)  -->
<svg version="1.1" id="Layer_1" xmlns="http://www.w3.org/2000/svg" xmlns:xlink="http://www.w3.org/1999/xlink" x="0px" y="0px"
	 viewBox="0 0 320 418" style="enable-background:new 0 0 320 418;" xml:space="preserve">
<style type="text/css">
	.st0{fill:#E5E7EF;}
	.st1{fill:#FFFFFF;}
</style>
<path d="M310.5,0.1H10C1.8,2.2-0.3,4.9-0.4,13.7c0,1.2,0,2.3,0,3.5v134c0,84,0,168,0,252c0,11,3.5,14.8,13.9,14.8
	c97.8,0,195.7,0,293.5,0c9,0,11.4-1.9,13.5-10.4V10.1C319.5,4.3,316.5,0.7,310.5,0.1z M307.5,173.4c0,51.8,0,103.6,0.1,155.4
	c0,3.9-0.6,5.2-5,5.2c-40-0.2-79.9-0.2-119.9,0c-2.8,0.2-5.4-1.2-6.9-3.5c-4.3-6.1-9-11.9-13.4-17.9c-1.7-2.4-2.6-2.7-4.5-0.1
	c-4.6,6.5-9.6,12.7-14.3,19.1c-1.1,1.7-3,2.6-4.9,2.4C98,334,57.2,334,16.5,334.2c-4.2,0-3.5-2.1-3.5-4.6c0-44.5,0-89,0-133.4
	c0-59.4,0-118.8-0.1-178.3c0-3.8,0.9-4.9,4.8-4.9c95,0.1,190,0.1,285,0c4.4,0,4.9,1.4,4.9,5.3C307.5,70,307.5,121.7,307.5,173.4z"/>
<g>
	<path class="st0" d="M38.4,25.8h243.3c8.3,0,15.1,6.7,15.1,15.1v243.3c0,8.3-6.7,15.1-15.1,15.1H38.4c-8.3,0-15.1-6.7-15.1-15.1
		V40.8C23.3,32.5,30.1,25.8,38.4,25.8z"/>
	<path d="M127.6,66H63.5v64.1h64.1V66L127.6,66z M112.5,115H78.6V81h33.9V115z"/>
	<rect x="88" y="90.5" width="15.1" height="15.1"/>
	<path d="M256.5,66h-64.1v64.1h64.1V66z M241.6,115h-34V81h34V115z"/>
	<rect x="216.9" y="90.5" width="15.1" height="15.1"/>
	<path d="M127.6,194.9H63.5V259h64.1V194.9L127.6,194.9z M112.5,243.9H78.6V210h33.9V243.9z"/>
	<rect x="88" y="219.4" width="15.1" height="15.1"/>
	<rect x="78.6" y="140.2" width="15.1" height="15.1"/>
	<polygon points="108.4,170.4 108.4,185.4 123.4,185.4 123.4,170.4 108.7,170.4 108.7,155.3 93.7,155.3 93.7,170.4 	"/>
	<rect x="169.2" y="95" width="15.1" height="15.1"/>
	<rect x="138.9" y="81" width="15.1" height="29"/>
	<rect x="154.1" y="66" width="15.1" height="15.1"/>
	<polygon points="169.2,110.1 154.1,110.1 154.1,125.1 138.9,125.1 138.9,140.2 169.2,140.2 	"/>
	<polygon points="154.1,185.4 154.1,200.2 169.2,200.2 169.2,214.9 199.3,214.9 199.3,199.8 169.2,199.8 169.2,185.1 154.1,185.1 
		154.1,155.3 138.9,155.3 138.9,185.4 	"/>
	<rect x="169.2" y="140.2" width="15.1" height="30.2"/>
	<path d="M214.4,185.1h42.2v-30.2h-15v-14.7h-27.5v15.1h-14.7v15.1h15.1v14.7L214.4,185.1L214.4,185.1z M214.4,155.3h27.2V170h-27.1
		L214.4,155.3L214.4,155.3z"/>
	<rect x="241.6" y="199.8" width="15.1" height="30.2"/>
	<rect x="184.2" y="170.4" width="15.1" height="15.1"/>
	<rect x="199.3" y="214.9" width="15.1" height="15.1"/>
	<rect x="214.4" y="199.8" width="15.1" height="15.1"/>
	<polygon points="229.4,259 229.4,244.9 241.6,244.9 241.6,229.9 214.4,229.9 214.4,259 	"/>
	<rect x="138.9" y="200.2" width="15.1" height="28.7"/>
	<polygon points="169.2,259 169.2,243.9 183.9,243.9 183.9,259 198.9,259 198.9,243.9 184.2,243.9 184.2,228.8 154.1,228.8 
		154.1,259 	"/>
	<rect x="108.7" y="140.2" width="30.2" height="15.1"/>
</g>
<g>
	<path class="st1" d="M87.7,388.8c-3.3,0-5.8-0.9-7.6-2.6s-2.7-4.3-2.7-7.6H84c0,1.6,0.3,2.8,1,3.6c0.6,0.8,1.5,1.2,2.7,1.2
		c1,0,1.7-0.3,2.3-0.9c0.6-0.6,0.8-1.3,0.8-2.3c0-0.9-0.3-1.7-0.8-2.3c-0.5-0.6-1.3-1.2-2.4-1.8l-3.8-1.8c-2.1-1-3.6-2.2-4.6-3.6
		s-1.5-3.1-1.5-5.2c0-2.5,0.9-4.6,2.6-6.1s4-2.3,6.9-2.3c3.1,0,5.5,0.8,7.1,2.4c1.6,1.6,2.4,3.9,2.4,7h-6.5c0-2.8-1.1-4.2-3.2-4.2
		c-0.9,0-1.6,0.3-2.1,0.8s-0.8,1.2-0.8,2.1s0.3,1.6,0.8,2.2s1.4,1.2,2.7,1.8l4,2c2,1.1,3.4,2.2,4.3,3.6c0.9,1.3,1.3,3,1.3,4.9
		c0,2.7-0.9,4.9-2.6,6.6C93,388,90.7,388.8,87.7,388.8z"/>
	<path class="st1" d="M108.7,388.6c-3,0-5.4-1-7.1-2.9c-1.7-1.9-2.6-4.6-2.6-8c0-3.3,0.9-5.9,2.6-7.9c1.8-2,4.1-3,7-3
		s5.2,0.7,6.8,2.2c1.6,1.4,2.4,3.5,2.4,6.2h-6.1c-0.1-2.1-1.1-3.1-3-3.1c-1.1,0-2,0.5-2.6,1.5s-0.9,2.4-0.9,4.1
		c0,3.7,1.2,5.6,3.6,5.6c1.8,0,2.8-1,3-2.9h6.1c-0.1,2.7-1,4.7-2.6,6.1C113.7,387.8,111.5,388.6,108.7,388.6z"/>
	<path class="st1" d="M128,388.6c-2.5,0-4.5-1-5.9-3c-1.5-2-2.2-4.6-2.2-7.9s0.7-5.9,2.2-7.8c1.5-2,3.5-3,5.9-3
		c2.8,0,4.7,1.2,5.7,3.6v-3h6.3V388h-6.3v-3C132.6,387.3,130.7,388.6,128,388.6z M130,383.3c1.2,0,2.2-0.5,2.9-1.4
		c0.7-1,1-2.3,1-4.1s-0.3-3.1-1-4.1s-1.6-1.4-2.9-1.4c-1.3,0-2.2,0.5-2.9,1.4s-1,2.3-1,4.1c0,1.8,0.3,3.2,1,4.1
		S128.7,383.3,130,383.3z"/>
	<path class="st1" d="M144.1,388v-20.5h6.2v2.9c1.1-2.3,3.1-3.5,5.8-3.5c2,0,3.6,0.6,4.7,1.9c1.1,1.3,1.6,3.2,1.6,5.7v13.4h-6.3
		v-11.7c0-1.4-0.2-2.5-0.6-3.1c-0.4-0.7-1.1-1-2.1-1c-2.1,0-3.1,1.6-3.1,4.7v11.1h-6.2L144.1,388L144.1,388z"/>
	<path class="st1" d="M174.8,388v-30h7.4l5.7,21.4l5.7-21.4h7.4v30h-6v-18.3l-4.9,18.3h-4.4l-4.9-18.3V388H174.8z"/>
	<path class="st1" d="M223,376.5c0,1.1-0.1,2-0.2,3h-12.6c0.1,1.4,0.4,2.5,1,3.3s1.5,1.2,2.7,1.2c1.7,0,2.7-0.7,3.1-2.1h5.6
		c-0.3,2.2-1.2,3.8-2.7,5s-3.5,1.8-6,1.8c-3.2,0-5.6-0.9-7.4-2.8c-1.7-1.9-2.6-4.5-2.6-8s0.9-6.1,2.6-8.1c1.7-1.9,4.1-2.9,7.2-2.9
		c2.9,0,5.2,0.9,6.8,2.6C222.2,371.1,223,373.6,223,376.5z M210.2,375.5h6.8c0-2.9-1.1-4.4-3.3-4.4S210.3,372.5,210.2,375.5z"/>
	<path class="st1" d="M241.5,387.1c-0.8,0.8-1.9,1.3-3.1,1.3s-2.2-0.4-3.1-1.3c-0.8-0.8-1.3-1.8-1.3-3s0.4-2.2,1.3-3
		c0.8-0.8,1.9-1.3,3.1-1.3s2.2,0.4,3.1,1.3c0.8,0.8,1.3,1.8,1.3,3S242.4,386.3,241.5,387.1z M235.3,377.6V358h6.4v19.6H235.3z"/>
</g>
</svg>
