<?xml version="1.0" encoding="utf-8"?>
<!-- Generator: Adobe Illustrator 24.1.2, SVG Export Plug-In . SVG Version: 6.00 Build 0)  -->
<svg version="1.1" id="Layer_1" xmlns="http://www.w3.org/2000/svg" xmlns:xlink="http://www.w3.org/1999/xlink" x="0px" y="0px"
	 viewBox="0 0 321.4 418.3" style="enable-background:new 0 0 321.4 418.3;" xml:space="preserve">
<style type="text/css">
	.st0{fill:#E5E7EF;}
	.st1{fill:#FFFFFF;}
</style>
<path d="M321.8,18.9v379.9c-0.7,0.7-1.6,1.2-2.5,1.5c-7.9,1.9-12.9,6.7-14.7,14.5c-0.8,3.5-3.4,3.4-6.2,3.4c-31.4,0-62.7,0-94.1,0
	c-59.7,0-119.5,0-179.3,0.1c-4.1,0-6.3-1-7.4-5.2c-1.3-6-6-10.8-12.1-12.1c-4.2-1.1-5.2-3.3-5.2-7.4c0.1-123.1,0.1-246.1,0-369.2
	c0-4.2,0.9-6.7,5.3-7.8c6.3-1.6,10.2-5.9,12-12.2c0.3-1.6,1.1-3.2,2.1-4.5h283c0.2,0.3,0.5,0.5,0.6,0.8c1.9,9.8,7.8,15.7,17.6,17.6
	C321.3,18.4,321.6,18.7,321.8,18.9z"/>
<g>
	<path class="st0" d="M38.4,22.8h243.3c8.3,0,15.1,6.7,15.1,15.1v243.3c0,8.3-6.7,15.1-15.1,15.1H38.4c-8.3,0-15.1-6.7-15.1-15.1
		V37.8C23.3,29.5,30.1,22.8,38.4,22.8z"/>
	<path d="M127.6,63H63.5v64.1h64.1V63L127.6,63z M112.5,112H78.6V78h33.9V112z"/>
	<rect x="88" y="87.5" width="15.1" height="15.1"/>
	<path d="M256.5,63h-64.1v64.1h64.1V63z M241.6,112h-34V78h34V112z"/>
	<rect x="216.9" y="87.5" width="15.1" height="15.1"/>
	<path d="M127.6,191.9H63.5V256h64.1V191.9L127.6,191.9z M112.5,240.9H78.6V207h33.9V240.9z"/>
	<rect x="88" y="216.4" width="15.1" height="15.1"/>
	<rect x="78.6" y="137.2" width="15.1" height="15.1"/>
	<polygon points="108.4,167.4 108.4,182.4 123.4,182.4 123.4,167.4 108.7,167.4 108.7,152.3 93.7,152.3 93.7,167.4 	"/>
	<rect x="169.2" y="92" width="15.1" height="15.1"/>
	<rect x="138.9" y="78" width="15.1" height="29"/>
	<rect x="154.1" y="63" width="15.1" height="15.1"/>
	<polygon points="169.2,107.1 154.1,107.1 154.1,122.1 138.9,122.1 138.9,137.2 169.2,137.2 	"/>
	<polygon points="154.1,182.4 154.1,197.2 169.2,197.2 169.2,211.9 199.3,211.9 199.3,196.8 169.2,196.8 169.2,182.1 154.1,182.1 
		154.1,152.3 138.9,152.3 138.9,182.4 	"/>
	<rect x="169.2" y="137.2" width="15.1" height="30.2"/>
	<path d="M214.4,182.1h42.2v-30.2h-15v-14.7h-27.5v15.1h-14.7v15.1h15.1v14.7L214.4,182.1L214.4,182.1z M214.4,152.3h27.2V167h-27.1
		L214.4,152.3L214.4,152.3z"/>
	<rect x="241.6" y="196.8" width="15.1" height="30.2"/>
	<rect x="184.2" y="167.4" width="15.1" height="15.1"/>
	<rect x="199.3" y="211.9" width="15.1" height="15.1"/>
	<rect x="214.4" y="196.8" width="15.1" height="15.1"/>
	<polygon points="229.4,256 229.4,241.9 241.6,241.9 241.6,226.9 214.4,226.9 214.4,256 	"/>
	<rect x="138.9" y="197.2" width="15.1" height="28.7"/>
	<polygon points="169.2,256 169.2,240.9 183.9,240.9 183.9,256 198.9,256 198.9,240.9 184.2,240.9 184.2,225.8 154.1,225.8 
		154.1,256 	"/>
	<rect x="108.7" y="137.2" width="30.2" height="15.1"/>
</g>
<g>
	<path class="st1" d="M87.7,369.8c-3.3,0-5.8-0.9-7.6-2.6s-2.7-4.3-2.7-7.6H84c0,1.6,0.3,2.8,1,3.6c0.6,0.8,1.5,1.2,2.7,1.2
		c1,0,1.7-0.3,2.3-0.9c0.6-0.6,0.8-1.3,0.8-2.3c0-0.9-0.3-1.7-0.8-2.3c-0.5-0.6-1.3-1.2-2.4-1.8l-3.8-1.8c-2.1-1-3.6-2.2-4.6-3.6
		s-1.5-3.1-1.5-5.2c0-2.5,0.9-4.6,2.6-6.1s4-2.3,6.9-2.3c3.1,0,5.5,0.8,7.1,2.4c1.6,1.6,2.4,3.9,2.4,7h-6.5c0-2.8-1.1-4.2-3.2-4.2
		c-0.9,0-1.6,0.3-2.1,0.8s-0.8,1.2-0.8,2.1s0.3,1.6,0.8,2.2s1.4,1.2,2.7,1.8l4,2c2,1.1,3.4,2.2,4.3,3.6c0.9,1.3,1.3,3,1.3,4.9
		c0,2.7-0.9,4.9-2.6,6.6C93,369,90.7,369.8,87.7,369.8z"/>
	<path class="st1" d="M108.7,369.6c-3,0-5.4-1-7.1-2.9c-1.7-1.9-2.6-4.6-2.6-8c0-3.3,0.9-5.9,2.6-7.9c1.8-2,4.1-3,7-3
		s5.2,0.7,6.8,2.2c1.6,1.4,2.4,3.5,2.4,6.2h-6.1c-0.1-2.1-1.1-3.1-3-3.1c-1.1,0-2,0.5-2.6,1.5s-0.9,2.4-0.9,4.1
		c0,3.7,1.2,5.6,3.6,5.6c1.8,0,2.8-1,3-2.9h6.1c-0.1,2.7-1,4.7-2.6,6.1C113.7,368.8,111.5,369.6,108.7,369.6z"/>
	<path class="st1" d="M128,369.6c-2.5,0-4.5-1-5.9-3c-1.5-2-2.2-4.6-2.2-7.9s0.7-5.9,2.2-7.8c1.5-2,3.5-3,5.9-3
		c2.8,0,4.7,1.2,5.7,3.6v-3h6.3V369h-6.3v-3C132.6,368.3,130.7,369.6,128,369.6z M130,364.3c1.2,0,2.2-0.5,2.9-1.4
		c0.7-1,1-2.3,1-4.1s-0.3-3.1-1-4.1s-1.6-1.4-2.9-1.4c-1.3,0-2.2,0.5-2.9,1.4s-1,2.3-1,4.1c0,1.8,0.3,3.2,1,4.1
		S128.7,364.3,130,364.3z"/>
	<path class="st1" d="M144.1,369v-20.5h6.2v2.9c1.1-2.3,3.1-3.5,5.8-3.5c2,0,3.6,0.6,4.7,1.9c1.1,1.3,1.6,3.2,1.6,5.7v13.4h-6.3
		v-11.7c0-1.4-0.2-2.5-0.6-3.1c-0.4-0.7-1.1-1-2.1-1c-2.1,0-3.1,1.6-3.1,4.7v11.1h-6.2L144.1,369L144.1,369z"/>
	<path class="st1" d="M174.8,369v-30h7.4l5.7,21.4l5.7-21.4h7.4v30h-6v-18.3l-4.9,18.3h-4.4l-4.9-18.3V369H174.8z"/>
	<path class="st1" d="M223,357.5c0,1.1-0.1,2-0.2,3h-12.6c0.1,1.4,0.4,2.5,1,3.3s1.5,1.2,2.7,1.2c1.7,0,2.7-0.7,3.1-2.1h5.6
		c-0.3,2.2-1.2,3.8-2.7,5s-3.5,1.8-6,1.8c-3.2,0-5.6-0.9-7.4-2.8c-1.7-1.9-2.6-4.5-2.6-8s0.9-6.1,2.6-8.1c1.7-1.9,4.1-2.9,7.2-2.9
		c2.9,0,5.2,0.9,6.8,2.6C222.2,352.1,223,354.6,223,357.5z M210.2,356.5h6.8c0-2.9-1.1-4.4-3.3-4.4S210.3,353.5,210.2,356.5z"/>
	<path class="st1" d="M241.5,368.1c-0.8,0.8-1.9,1.3-3.1,1.3s-2.2-0.4-3.1-1.3c-0.8-0.8-1.3-1.8-1.3-3s0.4-2.2,1.3-3
		c0.8-0.8,1.9-1.3,3.1-1.3s2.2,0.4,3.1,1.3c0.8,0.8,1.3,1.8,1.3,3S242.4,367.3,241.5,368.1z M235.3,358.6V339h6.4v19.6H235.3z"/>
</g>
</svg>
