<?xml version="1.0" encoding="utf-8"?>
<!-- Generator: Adobe Illustrator 24.1.2, SVG Export Plug-In . SVG Version: 6.00 Build 0)  -->
<svg version="1.1" id="Layer_1" xmlns="http://www.w3.org/2000/svg" xmlns:xlink="http://www.w3.org/1999/xlink" x="0px" y="0px"
	 viewBox="0 0 320 418" style="enable-background:new 0 0 320 418;" xml:space="preserve">
<style type="text/css">
	.st0{fill:#010101;}
	.st1{fill:#616161;}
	.st2{fill:#E5E7EF;}
</style>
<path class="st0" d="M319.9,13.7c0-8.8-2.1-11.5-10.4-13.6H9.4c-6.1,0.6-9,4.2-9.9,10v396.4c1.9,9.5,4.3,11.4,14.1,11.4h291.6
	c11.2,0,14.8-3.5,14.9-14.9C319.9,273.3,319.9,143.4,319.9,13.7z M312.9,403.5c0.1,1,0,2-0.4,2.9c-0.8,3-3,4.2-5.9,4.3
	c-1.5,0.1-3,0.1-4.5,0.1c-95.2,0-190.4,0-285.5,0c-4,0-8.6,1-10.4-4.4c-0.4-0.9-0.5-1.9-0.4-2.9c0-27.7,0-55.3,0-83
	c-0.1-1,0-2,0.3-2.9c2.9-2.2,6.4-1.5,9.6-1.5c77.3,0,154.6,0,231.9,0c19,0,38.1,0,57.1,0c2.6,0,5.3-0.4,7.7,1.4
	c0.7,1,0.5,2.3,0.5,3.4C312.9,348.5,312.9,376,312.9,403.5z M312.5,311c-1.8,1.6-4,1.3-6.1,1.3c-98,0-196,0-293.9,0
	c-6.5,0-6.6-0.2-6.6-6.7c0-96.6,0-193.1,0-289.6c0-1.6-0.3-3.3,0.4-4.9c0.5-3,2.7-4,5.3-4.3c1.7-0.2,3.3-0.2,5-0.2
	c95.2,0,190.4,0,285.5,0c4,0,8.5-0.9,10.4,4.4c0.7,1.6,0.4,3.3,0.4,4.9c0,96.7,0,193.4,0,290.1C312.9,307.7,313.1,309.3,312.5,311
	L312.5,311z"/>
<path class="st1" d="M6.3,317.8l-0.1,88.6c-1.4-1.5-1-3.4-1-5.2c0-128.4,0-256.7,0-385.1c0-1.8-0.4-3.7,1-5.2
	c0,98.4,0,196.8-0.1,295.2c0,3.7,0.7,5.1,4.8,5c99.3-0.1,198.7-0.2,298-0.1c1.1,0,2.3-0.1,3.5-0.2c0.2,0.7-0.1,1.3-0.8,1.6
	c-3,1.3-6.2,0.9-9.3,0.9c-95.3,0-190.7,0-286,0C12.4,313.5,8.4,313.3,6.3,317.8z"/>
<path d="M315.9,312l0.1,5.8H3.2c-0.9-4.8,1-6,5.9-6C111.3,312,213.6,312.2,315.9,312z"/>
<g>
	<path class="st2" d="M38.2,21.8h243.3c8.3,0,15.1,6.7,15.1,15.1v243.3c0,8.3-6.7,15.1-15.1,15.1H38.2c-8.3,0-15.1-6.7-15.1-15.1
		V36.8C23.1,28.5,29.9,21.8,38.2,21.8z"/>
	<path d="M127.4,62H63.3v64.1h64.1V62L127.4,62z M112.3,111H78.4V77h33.9V111z"/>
	<rect x="87.8" y="86.5" width="15.1" height="15.1"/>
	<path d="M256.3,62h-64.1v64.1h64.1V62z M241.3,111h-34V77h34V111z"/>
	<rect x="216.7" y="86.5" width="15.1" height="15.1"/>
	<path d="M127.4,190.9H63.3v64.1h64.1V190.9L127.4,190.9z M112.3,239.9H78.4v-33.9h33.9V239.9z"/>
	<rect x="87.8" y="215.4" width="15.1" height="15.1"/>
	<rect x="78.4" y="136.3" width="15.1" height="15.1"/>
	<polygon points="108.2,166.4 108.2,181.4 123.2,181.4 123.2,166.4 108.5,166.4 108.5,151.4 93.5,151.4 93.5,166.4 	"/>
	<rect x="168.9" y="91" width="15.1" height="15.1"/>
	<rect x="138.7" y="77" width="15.1" height="29"/>
	<rect x="153.8" y="62" width="15.1" height="15.1"/>
	<polygon points="168.9,106.1 153.8,106.1 153.8,121.1 138.7,121.1 138.7,136.3 168.9,136.3 	"/>
	<polygon points="153.8,181.4 153.8,196.3 168.9,196.3 168.9,210.9 199,210.9 199,195.9 168.9,195.9 168.9,181.2 153.8,181.2 
		153.8,151.4 138.7,151.4 138.7,181.4 	"/>
	<rect x="168.9" y="136.3" width="15.1" height="30.2"/>
	<path d="M214.1,181.2h42.2V151h-15v-14.7h-27.5v15.1h-14.7v15.1h15.1v14.7L214.1,181.2L214.1,181.2z M214.1,151.4h27.2v14.7h-27.1
		L214.1,151.4L214.1,151.4z"/>
	<rect x="241.3" y="195.9" width="15.1" height="30.2"/>
	<rect x="183.9" y="166.4" width="15.1" height="15.1"/>
	<rect x="199" y="210.9" width="15.1" height="15.1"/>
	<rect x="214.1" y="195.9" width="15.1" height="15.1"/>
	<polygon points="229.2,255.1 229.2,240.9 241.3,240.9 241.3,225.9 214.1,225.9 214.1,255.1 	"/>
	<rect x="138.7" y="196.3" width="15.1" height="28.7"/>
	<polygon points="168.9,255.1 168.9,239.9 183.6,239.9 183.6,255.1 198.7,255.1 198.7,239.9 183.9,239.9 183.9,224.9 153.8,224.9 
		153.8,255.1 	"/>
	<rect x="108.5" y="136.3" width="30.2" height="15.1"/>
</g>
<g>
	<path d="M87.4,376.9c-3.3,0-5.8-0.9-7.6-2.6s-2.7-4.3-2.7-7.6h6.6c0,1.6,0.3,2.8,1,3.6c0.6,0.8,1.5,1.2,2.7,1.2
		c1,0,1.7-0.3,2.3-0.9c0.6-0.6,0.8-1.3,0.8-2.3c0-0.9-0.3-1.7-0.8-2.3c-0.5-0.6-1.3-1.2-2.4-1.8l-3.8-1.8c-2.1-1-3.6-2.2-4.6-3.6
		s-1.5-3.1-1.5-5.2c0-2.5,0.9-4.6,2.6-6.1s4-2.3,6.9-2.3c3.1,0,5.5,0.8,7.1,2.4c1.6,1.6,2.4,3.9,2.4,7h-6.5c0-2.8-1.1-4.2-3.2-4.2
		c-0.9,0-1.6,0.3-2.1,0.8s-0.8,1.2-0.8,2.1s0.3,1.6,0.8,2.2s1.4,1.2,2.7,1.8l4,2c2,1.1,3.4,2.2,4.3,3.6c0.9,1.3,1.3,3,1.3,4.9
		c0,2.7-0.9,4.9-2.6,6.6C92.7,376.1,90.4,376.9,87.4,376.9z"/>
	<path d="M108.4,376.7c-3,0-5.4-1-7.1-2.9c-1.7-1.9-2.6-4.6-2.6-8c0-3.3,0.9-5.9,2.6-7.9c1.8-2,4.1-3,7-3s5.2,0.7,6.8,2.2
		c1.6,1.4,2.4,3.5,2.4,6.2h-6.1c-0.1-2.1-1.1-3.1-3-3.1c-1.1,0-2,0.5-2.6,1.5s-0.9,2.4-0.9,4.1c0,3.7,1.2,5.6,3.6,5.6
		c1.8,0,2.8-1,3-2.9h6.1c-0.1,2.7-1,4.7-2.6,6.1C113.4,375.9,111.2,376.7,108.4,376.7z"/>
	<path d="M127.7,376.7c-2.5,0-4.5-1-5.9-3c-1.5-2-2.2-4.6-2.2-7.9s0.7-5.9,2.2-7.8c1.5-2,3.5-3,5.9-3c2.8,0,4.7,1.2,5.7,3.6v-3h6.3
		v20.5h-6.3v-3C132.3,375.4,130.4,376.7,127.7,376.7z M129.7,371.4c1.2,0,2.2-0.5,2.9-1.4c0.7-1,1-2.3,1-4.1s-0.3-3.1-1-4.1
		s-1.6-1.4-2.9-1.4c-1.3,0-2.2,0.5-2.9,1.4s-1,2.3-1,4.1c0,1.8,0.3,3.2,1,4.1S128.4,371.4,129.7,371.4z"/>
	<path d="M143.8,376.1v-20.5h6.2v2.9c1.1-2.3,3.1-3.5,5.8-3.5c2,0,3.6,0.6,4.7,1.9c1.1,1.3,1.6,3.2,1.6,5.7V376h-6.3v-11.7
		c0-1.4-0.2-2.5-0.6-3.1c-0.4-0.7-1.1-1-2.1-1c-2.1,0-3.1,1.6-3.1,4.7V376h-6.2L143.8,376.1L143.8,376.1z"/>
	<path d="M174.5,376.1v-30h7.4l5.7,21.4l5.7-21.4h7.4v30h-6v-18.3l-4.9,18.3h-4.4l-4.9-18.3v18.3H174.5z"/>
	<path d="M222.7,364.6c0,1.1-0.1,2-0.2,3h-12.6c0.1,1.4,0.4,2.5,1,3.3s1.5,1.2,2.7,1.2c1.7,0,2.7-0.7,3.1-2.1h5.6
		c-0.3,2.2-1.2,3.8-2.7,5s-3.5,1.8-6,1.8c-3.2,0-5.6-0.9-7.4-2.8c-1.7-1.9-2.6-4.5-2.6-8s0.9-6.1,2.6-8.1c1.7-1.9,4.1-2.9,7.2-2.9
		c2.9,0,5.2,0.9,6.8,2.6C221.9,359.2,222.7,361.7,222.7,364.6z M209.9,363.6h6.8c0-2.9-1.1-4.4-3.3-4.4S210,360.6,209.9,363.6z"/>
	<path d="M241.2,375.2c-0.8,0.8-1.9,1.3-3.1,1.3s-2.2-0.4-3.1-1.3c-0.8-0.8-1.3-1.8-1.3-3s0.4-2.2,1.3-3c0.8-0.8,1.9-1.3,3.1-1.3
		s2.2,0.4,3.1,1.3c0.8,0.8,1.3,1.8,1.3,3S242.1,374.4,241.2,375.2z M235,365.7v-19.6h6.4v19.6H235z"/>
</g>
</svg>
